<svg version="1.1" xmlns="http://www.w3.org/2000/svg" x="0" y="0" viewBox="0 0 830 650" xml:space="preserve"><style>.prefix__st0,.prefix__st1,.prefix__st2{fill:none;stroke:#8dba43;stroke-width:3;stroke-linecap:round;stroke-linejoin:round;stroke-miterlimit:10}.prefix__st1,.prefix__st2{stroke-width:5}.prefix__st2{stroke-width:2}</style><path class="prefix__st0" d="M204.65 220.92c19.68 53.21 55.7 121.16-28.41 153.14C95.9 404.61 69.66 327.3 49.98 274.1c-9.51-25.71 19.24-28.72 31.42-38.67 13.03-10.65 1.25-45.79 23.58-54.05 18.73-6.93 30.25 32.14 44.09 29.88 18.05-2.96 44.43-20.47 55.58 9.66z"/><path class="prefix__st0" d="M81.4 235.42s26.58-2.42 38.67-7.25c9.25-3.7 27.66-16.83 27.66-16.83M76.84 238.23s-20.38 33.29-16.37 63.59"/><path class="prefix__st0" d="M87.49 350.95c-3.98-84.05 16.25-118.58 16.25-118.58s61.74-8.12 113.95 22.85M140.38 216.38s-24.7 47.68-14.05 162.67M177.85 203.87s-27.84 100.94-12.6 173.8M212.52 241.46s-19.96 51.97-10.29 117.23M74.2 330.66s81.49 2.49 105.97 41.85M59.49 297.95s107.85.14 156.71 49.77M48.08 262.6s126.35-4.24 181.33 43.51M160.69 208.24s24.87-1.82 40.45 5.43"/><ellipse transform="rotate(-26.169 262.642 15.48)" class="prefix__st0" cx="262.65" cy="15.47" rx="31.42" ry="7.25"/><path class="prefix__st0" d="M298.46 15.95s13.31-3.19 9 7c-4.8 11.35-20.5 20.17-35 25-10.25 3.42-31.66 5.17-50.99 10s-50.66 39.7-62.74 46.96-45.92 26.59-50.75 16.92c-5.4-10.81 33.83-24.17 41.08-29 7.25-4.83 39.37-32.09 65.25-43.51 12.16-5.36 26.15-7.36 26.15-7.36"/><path class="prefix__st0" d="M290.46.95l10 18s-10.89 10.19-26 19c-12 7-32 8-32 8l-8-17M573.42 29.95l52.99-5 15 150s-19 5-28 7-30 1-30 1l-9.99-153z"/><path class="prefix__st0" d="M576.42 29.95l-2-16 18-5-1-7 8-1 1 7h20l2 18M581.51 153.76s11.91 3.19 27.9.19 29.16-7.35 29.16-7.35M580.45 137.42s14.97 1.53 27.97-.47c13-2 28.72-6.51 28.72-6.51M588.42 281.95c2 9 5 2 16 5s60.99 31 68.99 37c8 6 18 18 24 16s.02-22.18 3-44c3-22 25-40 23-58s-19-29-26-33-27-8-43.99 0-67 68-65 77z"/><path class="prefix__st0" d="M697.41 204.95s-16.81-34.47-3-36c9-1 6 12 9 13s5-7 10-6 1 8 5 7 13-3 13 6c-.01 8-34 16-34 16"/><path class="prefix__st1" d="M481.93 209.21c-.04 46.72-17.08 85.35-66.91 84.15-40.03-.97-65.38-33.67-67.85-80.33-2.8-52.71 10.47-87.18 50.4-90.11 65.56-4.81 84.39 39.57 84.36 86.29z"/><path class="prefix__st1" d="M348.05 198.35s38.77 3.93 51.58-30.33c19.97 31.86 81.02 35.93 81.02 35.93M407.53 122.72s-17.08-33.67 17.13-53.11c23.96-13.61 66.07 9.71 63.99 34.51-2.85 34.06-32.73 34.65-32.73 34.65M332.74 368.36l-1.84 30.4-7.27 119.89M496.64 531.28c5.85-.97 11.65-2.1 17.34-3.4 0-.58-.42-10.18-1.07-24.41v-.01M512.43 487.95c-.25-5.31-.67-9.86-.94-15.69M482.91 533.26c-43.26 5.37-88.09 3.06-119.21-.02h-.01M176.26 480.69c-.43-.73-.61-1.15-.61-1.15s60.42-41.09 74.92-62.84 31.42-82.18 58-106.35c18.58-16.9 33.16-28.61 61.88-34.4M487.4 409.45s5.37 41.6 24.1 62.81c1.82 2.06 3.77 3.93 5.85 5.55M461.44 276.95c31.98 8.31 49.31 26.02 64.63 47.9 16.92 24.17 29 101.52 29 101.52l12.42-3.65c.01 0 .01-.01.02-.01M598.39 415.33c1.05.55 2.39 1.33 3.86 2.38 4.5 3.2 10.21 8.87 12.36 17.89.56 2.33.88 4.89.88 7.69 0 0-41.08 41.09-79.76 41.09-4.62 0-8.82-1.07-12.64-2.94"/><path class="prefix__st1" d="M330.95 398.68s-.02.03-.05.08c-1.28 1.92-25.14 37.67-39.24 51.78-10.14 10.13-45.05 29.7-65.16 40.59h-.01M635.92 527.45c26.79 22.52 32.7 72.58 6.15 94.7-57.82 48.19-186.09-12.09-224.75-14.51-38.66-2.41-141.98 36.72-217.5 14.51-41.08-12.09-47.9-64.22-29-89.43 10.05-13.41 32.53-18.86 56.15-19.27M596.92 514.45c-39.41-4.51-82.94 13.43-82.94 13.43"/><path class="prefix__st1" d="M402.79 638.33c-9.23 10.49-18.37 10.79-23.16 6.57-4.79-4.22-5.09-12.83 4.14-23.32s29.29-14.66 29.29-14.66-1.04 20.93-10.27 31.41zM443.53 622.5c8.34 11.21 6.06 20.71.3 25-5.76 4.29-14.85 3.24-23.19-7.97s-7.01-32.62-7.01-32.62 21.56 4.38 29.9 15.59zM602.25 417.71c6.1-3.54 12.24-6.83 16.81-8.62 27.34-10.71 56.84-14.14 83.43-9.31 15.04 2.74 14.5 14.5 9.67 14.5-41.08 0-70.63 9.09-82.23 13.65-4.43 1.74-9.89 4.58-15.32 7.67M153.98 501.45c-4 4-5 8-2.5 11.93 6.49 10.2 19.34 4.83 29.48-2.47 1.57-1.12 3.09-2.07 6.02-4.46"/><path class="prefix__st1" d="M74.15 494.04c1.84-6.59 4.83-16.92 9.67-26.59 210.25 21.75 331.09 89.43 340.75 91.85 9.67 2.42 16.92 2.42 29 0 12.08-2.42 260.82-93.77 362.33-76.85 1 5 3 20 2.6 23.68-219.57 10.32-357.67 67.68-357.67 67.68s-2.42 16.92-19.33 16.92-21.75-16.92-21.75-16.92-152.79-72.36-345.6-79.77z"/><path class="prefix__st1" d="M469.44 554.6c12.37-8.03 20.9-15.74 27.21-23.32 7.77-9.33 12.19-18.47 16.27-27.81 3.14-7.17 6.08-14.45 10.18-22.03 4.56-8.41 10.56-17.18 19.88-26.54 17.68-17.75 36.7-30.47 55.42-39.57 57.01-27.71 111.32-21.82 116.78-21.85 4.73-.03 5.73-8.03-3-9-6.11-.68-78.73-8.11-144.69 38.24-9.38 6.57-18.62 14.25-27.52 23.18-11.31 11.36-17.74 21.86-22.63 31.91-1.85 3.8-3.49 7.54-5.08 11.23-6.43 14.91-12.25 29.15-29.36 44.22-10.04 8.83-23.97 17.95-44.18 27.65l.06.19"/><path class="prefix__st0" d="M272.96 242.45s5-75-21-102M243 119.86c6.4 6.09 8.62 19.95 8.62 19.95s-13.94-1.54-20.34-7.63-6.07-11.03-2.83-14.43c3.23-3.4 8.15-3.98 14.55 2.11z"/><path class="prefix__st0" d="M285.84 156.68c-5.58 6.85-19.22 10.13-19.22 10.13s.46-14.02 6.04-20.87 10.53-6.9 14.17-3.93c3.64 2.96 4.59 7.82-.99 14.67zM251.83 161.89c8.07 3.61 14.79 15.92 14.79 15.92s-13.66 3.21-21.72-.4c-8.07-3.61-9.4-8.37-7.49-12.66 1.91-4.28 6.35-6.47 14.42-2.86zM261.9 197.91c7.02 5.37 10.72 18.9 10.72 18.9s-14.03-.03-21.05-5.4c-7.02-5.37-7.22-10.31-4.37-14.04 2.85-3.73 7.68-4.83 14.7.54zM294.62 200.25c-6.98 5.42-21.01 5.56-21.01 5.56s3.6-13.56 10.58-18.98 11.81-4.36 14.69-.65c2.89 3.71 2.72 8.65-4.26 14.07zM691.91 111.45s23-57 75.99-64"/><path class="prefix__st0" d="M676.53 125.62c3.44-8.14 15.62-15.11 15.62-15.11s3.48 13.59.04 21.73-8.18 9.57-12.5 7.74-6.6-6.22-3.16-14.36zM712.32 98.05c-2.37-8.51 2.82-21.55 2.82-21.55s11.18 8.48 13.55 16.99-.45 12.58-4.97 13.84c-4.52 1.26-9.03-.76-11.4-9.28zM735.33 71.75c1.52-8.71 11.81-18.24 11.81-18.24s6.45 12.46 4.93 21.16c-1.52 8.71-5.81 11.17-10.43 10.36-4.62-.81-7.83-4.58-6.31-13.28zM685.81 77.86c8.83-.37 20.34 7.65 20.34 7.65s-10.79 8.96-19.62 9.34c-8.83.37-12.15-3.29-12.35-7.99-.2-4.69 2.8-8.63 11.63-9zM717.97 46.19c8.54 2.25 17.17 13.32 17.17 13.32s-12.96 5.37-21.5 3.12-10.63-6.74-9.43-11.28c1.19-4.54 5.22-7.42 13.76-5.16zM59.99 426.45S8 409.45 0 383.45M73.19 434.34c-6.09-.68-13.13-7.39-13.13-7.39s8.34-5 14.43-4.32c6.09.68 7.98 3.54 7.61 6.78s-2.82 5.61-8.91 4.93z"/><path class="prefix__st0" d="M52.13 414.82c-5.62 2.45-15.06.13-15.06.13s4.74-8.49 10.36-10.94c5.62-2.45 8.68-.9 9.98 2.08 1.3 2.98.34 6.28-5.28 8.73zM40.95 434.86c-1.58-5.92 2.12-14.92 2.12-14.92s7.69 5.96 9.27 11.88-.4 8.72-3.55 9.56c-3.14.84-6.26-.6-7.84-6.52zM9.08 417.77c.05-6.13 5.99-13.82 5.99-13.82s5.83 7.78 5.79 13.91-2.7 8.3-5.95 8.28c-3.26-.03-5.88-2.24-5.83-8.37zM29.14 401.82c-5.62 2.45-15.06.13-15.06.13s4.74-8.49 10.36-10.94c5.62-2.45 8.68-.9 9.98 2.08 1.29 2.98.33 6.28-5.28 8.73zM765.9 359.45s51.99 30 63.99 75M753.68 341.87c7.6 4.5 12.88 17.5 12.88 17.5s-13.93 1.63-21.54-2.87c-7.6-4.5-8.39-9.39-6-13.43 2.4-4.04 7.06-5.7 14.66-1.2z"/><path class="prefix__st0" d="M804.9 359.92c-1.69 8.67-12.17 18-12.17 18s-6.21-12.58-4.52-21.26c1.69-8.67 6.03-11.05 10.64-10.15 4.61.91 7.74 4.74 6.05 13.41zM770.41 370.71c8.81-.65 20.57 7.01 20.57 7.01s-10.51 9.3-19.32 9.95c-8.81.65-12.25-2.91-12.59-7.6s2.53-8.71 11.34-9.36zM793.4 395.71c8.81-.65 20.57 7.01 20.57 7.01s-10.51 9.3-19.32 9.95c-8.81.65-12.25-2.91-12.59-7.6s2.53-8.71 11.34-9.36zM828.64 385.12c-3.07 8.29-14.91 15.81-14.91 15.81s-4.1-13.42-1.03-21.71c3.07-8.29 7.73-9.93 12.13-8.3 4.4 1.62 6.87 5.91 3.81 14.2z"/><path class="prefix__st2" d="M324.14 510.23s164.49 13.5 177.14 1.36M325.49 487.95s164.45 16.5 184.44-.5M327.96 470.45s164.98 7 179.98 2M328.18 451.97s149.45 11.67 173.1 4.58M328.54 437.64s117.57 10.48 165.98 2.15M330.96 419.45s122.77 17.31 158.87 3.15M332.96 400.45s175.98 21 213.97-9M331.97 380.99S499.88 397 544.9 376.22M280.99 351.66s178.95 32.79 255.94 3.79M289.14 336.15s184.8 24.3 238.79-3.7M299.69 320.12s160.72 17.33 220.98-2.67M325.96 297.45s151.98 15 175.98 1M276.96 363.45s21.71 16.39 54.85 20.19M268.95 378.32s35.01 30.13 59.01 23.13M261.88 394.6s43.32 24.55 56.2 22.7M256.57 406s33.75 25.55 51.07 25.5M246.97 423.45s31.83 27.46 47.41 24.23M233.87 435.7s17.09 26.75 37.09 28.75M220.26 446.33s11.93 28.09 30.82 31.11M205.97 458.45s8 23 26 28M190.68 468.93s11.3 14.52 16.3 17.52M491.15 428.17s54.85-2.7 61.31-16.71M500.93 453.45s41.99-3 52.99-27M544.93 455.45s1.33 22.14-2.84 28.57M555.28 443.5s7.64 22.95 4.64 33.95M564.92 435.45s17 21 14 35M578.92 428.45s21.39 17.77 18.19 30.39M591.02 419.81s17.83 14.79 19.37 28.21"/><path class="prefix__st1" d="M364.95 222.45s15 10 26 0M430.94 222.45c.18.49 14.54 9.41 28-3M408.95 230.45s2 17 4 25M406.95 267.45s13 5 19-2"/><path class="prefix__st2" d="M210.36 624.82c1.03-1.88 1.61-4.06 1.61-6.37 0-7.18-5.6-13-12.5-13-6.28 0-11.49 4.83-12.37 11.11"/><circle class="prefix__st2" cx="229.47" cy="571.95" r="10.5"/><circle class="prefix__st2" cx="184.48" cy="552.95" r="10.5"/><circle class="prefix__st2" cx="226.47" cy="536.95" r="10.5"/><circle class="prefix__st2" cx="275.46" cy="561.95" r="9.5"/><ellipse class="prefix__st2" cx="274.46" cy="612.95" rx="8.5" ry="9.5"/><circle class="prefix__st2" cx="327.96" cy="573.45" r="9"/><path class="prefix__st2" d="M274.83 524.21c-.76 5.24-4.89 9.24-9.87 9.24-5.52 0-10-4.92-10-11 0-1.06.14-2.08.39-3.05M364.69 614.46a8.66 8.66 0 01-.74-3.51c0-5.25 4.7-9.5 10.5-9.5 5.71 0 10.36 4.13 10.5 9.27M328.14 621.34a9.77 9.77 0 01-.18-1.89c0-5.52 4.48-10 10-10 4.93 0 9.03 3.57 9.85 8.27"/><circle class="prefix__st2" cx="243.97" cy="607.45" r="7"/><ellipse class="prefix__st2" cx="400.95" cy="580.45" rx="10" ry="9"/><ellipse class="prefix__st2" cx="496.93" cy="607.45" rx="8" ry="9"/><circle class="prefix__st2" cx="513.93" cy="580.45" r="9"/><path class="prefix__st2" d="M560.47 639.85c.3-.91.46-1.89.46-2.9 0-5.25-4.25-9.5-9.5-9.5s-9.5 4.25-9.5 9.5c0 .18.01.37.02.55"/><circle class="prefix__st2" cx="584.42" cy="618.95" r="8.5"/><circle class="prefix__st2" cx="577.92" cy="580.45" r="9"/><circle class="prefix__st2" cx="608.92" cy="563.45" r="10"/><ellipse class="prefix__st2" cx="630.42" cy="601.95" rx="7.5" ry="6.5"/><path class="prefix__st2" d="M654.76 555.52c-4.98.57-8.85 4.8-8.85 9.93 0 5.52 4.48 10 10 10 1.08 0 2.11-.17 3.08-.49M568.17 541.16c.48 1 .75 2.12.75 3.29 0 4.42-3.81 8-8.5 8-4.42 0-8.06-3.18-8.46-7.25"/><circle class="prefix__st2" cx="550.93" cy="599.45" r="9"/><circle class="prefix__st2" cx="484.44" cy="583.95" r="5.5"/><circle class="prefix__st2" cx="461.94" cy="610.45" r="9"/><circle class="prefix__st2" cx="299.96" cy="593.45" r="7"/><circle class="prefix__st2" cx="309.96" cy="553.45" r="8"/><circle class="prefix__st2" cx="367.95" cy="567.45" r="8"/></svg>