<svg width="150" height="150" viewBox="0 0 150 150" fill="none" xmlns="http://www.w3.org/2000/svg">
<path d="M131.831 140.694H18.1693C11.4798 140.694 6.04834 135.262 6.04834 128.573V60.879C6.04834 54.1895 11.4798 48.7581 18.1693 48.7581H131.831C138.52 48.7581 143.952 54.1895 143.952 60.879V128.573C143.952 135.262 138.52 140.694 131.831 140.694Z" stroke="#3E8C6B" stroke-width="4" stroke-miterlimit="10" stroke-linecap="round" stroke-linejoin="round"/>
<path d="M36.2903 48.758C36.2903 27.383 53.625 10.0483 75 10.0483C96.375 10.0483 113.71 27.383 113.71 48.758" stroke="#3E8C6B" stroke-width="4" stroke-miterlimit="10" stroke-linecap="round" stroke-linejoin="round"/>
<path d="M61.3186 112.423L70.2339 121.339L88.6815 103.194" stroke="#3E8C6B" stroke-width="4" stroke-miterlimit="10" stroke-linecap="round" stroke-linejoin="round"/>
<path d="M7.13708 55.8589C12.9193 74.5242 41.1048 88.6774 75 88.6774C108.895 88.6774 137.081 74.5242 142.863 55.8589" stroke="#3E8C6B" stroke-width="4" stroke-miterlimit="10" stroke-linecap="round" stroke-linejoin="round"/>
</svg>
