<svg width="150" height="150" viewBox="0 0 150 150" fill="none" xmlns="http://www.w3.org/2000/svg">
<g clip-path="url(#clip0_157_1623)">
<path d="M108.645 32.0334L93.3467 5.5437H56.3137L36.9404 39.1034L64.7268 55.1423L74.8379 37.6215L80.8737 48.0723L70.3149 54.1544L109 64.528L119.373 25.8277L108.645 32.0334Z" stroke="#3E8C6B" stroke-width="4" stroke-miterlimit="10" stroke-linejoin="round"/>
<path d="M80.8738 48.0723L74.838 37.6215L56.3137 5.5437H93.3468L108.645 32.0334" stroke="#3E8C6B" stroke-width="4" stroke-miterlimit="10" stroke-linejoin="round"/>
<path d="M16.8416 75.0559L1.5437 101.546L20.0679 133.608H58.8145V101.53H38.5767L44.6125 91.0948L55.1714 97.177L44.7978 58.4922L6.09758 68.8658L16.8416 75.0559Z" stroke="#3E8C6B" stroke-width="4" stroke-miterlimit="10" stroke-linejoin="round"/>
<path d="M44.6125 91.0948L38.5767 101.53L20.0679 133.608L1.5437 101.546L16.8416 75.0559" stroke="#3E8C6B" stroke-width="4" stroke-miterlimit="10" stroke-linejoin="round"/>
<path d="M99.3517 132.913L129.932 132.929L148.456 100.851L129.083 67.291L101.297 83.3454L111.408 100.851H99.3517V88.6711L71.025 116.982L99.3517 145.309V132.913Z" stroke="#3E8C6B" stroke-width="4" stroke-miterlimit="10" stroke-linejoin="round"/>
<path d="M99.3517 100.851H111.408H148.456L129.932 132.929L99.3517 132.913" stroke="#3E8C6B" stroke-width="4" stroke-miterlimit="10" stroke-linejoin="round"/>
</g>
<defs>
<clipPath id="clip0_157_1623">
<rect width="150" height="150" fill="white"/>
</clipPath>
</defs>
</svg>
