<?xml version="1.0" encoding="utf-8"?>
<!-- Generator: Adobe Illustrator 24.1.2, SVG Export Plug-In . SVG Version: 6.00 Build 0)  -->
<svg version="1.1" id="Слой_1" xmlns="http://www.w3.org/2000/svg" xmlns:xlink="http://www.w3.org/1999/xlink" x="0px" y="0px"
	 viewBox="0 0 60 40" style="enable-background:new 0 0 60 40;" xml:space="preserve">
<style type="text/css">
	.st0{fill:#fff;}
</style>
<path class="st0" d="M33.37,40h-7.43c-0.53,0-0.95-0.42-0.95-0.95V23.3h-5.01c-0.53,0-0.95-0.42-0.95-0.95v-6.92
	c0-0.52,0.43-0.95,0.95-0.95h5.01v-4.9C24.98,4.3,29.27,0,34.53,0l5.62,0.46c0.49,0.04,0.87,0.45,0.87,0.94V7.5
	c0,0.52-0.43,0.95-0.95,0.95h-3.74c-1.1,0-2,0.91-2,2.02v4.01h5.47c0.28,0,0.54,0.12,0.72,0.33c0.18,0.21,0.26,0.49,0.22,0.76
	l-1.1,6.92c-0.07,0.46-0.47,0.8-0.94,0.8h-4.37v15.75C34.32,39.58,33.89,40,33.37,40z M26.89,38.1h5.53V22.35
	c0-0.52,0.43-0.95,0.95-0.95h4.51l0.8-5.02h-5.31c-0.53,0-0.95-0.42-0.95-0.95v-4.96c0-2.16,1.75-3.92,3.91-3.92h2.79V2.28
	l-4.66-0.39c-4.13,0-7.56,3.45-7.56,7.7v5.84c0,0.52-0.43,0.95-0.95,0.95h-5.01v5.02h5.01c0.53,0,0.95,0.42,0.95,0.95V38.1z"/>
</svg>
