<?xml version="1.0" encoding="utf-8"?>
<!-- Generator: Adobe Illustrator 24.1.2, SVG Export Plug-In . SVG Version: 6.00 Build 0)  -->
<svg version="1.1" id="Layer_1" xmlns="http://www.w3.org/2000/svg" xmlns:xlink="http://www.w3.org/1999/xlink" x="0px" y="0px"
	 viewBox="0 0 2753 2000" style="enable-background:new 0 0 2753 2000;" xml:space="preserve">
<style type="text/css">
	.st0{opacity:0.1;fill:#9BC1F9;}
	.st1{fill:#256653;}
	.st2{fill:#3C8F7C;}
	.st3{fill:#327F6B;}
	.st4{fill:#50BFA5;}
	.st5{fill:#96D9C9;}
	.st6{fill:#F8A492;}
	.st7{fill:#355389;}
	.st8{fill:#FE875E;}
	.st9{fill:#13375B;}
	.st10{fill:#F7CC7F;}
	.st11{fill:#F48C7F;}
	.st12{fill:#F47458;}
	.st13{fill:#184655;}
	.st14{fill:#F7A491;}
	.st15{fill:#466EB6;}
	.st16{fill:#FFFFFF;}
	.st17{fill:#DD513A;}
	.st18{fill:#E0973F;}
	.st19{fill:#0E2E35;}
	.st20{fill:#6A97CE;}
	.st21{fill:#9BC1F9;}
</style>
<g>
	<path class="st0" d="M280.76,1870.96h2277.47c188.77-157.47,91.63-631.31-66.05-727.37c-169.72-103.4,99.78-460.99-161.67-577.06
		c-170.71-75.78-442.21,6.82-405.69-195.94c50.64-281.16-541.27-353.2-977.35-277.41c-471.45,81.94-40.92,484.79-559.38,565.96
		c-266.6,41.74-215.08,398.82-190.22,472.61c21.65,64.27,164.89,166.21-34.18,306.59C-128.2,1644.18,273.88,1867.17,280.76,1870.96z
		"/>
	<g>
		<g>
			<path class="st1" d="M2303.74,668.28c0,0-37.28,81.17-62.37,115.45c-25.09,34.29-48.99,67.07-69.01,162.23
				c-20.02,95.16-16.59,104.72-22.06,129.3c-5.48,24.58-41.14,124.16-41.34,142.42c-0.21,18.26-72.06,122.21-90.47,170.86
				c-18.41,48.65-51.01,118.15-49.18,153.54l8.19-2.08c0,0,6.68-82.5,63.48-165.88c56.8-83.38,48.68-99.12,113.18-141.96
				c64.51-42.83,106.17-161.16,106.17-161.16s65.62-128.52,62.56-195.33S2337.26,748.61,2303.74,668.28z"/>
			<path class="st1" d="M2216.43,543.44c0,0-2.17,53.32-19.37,84.99c-17.2,31.67-32.01,50.91-35.13,85.18
				c-3.12,34.27-13.92,122.61-61.88,165.74c-47.96,43.13-54.08,172.36-90.58,211.46c-36.5,39.09-41.27,67.19-34.53,134.24
				c6.74,67.05,29.64,159.97-23.31,281.26l-11.97-30.17c0,0,37.88-99.78,28.71-158.21s-41.08-146.71-29.4-189.05
				s-31.75-50.61-5.6-114.65c26.15-64.04,15.41-86.29,51.02-141.66c0,0,3.65-2.59,13.01-49.44
				c9.36-46.85,84.83-132.71,119.61-162.01C2151.77,631.83,2201.89,584.87,2216.43,543.44z"/>
			<path class="st2" d="M2074.78,807.43c0,0-41.65,71.3-42.24,117.2c-0.59,45.89,4.38,83.22-16.69,146.07
				c-21.07,62.85,20.75,102.58,8.7,137.28c-12.05,34.7-12.99,75.78-12.62,106.93c0.37,31.15-47.7,134.26-55.02,186.46
				s2.03,52.38,2.03,52.38s7.97-68.92,19.03-91.71c11.06-22.79,44.69-101.36,52.55-131.76c7.86-30.4,29.15-49.91,47.52-101.4
				c18.37-51.48,44.49-94.85,42.49-167.9C2118.54,987.91,2147.94,910.8,2074.78,807.43z"/>
			<path class="st2" d="M1986.61,1505.9c0,0,19.42-90.49,101.32-99.53c81.9-9.04,130,7.16,187.86-58.96s91.46-171.03,109.94-189.09
				c0,0-29.07-14.95-77.4,30.23c-48.33,45.18-82.27,79.45-110.25,105.76s-50.7,9.15-80.24,26.5
				c-24.75,14.54-56.77,56.54-70.87,78.54c-4.58,7.15-10.01,13.71-16.25,19.46c-5.67,5.24-12.43,11.65-16.77,16.38
				c-8.67,9.45-33.68,71.03-33.68,71.03L1986.61,1505.9z"/>
			<path class="st2" d="M1957.74,1489.94c0,0,28.86-110.67,9.53-164.82c-19.33-54.16-79.85-94.23-77.42-128.25
				c2.43-34.02,41.29-125.97,9.61-194.42c0,0-12.04,61.06-23.91,74.65c-11.88,13.58-93.37,68.36-78.92,140.7
				c14.45,72.34,93.67,89.25,113.19,110.55c19.51,21.3,45.85,21.27,46.02,35.43c0.17,14.16,5.31,65.65-3.44,116.46L1957.74,1489.94z
				"/>
			<path class="st3" d="M1989.3,1415.88l40.55-116.8c0,0,23.82-93.94,37.63-172.28s7.3-319.37,7.3-319.37s-41.65,71.3-42.24,117.2
				c-0.59,45.89,4.38,83.22-16.69,146.07c-21.07,62.85,20.75,102.58,8.7,137.28c-12.05,34.7-12.99,75.78-12.62,106.93
				s-47.71,134.26-55.02,186.46c-4.01,28.6-3.01,41.56-1.29,47.46C1949.11,1503.16,1989.3,1415.88,1989.3,1415.88z"/>
			<path class="st3" d="M2189.02,1346.3c-36.17,7.22-68.51,4.76-111.45,36.72c-42.94,31.96-68.19,66.09-68.19,66.09
				s-19.3,34.5-27.28,52.68c-1.15,2.78-1.82,4.44-1.82,4.44l6.33-0.32c0,0,19.42-90.49,101.32-99.53
				c81.9-9.04,130,7.16,187.86-58.96s91.46-171.03,109.94-189.09c0,0-61.54,47.87-99.56,90.24
				C2248.14,1290.93,2225.2,1339.07,2189.02,1346.3z"/>
			<path class="st3" d="M1875.55,1077.08c-11.88,13.58-93.37,68.36-78.92,140.7c14.45,72.34,93.67,89.25,113.19,110.55
				c19.51,21.3,45.85,21.27,46.02,35.43c0.17,14.16,5.31,65.65-3.44,116.46l2.34,4.24c4.27-19.83,10.21-50.02,12.15-72.95
				c3.15-37.24-2.89-52.65-14.85-82.82c-11.97-30.17-86.34-91.61-104.97-123.91c-18.63-32.3,35.93-86.3,48.05-112.37
				c12.11-26.07,4.37-89.98,4.37-89.98S1887.42,1063.5,1875.55,1077.08z"/>
		</g>
		<g>
			<path class="st4" d="M2068.88,1436.47l12.73-30.77c9.88-22.63,35.15-33.43,56.46-24.14l0,0c53.68,23.43,77.02,88.66,52.13,145.68
				l-18.2,41.69c-7.97,18.26-5.2,38.36,5.55,52.52c9.76,12.87,11.36,30.76,4.59,46.27l-9.59,21.98
				c-10.39,23.8-30.6,41.42-54.57,48.69c-14.02,4.25-26.4,14.77-32.95,29.77l-13.59,31.12c-15.02,34.41-53.45,50.84-85.84,36.7
				l-18.48-8.07c-32.39-14.14-46.47-53.49-31.45-87.9l0,0c24.29-41.14,22.35-71.84,13.74-92.67c-12.65-30.62-12.51-65.85,1.18-97.21
				l1.92-4.4c14.45-33.1,42.35-57.81,75.58-68.39C2042.76,1472.68,2058.05,1461.27,2068.88,1436.47z"/>
			<path class="st5" d="M1839.66,1870.96c26.05-33.78,168.9-214.72,262.04-244.88c102.81-33.28,5.91,98.91,5.91,98.91
				s182.39-199.44,249.32-181.46c61.35,16.48,0,140.1,0,140.1s69.1-68.45,152.9-68.45c81.56,0-56.98,242.78-64.45,255.78H1839.66z"
				/>
			<g>
				<g>
					<path class="st2" d="M2389.32,1479.52c-74.52,116.38-128.91,245.67-160,383.02l-5.11-1.37
						c30.97-134.48,84.99-263.54,159.39-379.79c17.29-27.02,35.96-59.07,68.33-69.61c0.63-0.2,0.86,0.75,0.27,0.97
						C2422.62,1423.88,2405.5,1454.26,2389.32,1479.52z"/>
				</g>
				<g>
					<path class="st2" d="M2247.28,1867.37c83.27-113.24,184.51-217.91,304.89-308.92c1.2-0.91,2.82,1.19,1.61,2.12
						c-114.17,87.76-215.18,191.39-300.17,308.51L2247.28,1867.37z"/>
				</g>
				<path class="st2" d="M2396.13,1407.35c1.92,2.82,9.26,10.18,11.42,19.85c2.9,9.17,0.61,20.65,0.36,20.25
					c-0.55,0.23,8.5-7.42,11.32-19.59c3.66-11.67,1.1-27.87-3.46-33.23c-7.86-12.13-21.6-13.36-24.27-7.48
					C2388.68,1392.98,2392.27,1400.93,2396.13,1407.35z"/>
				<path class="st2" d="M2413.96,1511.23c-2.78-1.97-10-9.46-19.62-11.81c-9.11-3.08-20.63-1.02-20.24-0.76
					c-0.24,0.55,7.59-8.35,19.81-10.94c11.74-3.43,27.88-0.55,33.16,4.11c11.97,8.1,12.93,21.86,7,24.41
					C2428.17,1518.96,2420.3,1515.22,2413.96,1511.23z"/>
				<path class="st2" d="M2387.05,1556.76c-2.78-1.97-9.99-9.46-19.62-11.81c-9.11-3.08-20.63-1.02-20.24-0.76
					c-0.24,0.55,7.59-8.35,19.81-10.94c11.74-3.43,27.88-0.55,33.16,4.11c11.97,8.1,12.93,21.86,7,24.41
					C2401.27,1564.5,2393.39,1560.75,2387.05,1556.76z"/>
				<path class="st2" d="M2483.02,1662.38c-2.78-1.97-9.99-9.46-19.62-11.81c-9.11-3.08-20.63-1.02-20.24-0.76
					c-0.24,0.55,7.59-8.35,19.81-10.94c11.74-3.43,27.88-0.55,33.16,4.11c11.97,8.1,12.93,21.86,7,24.41
					C2497.23,1670.11,2489.36,1666.36,2483.02,1662.38z"/>
				<path class="st2" d="M2532.05,1619.18c-2.78-1.97-10-9.46-19.62-11.81c-9.11-3.08-20.63-1.02-20.24-0.76
					c-0.24,0.55,7.59-8.35,19.81-10.94c11.74-3.43,27.88-0.55,33.16,4.11c11.97,8.1,12.93,21.86,7,24.41
					C2546.26,1626.91,2538.39,1623.17,2532.05,1619.18z"/>
				<path class="st2" d="M2358.49,1458.87c2.34,2.48,10.75,8.59,14.41,17.8c4.31,8.6,3.86,20.3,3.55,19.94
					c-0.51,0.31,7.22-8.67,8.09-21.13c1.77-12.1-3.31-27.69-8.65-32.27c-9.68-10.74-23.44-9.78-25.15-3.56
					C2348.87,1445.86,2353.67,1453.14,2358.49,1458.87z"/>
				<path class="st2" d="M2318.92,1510.5c3.33,1.77,14.96,4.97,20.81,13.67c6.62,7.75,7.46,20.99,7.02,20.73
					c-0.62,0.57,8.29-12.78,7.91-27.07c0.82-14.27-7.65-29.48-15.12-32.3c-13.83-7.82-31.53-0.85-32.98,6.84
					C2304.89,1500.12,2311.99,1506.18,2318.92,1510.5z"/>
				<path class="st2" d="M2277.29,1588.71c3.58,1.18,15.58,2.38,22.81,9.98c7.83,6.52,10.89,19.44,10.41,19.25
					c-0.52,0.67,6.02-13.99,3.24-28.01c-1.59-14.21-12.5-27.77-20.34-29.29c-14.95-5.38-31.22,4.47-31.36,12.29
					C2261.7,1580.83,2269.72,1585.62,2277.29,1588.71z"/>
				<path class="st2" d="M2400.5,1643.19c2.61,1.63,11.89,4.89,16.15,12.31c4.94,6.68,4.88,17.5,4.53,17.26
					c-0.54,0.43,7.47-9.92,7.97-21.57c1.48-11.56-4.54-24.42-10.46-27.13c-10.81-7.15-25.6-2.48-27.22,3.68
					C2389.67,1633.94,2395.1,1639.28,2400.5,1643.19z"/>
				<path class="st2" d="M2464.65,1425.66c-1.56-1.29-5.5-6.03-11.09-7.84c-5.26-2.22-12.16-1.5-11.94-1.34
					c-0.17,0.31,4.85-4.61,12.2-5.6c7.1-1.51,16.52,0.9,19.43,3.88c6.73,5.32,6.69,13.5,3.07,14.75
					C2472.72,1430.85,2468.22,1428.29,2464.65,1425.66z"/>
				<path class="st2" d="M2449.71,1392.42c0.07,2.02,1.42,8.04-0.56,13.57c-1.45,5.52-6.23,10.55-6.23,10.27
					c-0.35-0.06,6.61-1.03,11.88-6.24c5.53-4.7,9.38-13.63,8.79-17.76c-0.1-8.57-6.61-13.54-9.81-11.43
					C2450.52,1382.86,2449.8,1387.98,2449.71,1392.42z"/>
				<path class="st2" d="M2567.36,1575.18c-1.56-1.29-5.5-6.03-11.09-7.84c-5.26-2.22-12.16-1.5-11.94-1.34
					c-0.17,0.31,4.86-4.61,12.2-5.6c7.1-1.51,16.52,0.9,19.43,3.88c6.73,5.32,6.69,13.5,3.07,14.75
					C2575.43,1580.38,2570.93,1577.82,2567.36,1575.18z"/>
				<path class="st2" d="M2549.33,1541.66c0.23,2.01,2.08,7.89,0.56,13.57c-0.99,5.62-5.35,11.03-5.37,10.75
					c-0.35-0.03,6.51-1.57,11.33-7.19c5.13-5.13,8.23-14.35,7.31-18.42c-0.81-8.54-7.69-12.95-10.71-10.59
					C2549.36,1532.07,2549.07,1537.23,2549.33,1541.66z"/>
			</g>
			<g>
				<g>
					<path class="st2" d="M2536.79,1758.28c-76.09,8.34-146.96,41.93-215.19,74.68c-46.01,22.09-43.69,28.38-53.06,31.67
						c-1.52,0.53-3.04-1.12-2.3-2.58c3.61-7.14,13.06-11.97,19.63-16.08c7.66-4.78,15.65-9.01,23.77-12.95
						c17.37-8.43,35.18-16.02,52.88-23.71c36.01-15.65,72.6-30.36,110.65-40.33c20.86-5.46,42.08-9.4,63.56-11.33
						C2537.14,1757.62,2537.19,1758.23,2536.79,1758.28L2536.79,1758.28z"/>
				</g>
				<path class="st2" d="M2468.21,1734.68c0.5,3.12,3.75,12.19,1.74,21.14c-1.19,8.83-7.64,17.55-7.68,17.12
					c-0.55-0.03,10.05-2.87,17.22-11.96c7.67-8.34,11.91-22.92,10.21-29.21c-1.81-13.27-12.84-19.72-17.39-15.84
					C2467.63,1719.71,2467.51,1727.78,2468.21,1734.68z"/>
				<path class="st2" d="M2401.17,1758.69c0.5,3.12,3.75,12.19,1.74,21.14c-1.19,8.83-7.64,17.55-7.68,17.12
					c-0.55-0.03,10.05-2.87,17.22-11.96c7.67-8.34,11.91-22.92,10.21-29.22c-1.81-13.27-12.84-19.72-17.39-15.84
					C2400.6,1743.71,2400.47,1751.79,2401.17,1758.69z"/>
				<path class="st2" d="M2333.06,1789.05c0.5,3.12,3.75,12.19,1.74,21.14c-1.19,8.83-7.64,17.55-7.68,17.12
					c-0.55-0.03,10.05-2.87,17.22-11.96c7.67-8.34,11.91-22.92,10.21-29.22c-1.81-13.27-12.84-19.72-17.39-15.84
					C2332.48,1774.07,2332.36,1782.15,2333.06,1789.05z"/>
				<path class="st2" d="M2488.22,1797.32c-1.38-2.58-4.04-11.07-10.51-16.55c-5.8-5.84-15.42-8.67-15.21-8.32
					c-0.39,0.33,9.01-3.49,19.36-0.8c10.31,1.86,21.57,10.24,23.83,15.83c6.07,10.78,1.54,21.69-3.98,21.38
					C2496.16,1808.68,2491.55,1802.79,2488.22,1797.32z"/>
				<path class="st2" d="M2418.49,1822c-1.38-2.58-4.04-11.07-10.52-16.55c-5.8-5.84-15.42-8.67-15.21-8.32
					c-0.39,0.33,9.01-3.49,19.36-0.8c10.31,1.86,21.57,10.24,23.83,15.83c6.07,10.79,1.54,21.69-3.98,21.38
					C2426.43,1833.36,2421.83,1827.47,2418.49,1822z"/>
				<path class="st2" d="M2541.32,1771.91c-1.21-1.44-4-6.42-8.79-9c-4.42-2.9-10.83-3.41-10.65-3.22c-0.2,0.26,5.2-3.38,12.05-3.06
					c6.72-0.19,14.9,3.58,17.06,6.79c5.24,5.97,3.84,13.42,0.33,13.95C2547.81,1778,2544.14,1774.91,2541.32,1771.91z"/>
				<path class="st2" d="M2533.28,1739.13c-0.28,1.85-0.05,7.56-2.78,12.27c-2.25,4.78-7.45,8.57-7.4,8.32
					c-0.31-0.11,6.2,0.17,11.87-3.7c5.83-3.35,10.82-10.85,10.98-14.71c1.34-7.83-3.75-13.44-7.02-12.06
					C2535.62,1730.55,2534.11,1735.1,2533.28,1739.13z"/>
			</g>
		</g>
	</g>
	<g>
		<g>
			<path class="st2" d="M573.5,1293.04c-89.41-79.73-135.39-194.22-158.21-276.24c-24.78-89.03-28.39-160.09-28.42-160.8l-4.86-0.3
				c0.03,0.71,3.66,72.29,28.59,161.92c23.03,82.82,69.49,198.5,160.01,279.21L573.5,1293.04z"/>
		</g>
		<g>
			<path class="st2" d="M397.05,835.39c4.41,20.5,0.72,39.87-8.68,53.85c-14.73-10.85-26.32-28.22-30.73-48.72
				c-4.41-20.5-0.72-39.86,8.68-53.85C381.06,797.51,392.64,814.89,397.05,835.39z"/>
		</g>
		<g>
			<path class="st2" d="M369.63,893.77c15.41,14.33,24.41,33.16,26.16,51.29c-16.91,0.77-35.52-6.09-50.92-20.43
				c-15.4-14.33-24.41-33.16-26.15-51.29C335.62,872.57,354.22,879.44,369.63,893.77z"/>
		</g>
		<g>
			<path class="st2" d="M362.4,955.1c19.14,6.01,34.84,19.34,44.14,35.53c-13.89,8.92-32.51,11.49-51.65,5.48
				c-19.14-6.01-34.84-19.34-44.14-35.53C324.64,951.66,343.25,949.09,362.4,955.1z"/>
		</g>
		<g>
			<path class="st2" d="M391.88,1028.88c15.16,4.78,27.29,17.02,34.16,32.47c-11.5,9.66-26.55,13.32-41.72,8.54
				c-15.16-4.78-27.29-17.02-34.16-32.47C361.66,1027.76,376.72,1024.1,391.88,1028.88z"/>
		</g>
		<g>
			<path class="st2" d="M417.78,923.58c11.93-12.01,27.74-17.14,43.04-15.49c0.85,16.19-4.74,32.61-16.67,44.62
				c-11.93,12.01-27.74,17.14-43.04,15.49C400.26,952.01,405.84,935.59,417.78,923.58z"/>
		</g>
		<g>
			<path class="st2" d="M431.61,976.46c11.94-12.01,27.74-17.14,43.04-15.49c0.85,16.19-4.74,32.61-16.67,44.62
				c-11.93,12.01-27.74,17.14-43.04,15.49C414.09,1004.88,419.67,988.47,431.61,976.46z"/>
		</g>
	</g>
	<g>
		<g>
			<path class="st4" d="M519.61,1401.16c-82.57-12.04-153.23-60.95-197.97-99.87c-48.57-42.25-77.93-82.17-78.22-82.57l-2.94,1.69
				c0.29,0.4,29.87,40.62,78.75,83.16c45.17,39.31,116.56,88.72,200.16,100.9L519.61,1401.16z"/>
		</g>
		<g>
			<path class="st4" d="M241.43,1202.84c10.43,10.23,15.71,22.9,15.62,34.63c-12.73-0.65-26.13-6.31-36.56-16.53
				c-10.43-10.23-15.71-22.9-15.62-34.63C217.6,1186.96,231,1192.61,241.43,1202.84z"/>
		</g>
		<g>
			<path class="st4" d="M247.89,1247.3c14.46,2.42,26.91,9.91,34.88,19.78c-9.54,6.94-22.98,10.09-37.44,7.67
				c-14.46-2.42-26.91-9.91-34.88-19.78C219.99,1248.03,233.44,1244.88,247.89,1247.3z"/>
		</g>
		<g>
			<path class="st4" d="M267.22,1285.72c13.43-3.85,27.68-2.13,39.29,3.72c-4.65,10.52-14.49,19.15-27.92,23.01
				s-27.68,2.13-39.29-3.72C243.96,1298.21,253.79,1289.58,267.22,1285.72z"/>
		</g>
		<g>
			<path class="st4" d="M312.67,1317.3c10.65-3.04,22.39-0.58,32.31,5.77c-2.98,10.03-10.32,17.93-20.97,20.97
				c-10.65,3.04-22.39,0.58-32.31-5.77C294.68,1328.24,302.02,1320.34,312.67,1317.3z"/>
		</g>
		<g>
			<path class="st4" d="M287.32,1246.15c2.33-11.56,9.55-20.61,19.07-25.52c6.71,9.09,9.76,20.77,7.43,32.33
				c-2.33,11.56-9.55,20.61-19.08,25.52C288.04,1269.4,284.99,1257.71,287.32,1246.15z"/>
		</g>
		<g>
			<path class="st4" d="M315.65,1271.58c2.33-11.56,9.55-20.61,19.08-25.52c6.71,9.09,9.76,20.77,7.43,32.33
				c-2.33,11.56-9.55,20.61-19.08,25.52C316.38,1294.82,313.32,1283.14,315.65,1271.58z"/>
		</g>
	</g>
	<g>
		<g>
			<path class="st5" d="M569.33,1648.29c-95.24,36.16-200.09,17.06-271.27-5.33c-77.27-24.3-132.68-57.63-133.23-57.96l-2.11,4.03
				c0.55,0.34,56.37,33.92,134.15,58.4c71.88,22.62,177.8,41.9,274.23,5.3L569.33,1648.29z"/>
		</g>
		<g>
			<path class="st5" d="M153.1,1565.65c17.29,6.71,30.58,19.82,37.57,35.09c-13.95,7.13-31.65,8.2-48.94,1.49
				c-17.29-6.72-30.58-19.82-37.57-35.09C118.11,1560.01,135.81,1558.94,153.1,1565.65z"/>
		</g>
		<g>
			<path class="st5" d="M186.85,1619.21c16.86-5.92,34.66-4.03,49.12,3.76c-5.97,14.97-18.39,27.48-35.26,33.4
				c-16.86,5.92-34.66,4.03-49.12-3.76C157.56,1637.65,169.98,1625.14,186.85,1619.21z"/>
		</g>
		<g>
			<path class="st5" d="M230.66,1656.89c11.98-13.41,28.2-20.1,44.11-19.81c1.4,16.54-3.86,33.9-15.85,47.31
				c-11.98,13.42-28.2,20.11-44.11,19.81C213.42,1687.66,218.68,1670.3,230.66,1656.89z"/>
		</g>
		<g>
			<path class="st5" d="M291.97,1676.34c11.98-13.42,28.2-20.11,44.11-19.81c1.4,16.54-3.86,33.9-15.85,47.31
				s-28.2,20.11-44.11,19.81C274.73,1707.11,279.99,1689.76,291.97,1676.34z"/>
		</g>
		<g>
			<path class="st5" d="M234.29,1613.49c-10.55-13.73-15.25-30.28-14.13-45.29c13.89,1.62,28.09,9.69,38.63,23.42
				c10.55,13.73,15.25,30.28,14.13,45.29C259.03,1635.29,244.83,1627.22,234.29,1613.49z"/>
		</g>
		<g>
			<path class="st5" d="M297.98,1633.42c-10.74-13.57-15.7-30.07-14.83-45.13c13.88,1.38,28.18,9.21,38.93,22.78
				c10.74,13.57,15.7,30.07,14.83,45.13C323.02,1654.83,308.72,1647,297.98,1633.42z"/>
		</g>
		<g>
			<path class="st5" d="M372.55,1681.67c2.82-7.15,8.41-12.12,14.97-14.17c3.15,6.61,3.69,14.46,0.88,21.61
				c-2.82,7.15-8.41,12.12-14.97,14.17C370.28,1696.67,369.73,1688.82,372.55,1681.67z"/>
		</g>
	</g>
	<path class="st2" d="M773.75,1863.98c0,0,121.35-479.93,81.11-528.16c-55.61-66.65-101.49,154.44-105.99,135.66
		c-42.51-177.34-53.83-404.25-190.97-428.27c-77.95-13.65,18.01,168.73,12.23,218.06c-5.77,49.33-146.25-114.45-231.62-200.25
		c-85.37-85.8-129.46-31.48-75.52,76.41c52.16,104.33,220.89,218.34,186.11,231.87s-245.93-121.2-271.79-63.61
		c-31.7,70.62,285.03,166.72,255.21,182.59c-29.83,15.86-181.21-36.38-177.07,17.62c4.14,54,207.63,51.99,204.16,75.74
		c-5.63,38.46-140.23-48.59-146.14,4.62c-6.05,54.43,177.07,44.5,173.9,86.96c-1.82,24.4-41.12-12.4-46.91,21.39
		c-13.2,77.06,228.2,170.92,228.2,170.92L773.75,1863.98z"/>
	<g>
		<path class="st4" d="M866.28,1866.91c0,0-115.49-177.07-171.06-210.5c-59.21-35.62-14.13,71.03-14.13,71.03
			s-121.01-143.99-154.64-114.73s-3.11,63.14-3.11,63.14s-108.64-32.19-128.16,7.68c-30,61.27,148.85,112.08,148.85,112.08
			s-76.78-0.81-62.65,40.56C502.67,1898.55,866.28,1866.91,866.28,1866.91z"/>
		<path class="st5" d="M395.17,1683.52c19.53-39.88,128.16-7.68,128.16-7.68s-30.53-33.88,3.11-63.14s130.44,58.32,130.44,58.32
			s-10.15-72.22,62.75-8.6c52.06,45.44,146.66,204.49,146.66,204.49L395.17,1683.52z"/>
	</g>
	<g>
		<g>
			<g>
				<path class="st5" d="M726.09,1422.32l5.18-3.54c-94.03-142.41-122.73-311.47-130.25-428.23c-8.16-126.7,6.16-220.88,6.31-221.81
					l-6.42-1.87c-0.15,0.94-14.58,95.75-6.39,223.2C602.09,1107.83,631.06,1278.4,726.09,1422.32z"/>
			</g>
			<g>
				<path class="st5" d="M625.84,746.56c0.21,28.61-9.72,52.26-25.56,66.45c-16.09-20.46-26.38-48.08-26.59-76.69
					c-0.2-28.61,9.72-52.26,25.56-66.45C615.35,690.33,625.64,717.95,625.84,746.56z"/>
			</g>
			<g>
				<path class="st5" d="M574.91,810.86c16.03,25.29,22.61,53.69,20.01,78.06c-22-6.26-44.15-23.19-60.17-48.48
					c-16.03-25.29-22.61-53.69-20.01-78.06C536.74,768.63,558.89,785.56,574.91,810.86z"/>
			</g>
			<g>
				<path class="st5" d="M549.22,887.68c23.07,16.05,39.74,40.16,47.39,65.26c-20.29,5.66-44.96,1.02-68.03-15.03
					c-23.07-16.05-39.74-40.16-47.39-65.26C501.48,866.99,526.15,871.63,549.22,887.68z"/>
			</g>
			<g>
				<path class="st5" d="M579.31,1021.8c10.06,6,17.7,15.63,21.63,25.98c-8.26,3.08-18.65,1.94-28.71-4.06
					c-10.06-6-17.7-15.63-21.63-25.98C558.86,1014.66,569.25,1015.79,579.31,1021.8z"/>
			</g>
			<g>
				<path class="st5" d="M587.49,1071.48c10.06,6,17.7,15.63,21.63,25.98c-8.26,3.08-18.65,1.94-28.71-4.06
					c-10.06-6-17.7-15.63-21.63-25.98C567.04,1064.35,577.42,1065.48,587.49,1071.48z"/>
			</g>
			<g>
				<path class="st5" d="M629.01,870.38c18.59-10.53,40.33-10.42,59.61-1.71c-3.23,21.47-14.81,40.46-33.4,50.99
					c-18.59,10.53-40.33,10.42-59.61,1.71C598.84,899.9,610.42,880.91,629.01,870.38z"/>
			</g>
			<g>
				<path class="st5" d="M632.72,945.22c18.59-10.53,40.33-10.42,59.61-1.71c-3.23,21.47-14.81,40.46-33.4,50.99
					c-18.59,10.53-40.33,10.42-59.61,1.71C602.55,974.75,614.13,955.75,632.72,945.22z"/>
			</g>
			<g>
				<path class="st5" d="M629.03,1052.34c12.1-6.86,26.25-6.78,38.8-1.11c-2.1,13.97-9.64,26.33-21.74,33.19
					c-12.1,6.86-26.25,6.78-38.8,1.11C609.4,1071.56,616.93,1059.2,629.03,1052.34z"/>
			</g>
		</g>
	</g>
	<g>
		<path class="st6" d="M1955.85,1474.63c10.93,1.77,10.28,3.55,11.69,3.74c1.66,0.22,21.38-9.68,21.38-9.68s58.33-28.79,61.42-30.46
			l42.1-52.97l32.44,14.96c0,0-47.35,56.31-50.34,58.79c-3,2.48-86.63,31.81-93.9,34.63c0,0-7.33,6.7-12.08,10.75
			c-4.75,4.05-11.09,5.65-12.6,6.57c-0.22,0.14-5.46,2.9-12.85,4.51c-6.37,1.39-1.06-2.94-1.06-2.94s11.27-4.76,10.72-5.62
			c-0.43-0.66-6.42,2.31-13.45,3.92c-1.81,0.41-3.59,0.82-5.24,1.17c-4.32,0.93-6.21-1.54-1.88-3.26c1.53-0.61,4.1-1.55,6.04-1.96
			c2.09-0.44,3.85-1.53,5.54-2.18c3.36-1.28,5.83-2.17,5.7-2.28c-0.17-0.15,0.3-0.89-1.63-0.52c-2.33,0.45-7.02,2.55-10.5,2.94
			c-1.97,0.22-6.06,0.95-6.06,0.95s-7.24,0.69-7.29-0.32c-0.11-2.22,4.35-3.46,7.08-3.4c1.72-0.88,6.05-1.52,6.05-1.52
			s8.39-3.31,7.91-4.55c-0.19-0.5-5.28,0.27-10.67,0.64c-5.7,0.39-9.83,0.39-10.13-0.71c-0.48-1.75,4.05-2.42,4.05-2.42
			s4-0.58,5.31-0.88c1.54-0.35,6.04-1.76,6.04-1.76s15.44-5.67,14.88-6.81c-0.56-1.14-3.11-3.52-4.2-3.52
			c-1.09,0.01-3.03,1.09-4.12,1.1c-1.09,0.01-3.43-0.2-3.59-1.57c-0.16-1.37,5.88-4.21,5.88-4.21S1952.69,1474.12,1955.85,1474.63z"
			/>
		<path class="st7" d="M2063.13,1418.08c0,0,10.5,9.54,14.87,12.68c3.63,2.61,21.33,11.13,21.33,11.13s17.61-26.96,25.31-40.48
			c9.34-16.4,15.81-40.8,13.6-41.46c-6.2-1.86-14.72-2.99-22.59,0.62C2088.41,1373.08,2063.13,1418.08,2063.13,1418.08z"/>
		<path class="st8" d="M1966.05,1488.72c-4.67,0.74-9.45-0.15-11.52-4.43C1954.06,1489.37,1961.75,1491.89,1966.05,1488.72z"/>
	</g>
	<path class="st9" d="M660.62,1299.6c0.65-15.7-1.65-31.21-8.65-45.82c-6.02-12.58-20.91-19.71-34.49-19.73
		c-43.12-0.06-48.6,57.16-76.05,79.23c-8.39,6.74-17.76,12.24-25.7,19.51c-29.31,26.85-16.11,76.57,10.8,100.11
		c18.67,16.34,48.02,25.62,71.04,12.85c12.01-6.67,21.13-17.75,27.63-29.89c9.22-17.23,15.17-37.12,21.72-55.48
		C653.91,1340.82,659.75,1320.47,660.62,1299.6z"/>
	<path class="st10" d="M667.66,1375.63c-13.47-40.86-31.25-40.22-31.25-40.22l14.37,87c8.32-2.27,19.15-7.34,27.46-9.68
		C675.48,1399.81,670.98,1385.69,667.66,1375.63z"/>
	<path class="st11" d="M735.73,1514.98l-49.24-37.56c0,0-4.95-35.04-11.59-66.14c-8.31,2.35-15.81,8.86-24.12,11.14l12.52,69.64
		l64.54,33.29l18.23,23.43l4.15-24.05L735.73,1514.98z"/>
	<path class="st12" d="M1184.58,1456.31c15.29,0,29.64,4.03,42.04,11.08c1.57,0.89,3.27,1.71,5.08,2.45
		c37.84,15.54,79.24-13.24,79.24-54.15v-201.17h-201.17c-40.91,0-69.69-41.4-54.15-79.24c0.74-1.81,1.56-3.51,2.45-5.08
		c7.05-12.41,11.08-26.75,11.08-42.04c0-48.45-40.4-87.47-89.35-85.2c-44.3,2.05-79.97,38.44-81.21,82.77
		c-0.44,15.77,3.4,30.6,10.45,43.42c0.88,1.6,1.68,3.33,2.42,5.17c15.42,38.46-13.83,80.21-55.26,80.21H656.76v458.39
		c0,108.13,87.66,195.79,195.79,195.79h458.39v-200.5c0-41.11-41.54-70.07-79.61-54.58c-1.82,0.74-3.53,1.55-5.1,2.43
		c-13.56,7.61-29.42,11.63-46.28,10.73c-43.43-2.3-78.52-37.59-80.57-81.04C1097.07,1496.75,1136.1,1456.31,1184.58,1456.31z"/>
	<path class="st10" d="M1620.59,1344.72c0.71-15.27,5.41-29.42,13.03-41.48c0.96-1.52,1.86-3.19,2.68-4.96
		c17.29-37.07-9.53-79.77-50.39-81.68l-200.96-9.39l-9.39,200.95c-1.91,40.86-44.61,67.68-81.68,50.39
		c-1.77-0.83-3.44-1.72-4.96-2.68c-12.06-7.62-26.2-12.31-41.48-13.03c-48.4-2.26-89.26,36.27-89.28,85.27
		c-0.02,44.34,34.66,81.68,78.88,84.98c15.73,1.18,30.72-1.97,43.86-8.41c1.64-0.8,3.4-1.53,5.28-2.18
		c39.13-13.6,79.48,17.56,77.54,58.94l-9.31,199.22l457.89,21.41c108.01,5.05,199.67-78.42,204.72-186.43l21.41-457.89l-200.29-9.36
		c-41.06-1.92-71.93,38.22-58.24,76.98c0.65,1.85,1.38,3.6,2.19,5.21c6.97,13.9,10.24,29.93,8.56,46.73
		c-4.32,43.28-41.22,76.68-84.71,76.7C1656.9,1434.02,1618.32,1393.14,1620.59,1344.72z"/>
	<path class="st4" d="M1060.64,1028.31c0.77,15.27-2.53,29.8-8.95,42.54c-0.81,1.61-1.54,3.35-2.19,5.2
		c-13.62,38.57,17.2,78.48,58.06,76.42l200.92-10.1l-10.1-200.92c-2.05-40.85,37.85-71.68,76.42-58.06c1.85,0.65,3.59,1.38,5.2,2.19
		c12.74,6.42,27.27,9.72,42.54,8.95c48.39-2.43,85.33-44.74,80.61-93.52c-4.27-44.14-42.41-77.94-86.74-76.95
		c-15.77,0.35-30.39,4.94-42.84,12.62c-1.55,0.96-3.24,1.85-5.04,2.68c-37.63,17.33-80.81-9.78-82.89-51.16l-10.02-199.19
		l-457.81,23.02c-107.99,5.43-191.14,97.38-185.71,205.37l23.02,457.81l200.25-10.07c41.05-2.06,67.89-45,50.51-82.25
		c-0.83-1.78-1.72-3.45-2.69-4.97c-8.29-13.16-13.09-28.8-13.04-45.68c0.11-43.49,33.6-80.31,76.89-84.54
		C1015.85,942.94,1058.21,979.89,1060.64,1028.31z"/>
	<path class="st13" d="M1471.88,917.42c-15.29,0-29.64-4.03-42.04-11.08c-1.57-0.89-3.27-1.71-5.08-2.45
		c-37.84-15.54-79.24,13.24-79.24,54.14v201.17h201.17c40.91,0,69.69,41.4,54.15,79.24c-0.74,1.81-1.56,3.51-2.45,5.08
		c-7.05,12.41-11.08,26.75-11.08,42.04c0,48.45,40.4,87.47,89.35,85.2c44.3-2.05,79.97-38.44,81.21-82.77
		c0.44-15.77-3.41-30.6-10.45-43.42c-0.88-1.6-1.68-3.33-2.42-5.17c-15.42-38.46,13.83-80.21,55.26-80.21h199.44V700.82
		c0-108.13-87.66-195.79-195.79-195.79h-458.39v200.5c0,41.11,41.54,70.07,79.61,54.58c1.82-0.74,3.53-1.55,5.1-2.43
		c13.56-7.61,29.42-11.63,46.28-10.73c43.43,2.3,78.52,37.59,80.57,81.04C1559.39,876.98,1520.35,917.42,1471.88,917.42z"/>
	<path class="st14" d="M525.83,1805.09c0,0-3.04,21.12-8.26,27.94c-1.75,2.29-4.96,5.18-7.06,9.32c-3.27,6.43-1.46,16.02,0.95,21.29
		c1.24,2.71-0.09,2.7,2.74,3.57c8.36,2.58,17.25-1.77,20.81-9.79c1.99-4.48,3.73-10.46,4.08-18c0.89-19.18,6.84-28.93,6.84-28.93
		L525.83,1805.09z"/>
	<path class="st14" d="M617.26,1814.75c0,0,1.88,23.82,0.35,31.55c-0.82,4.14-5.36,12.68-3.27,16.58c2.08,3.9,4.46,4.88,4.46,4.88
		l53.97,0.87c2.94,0.05,1-1.85-1.37-3.6c-3.88-2.86-7.01-4.75-19.41-10.76c-0.81-0.39-3.75-2.27-4.81-2.92
		c-2.69-1.65-5.39-4.24-7.72-6.83c-3.88-4.33-4.21-25.3-4.21-25.3L617.26,1814.75z"/>
	<path class="st7" d="M659.45,1498.19c0,0,6.8,38.67,2.33,64.02s-25.88,260.32-25.88,260.32l-23.8,1.35c0,0-4.99-98.15-4.1-111.8
		c0.89-13.65,7.96-36.49,7.96-36.49l-2.37-79.25l30.04-104.11L659.45,1498.19z"/>
	<path class="st15" d="M589.49,1490.05c0,0-18.74,28.27-23.21,51.67c-4.46,23.4,3.28,95.31-5.31,125.98
		c-4.65,16.6-22.26,42.23-24.94,63.68c-2.68,21.45-13.18,77.64-13.18,77.64l23.79,4.73l55.29-140.32l43.37-126.83l11.11-65.32
		L589.49,1490.05z"/>
	<path class="st10" d="M604.66,1329.18c0,0-24.82-1.58-34.63,9.14c-9.82,10.72,21.78,95.57,23.56,109.21
		c1.78,13.65-9.1,49.94-9.1,49.94s58.29,11.76,74.96,0.71c0,0,1.79-98.15,0-107.9c-1.78-9.75-16.66-49.4-20.23-53.3
		C635.65,1333.08,604.66,1329.18,604.66,1329.18z"/>
	<path class="st14" d="M612.92,1295.95c0,0-0.13,0.73-0.36,1.98c-1.11,5.98-5.37,25.82-8.25,31.27
		c-3.48,6.59,11.91,27.61,26.72,25.04c4.41-0.76-3.73-19.31-3.33-21.28c0.75-3.76,1.76-8.89,2.8-14.15c0.59-2.97,1.18-5.98,1.74-8.8
		c1.58-8.04,2.88-14.61,2.88-14.61L612.92,1295.95z"/>
	<path class="st12" d="M612.56,1297.92c0.23-1.25,0.36-1.98,0.36-1.98l22.19-0.55c0,0-1.29,6.57-2.88,14.61
		c-0.55,2.81-1.14,5.8-1.73,8.76c-3.43-0.51-7.01-2.17-10.6-5.33c-3.91-3.43-6.48-7.56-8.03-11.96
		C612.16,1300.06,612.39,1298.85,612.56,1297.92z"/>
	<path class="st14" d="M627.86,1245.39c0,0-10.46-1.21-17.02,7.29c-6.56,8.5-13.62,34.78,2.66,49.07
		c16.29,14.29,32.38-1.89,34.77-19.04C650.66,1265.56,651.59,1244.77,627.86,1245.39z"/>
	<path class="st14" d="M653.09,1282.46c-1.94,3.79-5.21,5.88-7.29,4.68c-2.08-1.2-2.19-5.25-0.25-9.03
		c1.94-3.79,5.21-5.89,7.29-4.69C654.92,1274.63,655.04,1278.67,653.09,1282.46z"/>
	<path class="st9" d="M629.03,1242.58c0,0-13.97,25-23.97,26.15c-10,1.15-11.31,14.44-11.31,14.44s3.57-30.6,13.47-36.5
		C617.12,1240.76,629.03,1242.58,629.03,1242.58z"/>
	<path class="st12" d="M536.62,1853.19c-12.97,2.37-21.59-5.23-26.08-10.92c-3.3,6.45-4.9,16.07-2.48,21.36
		c2.13,4.67,8.37,4.53,13.29,4.71c5.19,0.19,9.21-2.7,11.79-7.23C534.34,1859,535.58,1856.36,536.62,1853.19z"/>
	<path class="st12" d="M647.18,1851.35c-14.27,3.67-24.83,1.17-30.73-1.21c-1.52,4.32-3.54,9.75-2.47,12.88
		c1.31,3.83,3.18,4.7,4.82,4.74c13.04,0.34,47.76,0.81,57.7,0.94c1.39,0.02,2.15-1.61,1.26-2.68
		C675.3,1863.07,648.24,1852,647.18,1851.35z"/>
	<path class="st14" d="M607.68,1275.01c0.81,4.44-0.82,8.51-3.65,9.09c-2.83,0.58-5.78-2.54-6.6-6.98
		c-0.81-4.44,0.82-8.51,3.65-9.09C603.91,1267.44,606.87,1270.57,607.68,1275.01z"/>
	<path class="st16" d="M624,1290.38l12.62,0.57c0,0-0.51,4.78-6.06,4.69C623.78,1295.53,624,1290.38,624,1290.38z"/>
	<g>
		<path class="st17" d="M1699.96,284.26c1.57,0.06,5.88,1.51,12.17,13.4c8.04,15.2,19.79,61.1,19.79,61.1l-35.08,13.06l-4.51-9.58
			l-7.42-73.76C1684.92,288.48,1699.53,284.24,1699.96,284.26z"/>
		<path class="st12" d="M1653.59,277.64c10.03,0.01,34.85,2.94,46.37,6.62c0,0,8.46,72.73-7.62,128
			c-3.6,12.37,2.98,51.29,2.98,51.29l-103.94-1.37c0,0,12.31-94.08,7.67-109.27c-4.64-15.2-4.75-68.15-4.75-68.15
			s0.71-0.11,23.35-4.02C1628.22,278.9,1642.89,277.62,1653.59,277.64z"/>
		<path class="st14" d="M1641.48,598.54c0,0,2.3,26.54,6.53,33.89c4.23,7.35-0.22,19.84-0.45,21.56c-0.22,1.71-8.9,4.16-22.7,2.69
			c-13.8-1.47-13.57-4.65-12.46-9.8c1.11-5.14,8.46-11.76,8.9-16.66c0.45-4.9-4.23-22.54-4.23-22.54L1641.48,598.54z"/>
		<path class="st18" d="M1683.59,441.64c0,0,71.75-3.98,87.77,5.72c16.02,9.7-11.38,57.33-11.38,57.33s-49.93-2.3-147.72,3.34
			c-23.16,1.34-25.15-60.38-20.82-65.49C1595.77,437.43,1683.59,441.64,1683.59,441.64z"/>
		<path class="st17" d="M1623.15,658.74c-14.21-1.51-12.45-8.49-11.3-13.79c0.72-3.32,4.79-7.23,7.22-10.93
			c1.27,1.01,3.34,2.8,9.5,4.62c6.41,1.89,15.19-1.85,20.78-4.2c2,7.42,2.09,16.89,1.9,18.33
			C1651.03,654.54,1637.35,660.26,1623.15,658.74z"/>
		<path class="st10" d="M1630.99,492.97c2.87,21.69,17.06,129.68,17.06,129.68l-32.93,4.08c0,0-40.5-140.95-38.42-162.5
			c2.08-21.56,17.24-23.37,17.24-23.37S1623.4,435.55,1630.99,492.97z"/>
		<path class="st14" d="M1593.18,292.83c9.72-3.65,14.47,83.92,15.78,119.96c17.21,1.66,47.21,0.01,54.68-0.55
			c3.51-0.26,11.61-3.23,15.11-3.69c3.58-0.47,6.83-0.71,8.58-0.41c0.65,0.11,18.58,7.45,20.12,9.06c1.9,2,7.05,7.03,6.18,9.2
			c-0.87,2.18-9.89-6.06-9.89-6.06l-4.41-2.48c5.49,5.36,15.97,12.43,14.46,15c-1.47,2.51-10.92-4.66-17.65-9.55
			c5.78,5.22,12.95,14.55,11.3,16.01c-1.49,1.31-9.65-9.5-18.37-12.61c-3.23-1.15-6.46,2.04-9,2.43c-1.87,0.28-4.75,0.89-6.59,0.37
			l-9.45-2.68c-3.22,0.29-3.3,2.19-6.55,2.89c-3.77,0.8-9.96,1.65-14.76,2.82c-27.66,6.76-36.89,9.9-45.36,9.89
			C1571.7,442.42,1570.21,301.45,1593.18,292.83z"/>
		<path class="st17" d="M1574.73,375.04c-1.82-36.92-1.55-82.42,19.14-90.18c8.17-3.06,22.56,15.35,19.97,90.93
			C1602.8,376.7,1586.58,377.44,1574.73,375.04z"/>
		<path class="st14" d="M1737.79,621.24c0,0-2.87,9.21,2.27,15.31c5.15,6.09,26.53,12.07,29.33,15.37c2.81,3.3,2.59,6.11,2.59,6.11
			l-60.01-1.65l0.65-18.12l2.76-13.02L1737.79,621.24z"/>
		<path class="st17" d="M1743.79,639.59c0,0-15.42,6.24-22.87,2.54c-7.45-3.69-7.22-4.72-9.38-3.34s-2.93,18.37-2.93,18.37
			l67.48,1.98c4.7-0.11,7.07-3.57,3.25-6.53c-2.62-2.03-5.64-3.39-7.36-4.37C1766.71,645.21,1743.79,639.59,1743.79,639.59z"/>
		<path class="st10" d="M1735.51,458.65c4.64-9.76,15.19-22.47,33.75-14.81c17.7,7.3,22.45,25.24,16.87,43.61
			c-5.58,18.37-42.35,126.37-43.63,141.22l-29.36,0.19c0,0,5.33-85.51,6.64-106.18C1721.04,502.78,1727.48,475.54,1735.51,458.65z"
			/>
		<path d="M1783.17,359.18h-98.13c-2.6,0-4.93,1.57-5.92,3.98l-30.22,73.95h-54.1c-1.51,0-2.74,1.23-2.74,2.75l0,0
			c0,1.52,1.23,2.75,2.74,2.75h153.98c4.23,0,8.07-2.49,9.81-6.37l30.43-68.01C1790.91,363.98,1787.81,359.18,1783.17,359.18z"/>
		<path class="st16" d="M1730.33,402.24c-0.66,3.32-3.55,5.54-6.45,4.96c-2.9-0.58-4.71-3.75-4.05-7.07
			c0.66-3.32,3.55-5.54,6.45-4.96C1729.18,395.75,1731,398.92,1730.33,402.24z"/>
		<g>
			<path class="st19" d="M1676.92,188.81c-2.96-1-5.87-2.12-8.68-3.48c-3.18-1.53-7.3-3.33-9.9-3.73
				c-5.48-0.85-14.88-0.28-20.08,5.35c-6.47,7.02-17.97,1.27-15.66,38.04c2.62,41.63,25.77,37.06,26.33,36.35
				s20.64-26.63,20.64-26.63s7.02,15.36,7.02,14.79C1676.59,248.97,1712.44,200.77,1676.92,188.81z"/>
			<path class="st14" d="M1659.34,264.43l2,14.87c0,0,4.48,21.43-1.28,25.56c-5.76,4.13-24.49-26.17-24.49-26.17l1.98-37.69
				L1659.34,264.43z"/>
			<path class="st12" d="M1636.91,253.22c4.76,12.86,16.09,20.76,24.13,23.82l-1.69-12.61L1637.55,241L1636.91,253.22z"/>
			<path class="st14" d="M1658.16,199.99c12.2-1.97,23.15,7.84,22.84,20.06c-0.13,5.31-0.57,11.94-1.67,19.08
				c-2.65,17.17-14.37,32.29-22.11,30.94s-27.24-16.16-23.8-40.6C1635.53,214.38,1645.36,202.05,1658.16,199.99z"/>
			<path class="st14" d="M1638.79,232.38c-0.65,3.78-3.68,6.4-6.75,5.87c-3.08-0.54-5.04-4.03-4.39-7.81
				c0.65-3.78,3.68-6.4,6.75-5.87C1637.48,225.11,1639.44,228.61,1638.79,232.38z"/>
			<path class="st19" d="M1634.4,224.57c0,0,9.37,2.33,12.84-3.7c3.48-6.02,15.9-19.02,31.7-13.63c15.8,5.39-13.9-13.1-15.17-13.1
				c-1.26,0-16.43-0.11-16.43-0.11s-11.69,9.62-12.11,10.67c-0.42,1.06-3.79,12.58-3.79,12.58L1634.4,224.57z"/>
		</g>
		<path class="st16" d="M1651.54,249.71l17.04,3.26c0,0-1.63,6.42-9.16,5.2C1650.23,256.69,1651.54,249.71,1651.54,249.71z"/>
	</g>
	<g>
		<path class="st6" d="M1363.27,1436.18c0.65,2.25,1.03,2.99,1.85,4.5c5.34,9.73,17.74,23.61,17.74,23.61l9.59-21.61
			c0,0-1.56-6.79-4.28-16.48C1378.92,1428.61,1370.09,1430.01,1363.27,1436.18z"/>
		<path class="st9" d="M1418.26,1417.44c0,0-53.5,23.04-55.23,22.6c-1.11-0.28-21.94-35.15-22.17-67.93
			c-0.1-15.14,15.62-33.36,33.17-29.76c8.83,1.81,8.7,4.27,21.77,23.26S1418.26,1417.44,1418.26,1417.44z"/>
		<path class="st14" d="M1463.92,1830.47c0,0-1.27,21.01-1.28,21.05c-0.47,2.67-2.3,9.26-2.3,11.68c0,9.11,43.26-7.73,33.56-11.77
			c-0.88-0.37-5.48-3.13-5.76-6.23c-0.44-4.78-1.57-14.44-1.57-14.44L1463.92,1830.47z"/>
		<path class="st17" d="M1493.8,1851.35c0,0-10.16,2.79-15.36,3.48c-5.2,0.7-12.06-5.17-15.74-3.58
			c-4.05,1.74-3.89,17.44-3.89,17.44s54.46,4.47,69.78-0.15C1534.66,1866.7,1514.56,1857.84,1493.8,1851.35z"/>
		<path class="st14" d="M1375.43,1830.47c0,0-1.27,21.01-1.28,21.05c-0.47,2.67-2.3,9.26-2.3,11.68c0,9.11,43.26-7.73,33.56-11.77
			c-0.88-0.37-6.84-5.19-7.13-8.29c-0.44-4.78-0.21-12.38-0.21-12.38L1375.43,1830.47z"/>
		<path class="st17" d="M1405.31,1851.35c0,0-10.16,2.79-15.36,3.48c-5.2,0.7-12.06-5.17-15.74-3.58
			c-4.05,1.74-4.21,17.44-4.21,17.44s54.71,5.21,70.1-0.15C1446.07,1866.45,1426.07,1857.84,1405.31,1851.35z"/>
		<g>
			<path class="st14" d="M1388.65,1447.83l38.1-53.37c0.16-0.47,0.51-1.42,1.04-2.88c1.92-5.3,5.91-16.32,9.39-27.28l0.04-0.12
				c1.09-3.83,3.41-10.52,5.65-16.98c2.49-7.19,5.58-16.11,5.69-17.63c-0.1-0.26-0.28-0.73-0.51-1.35
				c-1.4-3.63-3.29-12.26-3.95-16.02c-0.42-2.39-0.85-8.2,1.99-8.2c4.47,0,2.34,5.8,4.4,9.43c0.76-2.42,2.29-7.23,3.1-12.09
				l0.75-11.35c0.14-0.86-0.77-7.12,2.37-7.12l0.15,0c2.82,0.21,2.75,6.86,3.92,18.12c0.37-1.29,0.74-2.86,1.02-4.29
				c-0.03-0.77,0.53-4.15,0.95-5.94c-0.57-3.14-0.24-8.08,3.1-7.62c1.67,0.23,1.54,7.14,1.54,7.14c-0.02,0.95-0.12,8.25-0.06,9.69
				c0.34-2.45,1.68-12.9,4.3-12.9c2.17,0,2.35,2.81,2.3,5.04c-0.03,1.32-1.39,12.63-1.47,13.95c1.02-1.72,2.24-11.69,3.25-11.69
				c4.24,0,2.71,14.18,1.15,17.88c-0.15,0.38-0.3,1.12-0.48,1.98c-0.53,2.53-1.42,6.75-3.63,10.55c-2.66,4.55-6.33,11.79-6.89,12.9
				c-0.41,2.26-1.68,10.39-3.29,20.62c-0.69,4.38-1.44,9.17-2.22,14.14l-0.04-0.01c-0.14,1.08-0.94,4.5-3.95,17.33
				c-4.12,17.56-4.55,18.32-4.74,18.64c-1.79,3.17-42.87,58.96-44.62,61.33l-1.03,1.4L1388.65,1447.83z"/>
			<path class="st12" d="M1459.51,1323.35c0,0-3.09-7.91-8.6-7.92c0,0,3.08-1.11,5.71,0.98S1459.51,1323.35,1459.51,1323.35z"/>
		</g>
		<g>
			<path class="st14" d="M1379.45,1308.07l-4.9,31.02c0,0,18.69,15.01,29.58,11.84c9.14-2.66,2.87-14.61,2.87-14.61
				s-4.87-16.56-3.38-25.24C1405.11,1302.4,1379.45,1308.07,1379.45,1308.07z"/>
			<path class="st8" d="M1382.97,1317.44c4.68,2.21,13.94,5.23,21.15,5.96c-0.69-4.34-1.08-8.93-0.5-12.32
				c0.69-4-4.41-4.95-10.09-4.81c-7.44,0.64-14.08,1.8-14.08,1.8l-0.94,5.96C1379.92,1315.52,1381.41,1316.71,1382.97,1317.44z"/>
			<path class="st14" d="M1355.86,1272.29c-0.77,0,7.39,34.65,20.01,40.61s31.46,2.85,34.99-6.48
				c3.91-10.32-10.35-45.67-28.11-50.16C1365,1251.77,1355.86,1272.29,1355.86,1272.29z"/>
			<path class="st9" d="M1370.47,1240.45c-10.08,5.82-14.71,14.44-16.27,17.98c-4.73,2.25-10.46,7.1-13.21,20.2
				c-3.38,16.09,8.64,28.5,21.38,32.23c12.74,3.73,14.71,12.16,14.71,12.16l1.45-9.07c0,0-2.83-7.9-7.1-11.85
				c-4.26-3.95,2.02-9.72,2.57-14.42c0.43-3.62-2.24-10.65-1.66-16.59c0,0,7.08-10.73,14.06-13.38
				C1398.3,1253.19,1383.41,1232.99,1370.47,1240.45z"/>
			<path class="st14" d="M1375.84,1293.71c1.65,4,0.98,7.98-1.51,8.88c-2.48,0.9-5.83-1.62-7.48-5.62c-1.65-4-0.98-7.98,1.51-8.87
				C1370.84,1287.19,1374.19,1289.71,1375.84,1293.71z"/>
		</g>
		<path class="st6" d="M1422.87,1448.68l73.49-11.98c0,0-8.36-21.05-11.35-21.05s-55.57,22.95-55.57,22.95l-4.18,8.4
			L1422.87,1448.68z"/>
		<path class="st13" d="M1385.23,1499.07c0,0-7.33,35.44-4.34,62.32c2.99,26.87,3.22,122.34,3.22,122.34l-11.4,152.74l27.05,0.59
			c0,0,32.08-152.67,31.48-148.75s10.75-107.49,10.75-107.49l-38.24-85.1L1385.23,1499.07z"/>
		<path class="st9" d="M1392.4,1497.39c0,0-4.78,31.91,1.2,45.91c5.97,14,51.25,151.33,51.85,162.52s15.65,134.96,15.65,134.96
			l31.45-0.88l6.8-137.6l-14.25-172.94l-13.83-43.72L1392.4,1497.39z"/>
		<path class="st14" d="M1374.54,1339.08c0,0,7.76,5.09,14.99,4.5c7.23-0.59,17.46-7.26,17.46-7.26l-1.42-4.82
			c0,0-18.71-2.73-19.19-2.43C1385.92,1329.36,1374.54,1339.08,1374.54,1339.08z"/>
		<path class="st6" d="M1457.21,1414.61c0,0,27.8,26.23,40.35,21.75c12.55-4.48,17.74-19.79-12.88-42.19
			C1457.28,1374.13,1457.21,1414.61,1457.21,1414.61z"/>
		<path class="st7" d="M1476.05,1447c-4.13-22.47-34.06-92.38-36.45-105.25c-1.16-6.26-17.31-6.4-32.68-5.58
			c-16.24,0.86-32.38,2.92-32.38,2.92s-14.38,2.36-20.7,8.29s-8.01,22.32,1.09,53.44c7.18,24.56,16.08,38.05,20.48,55.95
			c0.89,6,1.66,11.92,2.67,18.84c1.62,26.75-0.02,62.1-0.02,62.1s78.27,16.24,107.55-8.4
			C1485.61,1529.3,1480.28,1470.02,1476.05,1447z"/>
		<path class="st15" d="M1496,1398.7c0,0-30.71,25.35-32.5,25.35c-1.15,0-43.83-31.39-53.68-57.18
			c-5.45-14.26,5.98-30.21,19.02-30.16c9.04,0.04,13.06,2.37,30.99,17.48S1496,1398.7,1496,1398.7z"/>
	</g>
	<path class="st9" d="M955.72,267.03c5.03-12.11,10.15-24.25,23.21-30.38c10.57-4.96,21.61-3.1,31,3.97
		c26.61,20.01,3.42,42.05,33.71,79.99c9.41,11.79,20.8,21.31,26.44,35.12c7.89,19.34-1.51,28.62-16.57,37.88
		c-72.09,44.31-109.88-46.67-108.52-67.48C945.99,310.65,952.48,274.83,955.72,267.03z"/>
	<path class="st14" d="M880.9,502.85c3.04-0.48,10.42-5.77,13.03-6.25c2.02-0.37,6.39-1.03,8.25-1.31
		c2.28-8.51,13.86-54.93,15.16-68.54c1.41-14.74,11.83-78.51,11.83-78.51l26.99,4.91c0,0-11.21,49.06-14.31,72.84
		c-2.66,20.43-25.08,66.37-27.93,71.22c0,0.12,0,0.23-0.01,0.35c-0.43,7.21-3.91,4.81-3.91,4.81l-5.65,1.44
		c0,0-19.97,1.92-21.28,2.4C881.77,506.69,877.86,503.33,880.9,502.85z"/>
	<path class="st20" d="M952.7,310.97c-19.08,6.47-29.93,58.34-29.93,58.34s29.94,8.36,37.61,3.97c0,0,8.71-38.59,11.83-37.24
		L952.7,310.97z"/>
	<path class="st14" d="M805.1,592.47c-5.84,15.4-8.87,30.23-9.14,32.02c-0.13,0.86,1.09,5.05,0.97,5.94
		c-11.72,15.99-28.56,19.48-43,20.5c7.36-7.18,18.16-13.99,18.68-16.26c0.83-3.62,5.27-19.75,7.46-42.09
		C789.06,596.74,795.15,593.44,805.1,592.47z"/>
	<path class="st1" d="M971.16,420.21l25.79,72.62c0,0-41.44,7.8-56.93,10.64c-15.49,2.84-102.05,6.62-104.24,8.16
		c-1.63,1.14-19.51,58.97-27.49,90.86c-9.06,1.99-24.57-0.4-32.82-3.24c4.46-45.63,20.56-117.91,25.72-125.78
		C809.57,460.66,971.16,420.21,971.16,420.21z"/>
	<path class="st14" d="M870.43,624.31c-2.85,16.22-3.05,31.36-2.98,33.17c0.03,0.87,2.01,4.75,2.07,5.66
		c-8.52,17.9-24.41,24.49-38.4,28.2c5.88-8.43,15.22-17.15,15.3-19.48c0.13-3.71,1.48-20.38-0.56-42.75
		C855.46,631.5,860.83,627.13,870.43,624.31z"/>
	<path class="st3" d="M1001.26,423.98l10,17.08c15.23,26.01,3.55,59.47-24.54,70.37c-0.15,0.06-0.3,0.12-0.45,0.17
		c-14.68,5.69-99,25.63-100.86,27.55c-1.39,1.43-8.11,61.58-9.98,94.4c-8.53,3.66-24.21,4.21-32.85,2.96
		c-4.17-45.65-1.9-119.67,1.69-128.37C850.12,493.99,1001.26,423.98,1001.26,423.98z"/>
	<path class="st9" d="M866.16,657.98c2.24-2.48,10.49,11.17,12.55,14.08c2.32,3.27,1.66,5.74,1.38,6.26
		c-0.73,1.35-44.19,26.92-54.79,28.74c-1,0.17-2.74-0.46-3.17-0.85c-4.14-3.67,14.92-30.74,23.49-34.3
		C851.14,669.61,856.06,669.13,866.16,657.98z"/>
	<path class="st9" d="M794.58,624.98c2.67-2.02,8.21,12.93,9.69,16.18c1.66,3.65,0.55,5.95,0.18,6.4
		c-0.97,1.19-48.45,18.16-59.21,17.96c-1.02-0.02-2.6-0.97-2.96-1.43c-3.38-4.38,20.42-27.4,29.5-29.29
		C777.64,633.59,782.56,634.05,794.58,624.98z"/>
	<path class="st21" d="M970.79,310.82L970.79,310.82L970.79,310.82c-0.49,0-1.2-0.17-1.92-0.4c-3.54-0.63-11.29-1.56-17.32,0.98
		c-7.33,3.09-18.69,32-18.02,61.66c0.27,4.54,0.55,8.6,0.78,11.43c1.85,22.41,8.28,64.46,8.63,64.68
		c8.75,5.63,61.52-16.2,65.14-20.99c3.63-4.79,5.77-63.04,7.53-65.95l3.47-50.66C1012.96,309.76,980.17,310.75,970.79,310.82z"/>
	<path class="st14" d="M992.18,292.16c0,0-3.4,17.57-2.72,24.51c0.68,6.93-2.59,29.27-17.26,29.35c-14.67,0.07-2.79-28.4-1.4-35.2
		c1.38-6.79,1.71-27.82,1.71-27.82L992.18,292.16z"/>
	<path class="st12" d="M972.2,293.55c0.23-5.75,0.3-10.55,0.3-10.55l19.68,9.17c0,0-0.69,3.59-1.39,8.17
		C982.17,302.06,975.93,298.88,972.2,293.55z"/>
	<path class="st14" d="M999.37,243.66c0,0,7.58,4.21,10.35,13.32c2.77,9.12-0.38,32.64-19.97,38.32
		c-19.59,5.68-28.07-12.95-24.04-27.52C969.75,253.22,978.53,234.78,999.37,243.66z"/>
	<path class="st14" d="M963.27,262.14c0.38,3.91,2.54,6.9,4.82,6.68c2.28-0.22,3.81-3.58,3.43-7.49c-0.38-3.91-2.54-6.9-4.82-6.68
		C964.42,254.88,962.88,258.23,963.27,262.14z"/>
	<path class="st9" d="M997.07,242.47c0,0,3.55,26.24,12.04,30.98c8.48,4.74,4.93,16.38,4.93,16.38s7.7-27.03,0.99-35.71
		C1008.32,245.43,997.07,242.47,997.07,242.47z"/>
	<path class="st14" d="M1004.08,277.22c-2.3,3.42-2.29,7.45,0.02,9.01c2.31,1.56,6.05,0.04,8.35-3.38c2.3-3.42,2.29-7.45-0.02-9.01
		C1010.12,272.29,1006.38,273.8,1004.08,277.22z"/>
	<path class="st16" d="M975.55,278.68l13.8,3.47c0,0-1.66,5.24-7.77,3.89C974.12,284.4,975.55,278.68,975.55,278.68z"/>
	<path class="st4" d="M1044.08,500.66c0.66-0.03,59.51-2.99,59.51-2.99s-24.42,17.55-24.92,17.55s-19.45-7.48-20.28-7.48
		S1044.08,500.66,1044.08,500.66z"/>
	<path class="st14" d="M2235.53,1831.33c0,0,1.16,20.64,1.17,20.68c0.43,2.62,2.11,9.1,2.11,11.48c0,8.95-39.71-7.6-30.81-11.56
		c0.81-0.36,5.03-3.07,5.29-6.12c0.41-4.69,1.44-14.19,1.44-14.19L2235.53,1831.33z"/>
	<path class="st10" d="M2207.63,1852.02c0,0,9.32,2.74,14.1,3.42c4.78,0.68,11.07-5.08,14.45-3.52c3.72,1.71,3.57,17.14,3.57,17.14
		s-49.99,4.39-64.05-0.15C2170.12,1867.1,2188.57,1858.39,2207.63,1852.02z"/>
	<path class="st14" d="M2301.65,1830.26c0,0,1.17,20.64,1.17,20.68c0.43,2.62,2.12,9.1,2.12,11.48c0,8.95-39.71-7.6-30.81-11.56
		c0.8-0.36,6.28-5.1,6.54-8.15c0.41-4.69,0.19-12.16,0.19-12.16L2301.65,1830.26z"/>
	<path class="st10" d="M2274.23,1850.77c0,0,9.32,2.74,14.1,3.42c4.77,0.68,11.07-5.08,14.45-3.52c3.72,1.71,3.87,17.14,3.87,17.14
		s-49.64,2.04-64.35-0.15C2236.51,1866.8,2255.17,1857.15,2274.23,1850.77z"/>
	<path class="st7" d="M2289.88,1502.4c0,0,6.73,34.82,3.99,61.22c-2.74,26.4-2.96,120.19-2.96,120.19l12.65,150.01l-27.02,0.63
		c0,0-29.44-149.99-28.9-146.14c0.55,3.85-9.87-105.61-9.87-105.61l35.1-83.61L2289.88,1502.4z"/>
	<path class="st15" d="M2280.46,1479.92c0,0,30.49,32.11,19.15,67.18c-4.55,14.09-47.04,148.68-47.59,159.68
		c-0.55,11-14.37,132.59-14.37,132.59l-28.87-0.87l-6.25-135.19l8.25-182.15l17.53-30.72L2280.46,1479.92z"/>
	<path class="st12" d="M2095.37,1375.4c9.98-11.14,31.71-26.99,31.71-26.99s12.94-11.06,18.22-12.88
		c7.77-2.68,21.07-9.82,40.31,19.34c13.77,20.87,100.65,128.92,114.92,132.56l-93.14,44.56c-2.55-21.28-48.58-61.49-55.21-68.99
		C2137.38,1446.24,2085.92,1385.95,2095.37,1375.4z"/>
	<path class="st14" d="M2099.72,1330.13l29.01,16.99c0,0,0.82,24.77-8.67,31.2c-7.96,5.4-14.01-7.56-14.01-7.56
		s-10.79-14.95-18.98-19.61C2078.87,1346.49,2099.72,1330.13,2099.72,1330.13z"/>
	<path class="st12" d="M2104.58,1341.03c-1.09,5.17-3.62,12.64-7.53,18.79c-3.2-3.46-6.79-6.85-9.99-8.67
		c-3.78-2.15-1.38-6.79,2.31-11.17c5.21-5.42,10.34-9.85,10.34-9.85l5.58,3.26C2105.65,1335.51,2104.95,1339.31,2104.58,1341.03z"/>
	<path class="st14" d="M2084.6,1287.56c0.49-0.6,24.34,29.08,21.4,43.01c-2.94,13.93-17.36,26.63-27.38,23.14
		c-11.08-3.86-31.69-38.81-24.3-55.78S2084.6,1287.56,2084.6,1287.56z"/>
	<path class="st9" d="M2058.49,1278.2c10.4-5.78,27.36-7.44,40.03-0.81c15.58,8.16,19.13,28.68,14.25,41.2
		c-4.88,12.52,0.71,19.6,0.71,19.6l-8.26-4.83c0,0-4.83-7.54-5.46-13.54c-0.63-6.01-9.39-4.94-13.67-7.67
		c-3.29-2.1-7.5-8.91-12.82-12.45c0,0-13.42-1.65-20.01,2.06C2042,1308.07,2043.6,1286.48,2058.49,1278.2z"/>
	<path class="st14" d="M2092.79,1317.16c-0.08,4.45,2.03,8.1,4.7,8.14s4.9-3.53,4.98-7.98c0.08-4.45-2.03-8.1-4.7-8.14
		S2092.87,1312.7,2092.79,1317.16z"/>
	<path class="st16" d="M2068.36,1340.79l12.63-9.44c0,0,3.34,5.1-2.09,9.42C2072.27,1346.03,2068.36,1340.79,2068.36,1340.79z"/>
	<path class="st6" d="M2036.65,1528.61c3.16-4.62,4.54-11.29,8.92-16.38c1.47-1.71,3.81-3.63,6.47-5.55
		c21.04-12.31,75.84-44.04,77.97-46.5c2.53-2.92,39.93-65.06,39.93-65.06l-33.59-7.61l-32.83,57.97
		c-2.74,2.18-54.85,40.69-54.85,40.69s-10.36,8.1-16.03,11.89c-2.86,1.67-5.64,2.75-8.07,3.6c-3.06,1.06-8.88,3.97-10.06,5
		c-1.37,1.21-4.11,3.78-5.74,5.35c-1.63,1.57-3.6,3.35-4.37,4.28c-0.46,0.57-1.9,1.35-2.96,1.88c-1.58,0.79-1.37,3.12,0.32,3.6
		c1.6,0.45,3.75-0.55,5.09-1.18c3.77-1.77,8.38-6.56,8.63-5.97s-4.44,10.84-4.9,12.05c-0.46,1.21-5.83,13.16-6.11,15.82
		c-0.28,2.66,1.33,3.28,2.52,2.3c1.03-0.84,9.67-16.79,9.67-16.79s1.11-2.03,1.54-0.87c0.43,1.16-7.39,15.67-8.15,18.05
		c-0.76,2.38-0.16,4.33,2.05,3.5c2.68-1.01,10.07-17.01,10.07-17.01s0.96-1.99,1.62-1.3c0.66,0.69-6.2,12.92-6.28,14.33
		c-0.08,1.41,1.2,2.8,3.05,1.62c2.18-1.39,8.66-15.72,8.66-15.72s0.8-0.95,1.05-0.28c0.25,0.67-4.85,11.51-4.47,13.09
		c0.32,1.33,1.52,1.06,1.52,1.06C2029.98,1544.46,2033.49,1533.23,2036.65,1528.61z"/>
	<path class="st7" d="M2160.73,1427.95c0,0-10.94-3.48-17.96-6.69c-4.7-2.15-25.2-12.35-25.2-12.35s8.84-37.28,14.81-50.69
		c21.93-49.2,46.84-15.27,50.22-7.36C2190.18,1368.54,2160.73,1427.95,2160.73,1427.95z"/>
	<path class="st16" d="M1396.61,1299.13l10.41-7.78c0,0,2.75,4.21-1.73,7.76C1399.84,1303.45,1396.61,1299.13,1396.61,1299.13z"/>
	<path class="st13" d="M2618.76,1867.95H200.07c-3.02,0-5.48,3.13-5.48,6.99l0,0c0,3.86,2.45,6.99,5.48,6.99h2418.69
		c3.02,0,5.47-3.13,5.47-6.99l0,0C2624.23,1871.08,2621.78,1867.95,2618.76,1867.95z"/>
	<path class="st14" d="M1104.94,497.61c-0.25-0.63-0.8-0.64-1.36-0.66c-5.46-0.17-10.92-0.41-16.33-1.22
		c-0.9-0.13-1.79-0.34-2.62-0.67c-1.51-0.6-2.99-0.59-4.52-0.17c-0.82,0.23-1.66,0.27-2.51,0.27c-2.75-0.01-10.58-2.68-14.61-3.38
		c-0.92-0.16-1.65-0.86-1.88-1.76c-3.96-15.66-12.45-50.8-13.55-62.35c-1.41-14.77-11.61-81.39-11.61-81.39l-27.3,7.61
		c0,0,11.24,49.17,14.34,73.01c2.4,18.41,20.8,57.48,26.57,68.71c2.82,8.36,9.14,8.59,10.61,8.77c0.84,0.1,1.61,0.52,2.16,1.16
		c1,1.16,2.14,2.17,3.44,3c0.97,0.61,1.71,1.41,2.35,2.34c1.16,1.69,2.2,3.46,3.22,5.24c0.68,1.18,1.39,1.55,2.4,1.27
		c1.08-0.3,1.6-1.1,1.58-2.42c-0.03-1.95-0.65-3.71-1.63-5.38c-0.92-1.56-0.85-2.46,0.22-3.9c0.61-0.82,1.25-1.62,2.05-2.28
		c0.82-0.67,1.68-1.17,2.79-1.02c1.96,0.49,3.94,0.89,5.95,1.11l1.65,0.34c0.06,0.01,0.9,0.19,0.9,0.19
		c0.14,0.04,3.04,0.35,4.04,0.36c0.8,0,2.09,0.05,3.19,0.11c1,0.05,3.1-0.47,3.17-0.47c0.97-0.02,1.83-0.37,2.55-1.02
		c0.3-0.27,0.58-0.56,0.43-1.02c-0.14-0.42-0.46-0.59-0.89-0.67c-0.66-0.12-4.05-0.53-4.01-0.67c1.01,0,4.16-0.07,5.17-0.1
		c1.36-0.04,2.53-0.52,3.47-1.53C1104.76,498.64,1105.19,498.24,1104.94,497.61z"/>
	<path class="st21" d="M1019.41,311.47c13.47-2.45,24.59,57.83,24.59,57.83s-29.94,8.36-37.61,3.97c0,0-8.71-38.59-11.83-37.24
		L1019.41,311.47z"/>
	<path class="st14" d="M693.63,1395.03c0.89-2.56-11.53-4.62-12.2-7.2c-0.66-2.58,15.69-2.79,16.27-5.06
		c1.08-4.18-17.92-0.88-17.55-2.84c0.37-1.96,19.8-6.33,17.7-9.68s-19.67,6.63-20.2,4.36c-0.53-2.28,17.17-7.82,16.86-12.81
		c-0.17-2.67-29.06,13.31-32.41,11.86c-3.35-1.45,3.6-13.99,0.94-15.86c-2.67-1.86-10.32,25.49-12.17,26.41
		c-1.84,0.91-40.87,23.19-54.76,26.73c-1.69-4.65-5.33-10.93-6.82-15.33c-7.79,5.55-13.58,8.33-21.62,13.38
		c5.83,14.6,14.12,30.59,18.18,32.42c12.36,5.58,60.16-34.06,69.71-40.85c9.55-6.79,15.02-4.59,21.47-6.73
		C683.49,1391.69,692.73,1397.58,693.63,1395.03z"/>
	<path class="st10" d="M566,1416c0,0-10.7-47.25-8.84-60.96c1.86-13.71,18.15-26.48,29.44-21.74C597.88,1338.04,603,1404,603,1404
		L566,1416z"/>
</g>
</svg>
