<?xml version="1.0" encoding="utf-8"?>
<svg xmlns="http://www.w3.org/2000/svg">
	<symbol id="youtube" viewBox="0 0 60 40">
		<path d="M29.6,40c-6.63,0-18.68-0.73-18.8-0.73c-4.41-0.17-7.93-3.65-8.19-8.1c0-0.01-0.55-5.52-0.6-10.57
		C1.98,15.54,2.64,8.88,2.64,8.82C2.88,4.4,6.41,0.9,10.85,0.73C10.95,0.72,23.1-0.04,30.04,0c6.93,0.03,19.04,0.72,19.17,0.73
		c4.43,0.17,7.96,3.66,8.19,8.13c0,0.02,0.66,6.42,0.62,11.73c-0.04,5.3-0.6,10.57-0.6,10.62c-0.25,4.4-3.77,7.88-8.19,8.05
		c-0.37,0.02-12.73,0.7-19.18,0.73C29.9,40,29.75,40,29.6,40z M29.57,1.9c-6.94,0-18.5,0.72-18.62,0.73
		C7.46,2.76,4.72,5.49,4.53,8.96c-0.01,0.11-0.66,6.66-0.62,11.62c0.04,4.96,0.58,10.38,0.59,10.44c0.2,3.51,2.94,6.22,6.39,6.35
		c0.15,0.01,12.69,0.77,19.14,0.73c6.47-0.03,18.97-0.72,19.09-0.73c0.01,0,0.01,0,0.02,0c3.45-0.13,6.19-2.84,6.39-6.31
		c0.01-0.1,0.55-5.28,0.59-10.48c0.04-5.2-0.61-11.51-0.61-11.57c-0.19-3.53-2.93-6.25-6.39-6.38C48.98,2.62,36.91,1.94,30.03,1.9
		C29.88,1.9,29.72,1.9,29.57,1.9z" />
		<path d="M23.01,29.1c-0.16,0-0.33-0.04-0.47-0.13c-0.29-0.17-0.47-0.48-0.47-0.82V11.85c0-0.34,0.18-0.65,0.47-0.82
		c0.29-0.17,0.66-0.17,0.95,0l14.02,8.15c0.29,0.17,0.47,0.48,0.47,0.82s-0.18,0.65-0.47,0.82l-14.02,8.14
		C23.34,29.05,23.17,29.1,23.01,29.1z M23.96,13.5V26.5L35.14,20L23.96,13.5z" />
	</symbol>
	<symbol id="facebook" viewBox="0 0 60 40">
		<path
			d="M33.37,40h-7.43c-0.53,0-0.95-0.42-0.95-0.95V23.3h-5.01c-0.53,0-0.95-0.42-0.95-0.95v-6.92
	c0-0.52,0.43-0.95,0.95-0.95h5.01v-4.9C24.98,4.3,29.27,0,34.53,0l5.62,0.46c0.49,0.04,0.87,0.45,0.87,0.94V7.5
	c0,0.52-0.43,0.95-0.95,0.95h-3.74c-1.1,0-2,0.91-2,2.02v4.01h5.47c0.28,0,0.54,0.12,0.72,0.33c0.18,0.21,0.26,0.49,0.22,0.76
	l-1.1,6.92c-0.07,0.46-0.47,0.8-0.94,0.8h-4.37v15.75C34.32,39.58,33.89,40,33.37,40z M26.89,38.1h5.53V22.35
	c0-0.52,0.43-0.95,0.95-0.95h4.51l0.8-5.02h-5.31c-0.53,0-0.95-0.42-0.95-0.95v-4.96c0-2.16,1.75-3.92,3.91-3.92h2.79V2.28
	l-4.66-0.39c-4.13,0-7.56,3.45-7.56,7.7v5.84c0,0.52-0.43,0.95-0.95,0.95h-5.01v5.02h5.01c0.53,0,0.95,0.42,0.95,0.95V38.1z" />
	</symbol>
	<symbol id="instagram" viewBox="0 0 60 40">
		<path d="M39.92,40H20.11c-5.57,0-10.09-4.53-10.09-10.09V10.09C10.02,4.53,14.55,0,20.11,0h19.81
		c5.57,0,10.09,4.53,10.09,10.09v19.81C50.02,35.47,45.49,40,39.92,40z M20.11,1.9c-4.52,0-8.19,3.67-8.19,8.19v19.81
		c0,4.52,3.67,8.19,8.19,8.19h19.81c4.52,0,8.19-3.67,8.19-8.19V10.09c0-4.52-3.67-8.19-8.19-8.19H20.11z" />
		<path d="M30.02,29.78c-5.39,0-9.78-4.39-9.78-9.78c0-5.39,4.39-9.78,9.78-9.78S39.8,14.61,39.8,20
		C39.8,25.39,35.41,29.78,30.02,29.78z M30.02,12.12c-4.34,0-7.88,3.53-7.88,7.88s3.53,7.88,7.88,7.88S37.9,24.34,37.9,20
		S34.36,12.12,30.02,12.12z" />
		<circle cx="41.45" cy="8.48" r="1.39" />
	</symbol>
</svg>