<?xml version="1.0" encoding="utf-8"?>
<!-- Generator: Adobe Illustrator 24.1.2, SVG Export Plug-In . SVG Version: 6.00 Build 0)  -->
<svg version="1.1" id="Слой_1" xmlns="http://www.w3.org/2000/svg" xmlns:xlink="http://www.w3.org/1999/xlink" x="0px" y="0px"
	 viewBox="0 0 60 40" style="enable-background:new 0 0 60 40;" xml:space="preserve">
<style type="text/css">
	.st0{fill:#8EBB43;}
</style>
<g>
	<path class="st0" d="M39.92,40H20.11c-5.57,0-10.09-4.53-10.09-10.09V10.09C10.02,4.53,14.55,0,20.11,0h19.81
		c5.57,0,10.09,4.53,10.09,10.09v19.81C50.02,35.47,45.49,40,39.92,40z M20.11,1.9c-4.52,0-8.19,3.67-8.19,8.19v19.81
		c0,4.52,3.67,8.19,8.19,8.19h19.81c4.52,0,8.19-3.67,8.19-8.19V10.09c0-4.52-3.67-8.19-8.19-8.19H20.11z"/>
	<path class="st0" d="M30.02,29.78c-5.39,0-9.78-4.39-9.78-9.78c0-5.39,4.39-9.78,9.78-9.78S39.8,14.61,39.8,20
		C39.8,25.39,35.41,29.78,30.02,29.78z M30.02,12.12c-4.34,0-7.88,3.53-7.88,7.88s3.53,7.88,7.88,7.88S37.9,24.34,37.9,20
		S34.36,12.12,30.02,12.12z"/>
	<circle class="st0" cx="41.45" cy="8.48" r="1.39"/>
</g>
</svg>
