<?xml version="1.0" encoding="utf-8"?>
<svg version="1.1" xmlns="http://www.w3.org/2000/svg" xmlns:xlink="http://www.w3.org/1999/xlink" x="0px" y="0px"
	viewBox="0 0 1414 723" style="enable-background:new 0 0 1414 723;">
	<style type="text/css">
		.st0,
		.st1,
		.st2 {
			fill: none;
			stroke: #8DBA43;
			stroke-width: 4;
			stroke-linecap: round;
			stroke-linejoin: round;
			stroke-miterlimit: 10;
		}

		.st0 {
			stroke-width: 5;
		}

		.st1 {
			stroke-width: 2;
		}

		.st3 {
			fill: #8DBA43;
		}
	</style>
	<g class="st0">
		<g>
			<g>
				<g>
					<circle cx="745.7" cy="362.2" r="6.3" />
					<path
						d="M747.5,419.8l-1.8-37.1l-0.1-1.3l35.8,0l54.2,0.1l36.8,0.1c0,0,0,0,0,0h0.5l-0.6,8l-4.8,66.1" />
					<line x1="865.1" y1="488.4" x2="865" y2="488.6" />
					<polyline points="795.8,524.2 840.5,524.3 840.5,524.3 			" />
					<path d="M745.7,368.5l0,12.9l126.8,0.2c2.6,0,4.8-2.1,4.8-4.8l0-15.5l-125.4-0.2" />
					<path d="M751.9,361.2l125.4,0.2v-2.4c0-6.5-5.3-11.9-11.8-11.9l-119.7-0.2l0,9.1" />
					<path d="M844.3,521.7c-1.6,0.4-2.9,1.3-3.8,2.6h0c-0.8,1.1-1.2,2.4-1.2,3.8c0,3.1,2.1,5.7,5,6.4" />
					<polyline points="781.5,419.9 781.5,381.5 781.5,381.4 			" />
					<line x1="835.7" y1="381.4" x2="835.7" y2="491.6" />
					<path d="M825.7,437.8" />
					<path class="st1"
						d="M799.7,470.6v2.2c0,1.3,1,2.3,2.3,2.3h14.9c1.3,0,2.3-1,2.3-2.3v-8.3v-12.4v-8.4c0-1.3-1-2.3-2.3-2.3h-11.8" />
					<polyline class="st1" points="804.4,452.1 819.1,452.1 819.1,464.5 800.1,464.5 			" />
					<rect x="800.6" y="475.1" class="st1" width="17.7" height="2.7" />
					<polyline class="st1" points="805.1,441.5 816.9,441.5 817.4,441.5 817.4,439.7 805.1,439.7 			" />
				</g>
			</g>
			<g>
				<g>
					<circle cx="591.8" cy="385.2" r="6.3" />
					<path d="M718.1,419.8l0.5-7.2l0.6-8h-0.5c0,0,0,0,0,0l-36.8-0.1l-54.2-0.1l-35.8-0.1l0.1,1.3l6.2,130.5
				c0.2,4.7,3.2,8.6,7.3,10.2" />
					<line x1="677.9" y1="547.3" x2="615.5" y2="547.2" />
					<polyline points="598,384.2 620.4,384.2 620.4,384.2 			" />
					<path
						d="M635.5,384.2l87.9,0.1l0,15.5c0,2.6-2.1,4.7-4.7,4.8c0,0,0,0,0,0l-36.8-0.1l-54.2-0.1l-35.8-0.1l0-12.9" />
					<polyline points="591.8,378.9 591.9,369.8 595.5,369.9 			" />
					<polyline points="598,384.2 620.4,384.2 620.4,384.2 			" />
					<path d="M635.5,384.2l87.9,0.1v-2.4c0-6.5-5.3-11.9-11.8-11.9l-93-0.1" />
					<circle cx="610.1" cy="551" r="6.6" />
					<line x1="627.6" y1="404.4" x2="627.6" y2="514.6" />
					<polyline points="681.8,419.7 681.8,404.5 681.8,404.4 			" />
					<g>
						<path class="st1" d="M652.9,436.5h5.9v2.4c0,0.6,0.2,1.2,0.6,1.6l4.6,5c1.9,2.6,1.9,6.1,0.2,8.8c-1.2,1.9-2.3,4.1-2.3,6.2
					c0,1.9,0.5,2.1,1.4,3.8l2.7,4.9c0.7,1.4,1.3,3.4,1.6,5.3c0.2,1.5,0.4,3,0.4,4.1v15.5c0,0-2,2.3-2.7,2.1
					c-1.4-0.4-2.3-1.8-3.5-1.8c-1.8,0-4,1.5-5.3,1.8c-1.3,0.3-3.5-1.8-5.3-1.8c-1.1,0-2.3,1.3-3.5,1.8c-0.7,0.3-3.6-2.1-3.6-2.1
					v-15.5l0.4-4.1c0.3-2,0.9-4,1.6-5.3l2.7-4.9c2-3.7,1.2-6.5-1.1-10.1c-0.8-1.3-1.2-2.8-1.2-4.3c0-1.6,0.5-3.2,1.5-4.6l4.5-4.9
					l0.1-0.1c0.4-0.4,0.6-1,0.6-1.6V436.5z" />
						<path class="st1" d="M652.7,433.4h6.3c0.5,0,1,0.4,1,1v1.1c0,0.5-0.4,1-1,1h-6.3c0,0,0,0,0,0c-0.2,0-0.3-0.1-0.5-0.1
					c-0.3-0.2-0.5-0.5-0.5-0.8v-1.1c0-0.4,0.2-0.7,0.5-0.8C652.4,433.5,652.5,433.4,652.7,433.4z" />
					</g>
				</g>
			</g>
			<g>
				<g>
					<circle cx="673.5" cy="435.1" r="6.3" />
					<path d="M687,596.2c-4.1-1.6-7.1-5.5-7.3-10.2l-6.2-130.5l-0.1-1.3l127.4,0.2l-0.6,8l-9,124
				c-0.4,6-5.5,10.7-11.5,10.7h-0.7" />
					<polyline points="768.4,597.1 768.4,597.1 697.2,597 			" />
					<path d="M673.5,441.3l0,12.9l126.8,0.2c2.6,0,4.8-2.1,4.8-4.8l0-15.5L679.7,434" />
					<path d="M679.7,434l125.4,0.2v-2.4c0-6.5-5.3-11.9-11.8-11.9l-119.7-0.2l0,9.1" />
					<circle cx="691.8" cy="600.8" r="6.6" />
					<circle cx="773.8" cy="601" r="6.6" />
					<line x1="709.3" y1="454.2" x2="709.3" y2="564.5" />
					<line x1="763.5" y1="454.2" x2="763.5" y2="564.5" />
					<g>
						<polygon class="st1" points="745.9,503.1 741.4,495.4 730.6,495.4 724.9,505.2 733,509.9 736,504.8 737.7,507.8 734.7,509.6 
					746,512.6 749,501.3 				" />
						<polyline class="st1" points="737.7,507.8 736,504.8 730.6,495.4 741.4,495.4 745.9,503.1 				" />
					</g>
					<g>
						<polygon class="st1" points="719,515.7 714.5,523.5 720,532.8 731.3,532.8 731.3,523.4 725.4,523.5 727.1,520.4 730.2,522.2 
					727.2,510.9 715.9,513.9 				" />
						<polyline class="st1" points="727.1,520.4 725.4,523.5 720,532.8 714.5,523.5 719,515.7 				" />
					</g>
					<g>
						<polygon class="st1" points="743.2,532.6 752.1,532.6 757.5,523.3 751.9,513.4 743.7,518.1 746.7,523.3 743.2,523.3 
					743.2,519.7 734.9,528 743.2,536.3 				" />
						<polyline class="st1"
							points="743.2,523.3 746.7,523.3 757.5,523.3 752.1,532.6 743.2,532.6 				" />
					</g>
				</g>
			</g>
			<path class="st2" d="M494.3,533.7c0.1,0-12.2,8.2-12.1,8.2c18.5-13.4,53-33.4,78-43.1c2.1-0.8,4.3-1.6,6.5-2.4
		c9.3-3.4,19-6.5,29.1-9.3" />
			<line class="st2" x1="844.1" y1="632.4" x2="637.2" y2="632.4" />
			<line class="st2" x1="800.9" y1="474.8" x2="800.9" y2="474.8" />
		</g>
		<g>
			<rect x="844" y="629.8" transform="matrix(1 2.557050e-03 -2.557050e-03 1 1.704 -2.5526)" width="310.3"
				height="70.5" />

			<rect x="844.2" y="559.3" transform="matrix(1 2.557050e-03 -2.557050e-03 1 1.5236 -2.5533)" width="310.3"
				height="70.5" />

			<rect x="844.3" y="488.8" transform="matrix(1 2.557050e-03 -2.557050e-03 1 1.3433 -2.554)" width="310.3"
				height="70.5" />
			<path d="M866.2,488.4c0,0-12.3-22,3.4-34.5s21.6,2.1,39.2-4.6c20.4-7.8,14.4-22.6,36.1-36c20.4-12.5,53.3-4.6,78.3,9.6
		c20.8,11.8,1.5,31.3,28.1,37.7c24.4,5.8,23.5-12.5,50.2-7.7c26.6,4.8,36.8,36.1,36.8,36.1" />
			<line x1="854" y1="574.9" x2="854.3" y2="617.1" />
			<polyline points="870.8,576.5 854.1,596 875.6,614.9 	" />

			<ellipse transform="matrix(0.9993 -3.673627e-02 3.673627e-02 0.9993 -21.2124 33.3391)" cx="896.6" cy="593.9"
				rx="14.8" ry="18.9" />

			<ellipse transform="matrix(0.9993 -3.673627e-02 3.673627e-02 0.9993 -21.2205 37.5158)" cx="1010.3"
				cy="596.2" rx="14.8" ry="18.9" />
			<path d="M1128.7,600.8c1.5,0.5,3.1,0.7,4.8,0.6c8.2-0.3,14.5-7.1,14.2-15.2c-0.3-8.1-7.2-14.4-15.3-14.1
		c-1.4,0-2.7,0.3-3.9,0.7" />
			<path d="M1054.5,608.8c-2.5,3.1-5.9,5.1-9.8,5.3c-8.2,0.3-15.1-7.9-15.5-18.3c-0.4-10.4,5.9-19.1,14.1-19.4
		c3.3-0.1,6.4,1.2,9,3.4" />
			<polyline points="926.1,615.4 925.9,573.2 940.6,595.7 951.4,571.4 955.4,618.2 	" />
			<polyline points="962,618.1 961,575.3 986.5,575.5 987.6,618.3 	" />
			<line x1="1056.3" y1="577.1" x2="1090.1" y2="576.1" />
			<line x1="1074" y1="612.5" x2="1073.2" y2="576.6" />
			<polyline points="1120.4,612.7 1099.1,614.9 1098.4,576.9 1119.7,574.7 	" />
			<line x1="1114" y1="591" x2="1098.7" y2="591.8" />
			<polyline points="1128.7,613.5 1128.7,600.8 1128.5,572.7 	" />
		</g>
		<g>
			<g>
				<g>
					<path d="M505.5,422.1v-28.9v-11v-46.9c-6.6,0-12.1,30.7-13.1,54.5c-0.1,2.5-0.2,4.9-0.2,7.2c0,0,0,0,0,0
				c0,21.3,4.6,25,10.8,25.6" />
					<line x1="500.6" y1="430.8" x2="447.4" y2="461.6" />
					<path d="M502.2,432.7c2.6,5.6,1.8,11.5-16.8,22.2c-7.7,4.5-17.5,9.1-26.8,12.9" />
					<path d="M511.5,428.1c3.6-4.8,9.3-6.6,27.3,3.8c20.9,12.1,50.5,36,46.8,42.3l-75-43.3" />
				</g>
				<circle cx="505.7" cy="428" r="5.9" />
				<polyline points="507,433.7 510.3,674.5 501.1,674.5 504.3,433.7 		" />
			</g>
			<g>
				<g>
					<path
						d="M561.5,344.1v-86.7c-4.3,0-8.1,12.8-10.5,28.3c-1.7,11-2.8,23.4-2.8,33.4c0,21.3,4.6,25,10.8,25.6" />
					<line x1="556.6" y1="352.8" x2="505.5" y2="382.3" />
					<path d="M492.2,397.1c-5.7,1.2-9.8,1.1-10.9-0.9l11-6.4" />
					<path d="M558.2,354.7c2.6,5.6,1.8,11.5-16.8,22.2c-10.3,5.9-24.1,12.3-35.9,16.4" />
					<path d="M567.5,350.1c3.6-4.8,9.3-6.6,27.3,3.8c20.9,12.1,50.5,36,46.8,42.3l-75-43.3" />
				</g>
				<path d="M567.5,350c0,0,0,0.1,0,0.1v0c0,1-0.3,2-0.8,2.9c-0.8,1.3-2.1,2.3-3.7,2.7c-0.4,0.1-0.9,0.2-1.3,0.2
			s-0.9,0-1.3-0.2c-0.8-0.2-1.5-0.5-2.1-1c-0.7-0.5-1.2-1.1-1.7-1.9c-0.5-0.8-0.7-1.8-0.7-2.9c0-2.3,1.3-4.3,3.2-5.2
			c0.7-0.4,1.6-0.6,2.5-0.6c0,0,0.1,0,0.2,0C564.9,344.1,567.5,346.7,567.5,350z" />
				<line x1="560.3" y1="355.7" x2="559.1" y2="445.4" />
				<polyline points="563,355.7 564.3,449.3 564.3,449.3 		" />
				<polyline points="564.4,462 566.3,596.5 557.1,596.5 558.9,458.8 		" />
			</g>
			<g>
				<g>
					<path d="M404,375.8c-6.1-0.6-10.8-4.3-10.8-25.6c0-24.1,5.9-61.7,13.3-61.7v86.7" />
					<path d="M403.2,385.7c2.6,5.6,1.8,11.5-16.8,22.2c-20.9,12.1-56.4,25.7-60.1,19.4l75.2-43.4" />
					<path d="M412.5,381.1c3.6-4.8,9.3-6.6,27.3,3.8c20.9,12.1,50.5,36,46.8,42.3l-75-43.3" />
				</g>
				<circle cx="406.7" cy="381" r="5.9" />
				<line x1="405.3" y1="386.7" x2="404.6" y2="441.9" />
				<line x1="408.8" y1="441.9" x2="408" y2="386.7" />
				<line x1="409.5" y1="495.7" x2="409.5" y2="495.4" />
			</g>
			<g>
				<rect x="109.2" y="495.7" width="367.7" height="192.6" />
				<rect x="193.9" y="578.2" width="78.3" height="110.1" />
				<rect x="371.5" y="578.2" width="78.3" height="110.1" />
				<polygon points="188.1,442.2 85.3,495.4 508.2,495.4 412,441.9 		" />
				<g>
					<line class="st2" x1="415.1" y1="565.3" x2="426.4" y2="548.4" />
					<line class="st2" x1="426.4" y1="565.3" x2="415.1" y2="548.4" />
					<polyline class="st2" points="376,565.3 366.4,565.3 366.4,555.6 			" />
					<polyline class="st2" points="376,548.4 366.4,548.4 366.4,555.6 			" />
					<line class="st2" x1="372" y1="555.6" x2="366.4" y2="555.6" />
					<line class="st2" x1="382.9" y1="548.8" x2="382.9" y2="557.8" />
					<line class="st2" x1="382.9" y1="565.3" x2="382.9" y2="557.8" />
					<line class="st2" x1="390.6" y1="565.3" x2="382.9" y2="557.8" />
					<line class="st2" x1="390.6" y1="548.8" x2="382.9" y2="557.7" />
					<polyline class="st2" points="447.9,555.8 447.9,548.4 453.9,548.4 			" />
					<line class="st2" x1="447.9" y1="564.8" x2="447.9" y2="555.8" />
					<path class="st2"
						d="M447.9,555.8c0.6-0.3,1.3-0.4,2-0.4c2.7,0,4.9,2.2,4.9,4.9s-2.2,4.9-4.9,4.9c-0.7,0-1.4-0.2-2-0.4" />
					<ellipse class="st2" cx="403.3" cy="556.8" rx="6.6" ry="8.4" />
					<polyline class="st2" points="440,559.6 435.8,548.4 432.1,565.3 433.3,559.6 440,559.6 			" />
					<line class="st2" x1="442.1" y1="565.3" x2="440" y2="559.6" />
				</g>
				<g>
					<polyline class="st2" points="175.8,535.3 164.5,535.3 175.8,518.4 164.5,518.4 			" />
					<polyline class="st2" points="192.1,535.3 182.5,535.3 182.5,525.7 			" />
					<polyline class="st2" points="192.1,518.4 182.5,518.4 182.5,525.7 			" />
					<line class="st2" x1="188.1" y1="525.7" x2="182.5" y2="525.7" />
					<polyline class="st2" points="317.3,535.3 308.9,535.3 308.9,525.7 			" />
					<polyline class="st2" points="317.3,518.4 308.9,518.4 308.9,525.7 			" />
					<line class="st2" x1="313.8" y1="525.7" x2="308.9" y2="525.7" />
					<line class="st2" x1="222.8" y1="547.1" x2="222.8" y2="554.4" />
					<line class="st2" x1="222.8" y1="564" x2="222.8" y2="554.4" />
					<line class="st2" x1="231.2" y1="564" x2="231.2" y2="547.1" />
					<line class="st2" x1="231.1" y1="554.4" x2="222.8" y2="554.4" />
					<line class="st2" x1="199" y1="518.9" x2="199" y2="527.9" />
					<line class="st2" x1="199" y1="535.3" x2="199" y2="527.9" />
					<path class="st2"
						d="M199,527.9c0.6,0.3,1.3,0.4,2,0.4c2.7,0,4.9-2.2,4.9-4.9s-2.2-4.9-4.9-4.9c-0.7,0-1.4,0.2-2,0.4" />
					<line class="st2" x1="206.7" y1="535.3" x2="199" y2="527.9" />
					<line class="st2" x1="253" y1="564" x2="253" y2="556.6" />
					<line class="st2" x1="253" y1="547.6" x2="253" y2="556.6" />
					<path class="st2"
						d="M253,556.6c0.6,0.3,1.3,0.4,2,0.4c2.7,0,4.9-2.2,4.9-4.9s-2.2-4.9-4.9-4.9c-0.7,0-1.4,0.2-2,0.4" />
					<ellipse class="st2" cx="219.4" cy="526.9" rx="6.6" ry="8.4" />
					<ellipse class="st2" cx="242.2" cy="555.6" rx="6.6" ry="8.4" />
					<polyline class="st2" points="256.1,518.4 254,535.3 248,527.2 242.6,534.6 241.2,518.4 			" />
					<line class="st2" x1="267.9" y1="529.7" x2="267.9" y2="529.7" />
					<polyline class="st2" points="267.9,529.7 263.8,518.4 260,535.3 261.3,529.7 267.9,529.7 			" />
					<line class="st2" x1="270" y1="535.3" x2="267.9" y2="529.7" />
					<path class="st2" d="M284.2,522.2c0-2.1-2.1-3.8-4.6-3.8s-4.6,1.7-4.6,3.8c0,2.1,2.1,3.8,4.6,3.8s4.6,2.1,4.6,4.6
				s-2.1,4.6-4.6,4.6s-4.6-2.1-4.6-4.6" />
					<path class="st2" d="M217.5,550.9c0-2.1-2.1-3.8-4.6-3.8c-2.6,0-4.6,1.7-4.6,3.8c0,2.1,2.1,3.8,4.6,3.8c2.6,0,4.6,2.1,4.6,4.6
				c0,2.6-2.1,4.6-4.6,4.6c-2.6,0-4.6-2.1-4.6-4.6" />
					<line class="st2" x1="295.5" y1="518.4" x2="289" y2="518.4" />
					<line class="st2" x1="302" y1="518.4" x2="295.5" y2="518.4" />
					<line class="st2" x1="295.5" y1="518.4" x2="295.5" y2="535.3" />
				</g>
				<g>
					<rect x="127.6" y="586.2" class="st1" width="23.8" height="23.1" />
					<rect x="155.5" y="586.2" class="st1" width="23.8" height="23.1" />
					<rect x="127.6" y="613" class="st1" width="23.8" height="23.1" />
					<rect x="155.5" y="613" class="st1" width="23.8" height="23.1" />
				</g>
				<g>
					<rect x="293.1" y="586.2" class="st1" width="23.8" height="23.1" />
					<rect x="320.9" y="586.2" class="st1" width="23.8" height="23.1" />
					<rect x="293.1" y="613" class="st1" width="23.8" height="23.1" />
					<rect x="320.9" y="613" class="st1" width="23.8" height="23.1" />
				</g>
			</g>
			<path d="M502.8,547.3c-8.4-2.6-17-5-25.9-7.2" />
			<path d="M566,574c62.2,34.3,101.4,84.7,101.4,140.9H75.2c0-31.5,12.3-61.1,34-87.1" />
			<path d="M508.6,549.2c17.4,5.8,33.7,12.6,48.9,20.3" />
		</g>
	</g>
	<g class="st2">
		<g>
			<path d="M262.5,104.5c0.2,11.1,2.2,24.3,6.5,40c11.2,41.3,28.2,71.3,50.2,80.2c6,2.4,12.3,3.2,19,2.3
		c8.2-1.1,15.2-4.4,21-9.6c16.7-14.8,24.2-45.6,23.6-88.4c-0.2-17.3-1.9-31.2-4.7-42.3" />
			<path d="M359.2,217.4l4.8,35.7c0,0-1.6,20.6-17.6,24.1c-15.9,3.5-22.7-18.6-22.7-18.6l-4.6-33.9" />
			<path
				d="M56.8,400.9c10.9-0.5,62.3-3.5,96.9-17.6c38.9-15.9,79.6-90.2,97.3-102.6c17.7-12.4,72.5-23,72.5-23" />
			<path d="M57.4,425.1c24.3,6.9,69.9,7.8,101.7-1.1c44.2-12.4,97.3-69,97.3-69L253,440" />
			<path d="M438.6,400.7c0.4,14.6,0.9,37.2,1.2,56.6" />
			<path d="M548.3,314.3c-0.1,0-0.2,0.1-0.2,0.1c-33.6,12.4-111.4-3.5-111.4-3.5l1.5,73.1l0,1.3" />
			<path d="M431.7,495.4c-0.3,0.1-0.5,0.2-0.8,0.3" />
			<line x1="251.5" y1="495.4" x2="251.5" y2="495.7" />
			<path d="M576.3,288.6c-4.3,5.8-8.6,11-13,15.3" />
			<path d="M379.9,251.2C379.9,251.2,379.9,251.2,379.9,251.2c-9.2,0.6-15.7,1.3-15.7,1.3" />
			<path d="M602.9,230.1c2.3-0.4,2.6-2.2,2.6-4.6l-0.1-7.8c0,0,0,0,0.1,0l10.4,19.2c0.7,1.3,2.2,2.2,3.7,1.9
		c2.4-0.5,3.5-3,2.5-5l-6.4-14.3c0,0,9.3,13.9,9.3,13.9c1.2,1.5,3.5,1.7,4.9,0.4c1.4-1.3,1.4-3.4,0.2-4.9l-7.6-13.4l10.8,13.5
		c1.5,1.2,3.7,1.1,4.9-0.3c1.3-1.5,1.1-3.7-0.4-4.9c0,0-7.6-13.9-7.5-13.8l10.3,11.6c1.7,0.9,3.8,0.4,4.8-1.3
		c1-1.7-4.6-14.6-11.3-16.3c-5.4-1.4-26-2.1-31.8,6.8c-3.5,5.4-4,14.7-4,14.7C598.3,228.4,599.9,230.6,602.9,230.1z" />
			<path d="M222.7,314.4c-7.1-33.6,8.8-31.8,12.4-44.2c3.5-12.4-7.1-12.4-7.1-26.5c0-14.1,21.2-17.7,23-33.6
		c1.8-15.9-21.2-26.5-23-37.1c-1.8-10.6,10.6-33.6,14.1-46s-5.7-27-1.8-40.7c3.5-12.4,13.2-13.6,17.7-23
		c5.8-12.1,9.9-21.8,15.9-24.8c10.6-5.3,33.6-5.3,46-10.6c12.4-5.3,24.8-7.1,33.6-1.8c12.5,7.5,10.6,17.7,19.4,24.8
		c8.8,7.1,21.2,10.6,28.3,21.2c7.1,10.6-5.3,26.5-3.5,42.4c1.8,15.9,15.9,26.5,19.5,37.1c3.5,10.6-5.3,15.9-5.3,28.3
		s14.1,21.2,14.1,37.1c0,14.7-7.6,20.4-8.7,30.9" />
			<path d="M254.5,118.1c0,0,5.7-18.7,23-23c14.1-3.5,21.8,6,31.8,3.5c14.1-3.5,24.8-21.2,24.8-21.2s14.1,15.9,26.5,15.9
		s24.8-12.4,24.8-12.4" />
			<ellipse class="st3" cx="303.6" cy="141.4" rx="4.4" ry="5.3" />
			<ellipse class="st3" cx="355.3" cy="134.9" rx="4.4" ry="5.3" />
			<path d="M382.8,128.8c0.3-0.1,0.6-0.1,0.9-0.1c5.4-0.3,10,5,10.5,11.8c0.4,6.8-3.6,12.6-8.9,13
		c-1.1,0.1-2.1-0.1-3.1-0.4" />
			<path
				d="M270,148.3c-0.8,0-1.5,0.1-2.3,0.3c-5.1,1.6-7.7,8.2-5.7,14.7c2,6.5,7.8,10.6,12.9,9c1-0.3,1.8-0.8,2.6-1.4" />
			<line x1="329.7" y1="133.1" x2="335" y2="172" />
			<path d="M305.8,121.6c0,0-3.6-4-12.4-1.8c-7.1,1.8-8.8,8.8-8.8,8.8" />
			<path d="M367.5,118.2c0,0-1.9-5-10.8-6.3c-7.2-1.1-11.5,4.8-11.5,4.8" />
			<path d="M319.2,187.3c0,0,7.6,8.4,17.8,8.3c10.2-0.1,11.3-5,11.3-5" />
			<line x1="441.6" y1="495.7" x2="441.6" y2="495.4" />
			<path d="M34.1,390c1,0.4,3.1,0.9,3.6,1.9c1.2,2.1-0.5,4.6-2.8,4.9l-15.4,2.8c0,0,16.7-0.3,16.7-0.3
		c1.9,0.2,3.3,1.9,3.1,3.9c-0.2,1.9-2,3.1-3.9,2.9l-15.3,1.4l17.3,1.3c1.8,0.5,3,2.4,2.5,4.2c-0.5,1.9-1.8,1.9-4.3,2.4
		c0,0-15.7,1.6-15.7,1.7l15.4,1.9c1.7,0.9,2.7,2.9,0.7,4.9c-1.4,1.4-13.6,4.2-18.8-0.3c-4.2-3.7-12.6-22.7-9.2-32.7
		C10.2,384.8,31.2,388.9,34.1,390z" />
		</g>
		<g>
			<path d="M671.9,75.6c5.9,33.8,21.4,68,40.9,78.3c6,3.1,12.7,4.8,20.1,4.8c7.7,0,14.6-1.6,20.7-4.7
		c19.4-9.7,31.4-34.3,36.8-70c0.3-2.1,0.5-4.2,0.7-6.2" />
			<path d="M712.5,201.2" />
			<line x1="645.3" y1="257.8" x2="642.1" y2="369.9" />
			<polyline points="804.5,271.9 804.5,271.9 809.5,347 	" />
			<path d="M440.2,252.5c0,0,60.1,5.3,92-1.8c9.9-2.2,22.5-6.7,35.8-11.9c9.9-3.9,20.3-8.2,30.3-12.4" />
			<path d="M623.2,216.4c-0.1,0-0.1,0.1-0.2,0.1" />
			<path d="M712.8,153.9c0.3,13.2,0.6,39.3-2,42c-3.5,3.5-35.4,7.1-61.9,12.4c-2.3,0.5-4.8,1.1-7.6,1.9" />
			<path d="M632.9,212.9c-0.3,0.1-0.6,0.2-0.9,0.3" />
			<path d="M608.1,222.4c-0.8,0.4-1.7,0.7-2.6,1.1" />
			<path d="M574.7,280.3c-3.8,1-7.7,2-11.4,2.9" />
			<path d="M433.1,266.6c26.7,9.1,70.9,22.6,100.8,21.2c5.2-0.2,10.9-1,17.1-2.1" />
			<path d="M982.4,313.8c-0.1,0-0.2,0-0.4,0" />
			<path d="M973.8,314.5c-7.5,0.6-15.9,1.1-24.4,1.5" />
			<path d="M857.2,301.6c8.2,4.3,15.8,8.3,21.6,11c0.2,0.1,0.4,0.2,0.6,0.2" />
			<path d="M753.6,154.1c0.7,14.1,2.7,42.7,6.7,45.4c5,3.4,27.6,5.1,45,11.3" />
			<path d="M980.7,307.1c-19.5-3-45.7-7.8-64.9-14.3h0" />
			<path d="M440.2,252.5c-0.8-0.2-24.8-5.3-30.1-5.3c-12.4,0-31.8,0-31.8,7.1c0,3.5,10.6,0,21.2,3.5
		c5.3,1.8,7.1,7.1,7.1,7.1c0,0-7.1,3.9-7.1,4l-6.4,4.4c-2,1.3-3.3,2.6-2.3,4.8c1.3,2.8,4,2.9,6.5,1.2c0,0,10.5-6,16.8-7.6
		c3.8-0.9,18.7-4.9,19.1-5" />
			<path d="M568,238.8c0,0,8.4,56.1,10.2,56.1c1.8,0,67.2-37.1,67.2-37.1" />
			<path d="M692.9,202.5c0,0,7.3,31.4,39.1,31.4c31.8,0,44.9-29.3,44.9-29.3" />
			<polyline points="804.5,271.9 804.5,271.9 854,312.6 862.1,284.8 	" />
			<path d="M974.2,322.9c2.2,0.7,3.4-0.7,4.5-2.8l3.7-6.8c0,0,0.1,0,0.1,0l-0.1,21.8c0,1.5,0.9,2.9,2.3,3.4
		c2.4,0.8,4.6-1,4.6-3.2l1.2-15.6c0,0,1.5,16.6,1.5,16.6c0.4,1.9,2.2,3.1,4.1,2.7c1.8-0.4,2.9-2.4,2.5-4.2l-0.2-15.4l3,17.1
		c0.7,1.7,2.7,2.7,4.4,2.1c1.8-0.7,2.7-2.7,2-4.5c0,0,0-15.8,0-15.7l3.5,15.2c1.1,1.6,3.2,2.2,4.8,1.2c1.7-1,3-15-2.1-19.7
		c-4.1-3.8-21.8-14.3-31.2-9.3c-5.7,3.1-10.6,11-10.6,11C971,319.2,971.3,322,974.2,322.9z" />
			<path d="M791.1,77.8c0,0-23.7-4-34.3-19.9c-10.5,32.9-109.8,25.7-106.1,0c1.8-12.4,19.5,0,24.8-1.8
		c-10.5-0.4-22.6-11.7-14.1-15.9c3.5-1.8,5.7,5.9,15.9,5.3c-10.6-7.1-7.1-19.5-1.8-24.8c8-8,24.8-15.9,53.1-15.9
		c28.3,0,37.1,23,37.1,23s17.7-1.8,23,8.8C796.7,52.9,791.1,77.8,791.1,77.8z" />
			<path d="M791,78c4.7,1.6,8.2,6.7,8.2,12.7c0,7.3-5.1,13.3-11.5,13.3c-0.4,0-0.9,0-1.3-0.1" />
			<path d="M678.8,103.2c-0.1,0.1-0.2,0.1-0.4,0.1c-6,1.9-12.7-2.3-14.9-9.2c-2.2-7,1-14.2,7.1-16.1
		c0.5-0.2,1.1-0.3,1.6-0.4" />
			<line x1="732" y1="95.1" x2="732" y2="125.1" />
			<ellipse class="st3" cx="709.9" cy="102.2" rx="4.4" ry="5.3" />
			<ellipse class="st3" cx="755.6" cy="100.3" rx="4.4" ry="5.3" />
			<path d="M717.9,134c0,0,3.5,8.8,19.5,7.1" />
			<line x1="710.8" y1="86.2" x2="700.2" y2="89.8" />
			<line x1="751.5" y1="82.7" x2="763.8" y2="86.2" />
		</g>
		<g>
			<path d="M1028.1,201.5c-0.1,1.3-0.3,2.7-0.4,4.1c-2.5,32.7,11.1,60.3,31.1,73.7c7.3,4.9,15.4,7.9,23.8,8.5
		c5.7,0.4,11.2,0,16.5-1.3c23.9-6,43.8-36.7,48.1-75.5" />
			<path
				d="M1360.5,415.3c-7.1,1.4-24.6,5.3-24.6,5.3c0,0-80.8,45.3-105.2,47.6c-37.1,3.5-92-40.7-92-40.7v61.6" />
			<path d="M1099.1,286.4c-0.1,3.2-0.2,6.7-0.2,10.3c0,12.1,1,24.8,4.4,28.2c7.1,7.1,24.8,14.1,37.1,23s56.6,77.8,92,76
		c35.4-1.8,97.1-24.8,97.1-24.8c0.3-0.2,7.9-4.8,10.9-7.3c4.9-4.2,16.4-10.6,18.6-11.3s5-2.9,7.1-0.7c2,2-2.1,4.8-4,6
		c-3,2-11,8-11,8" />
			<path d="M856.3,238.8C856.3,238.8,856.3,238.8,856.3,238.8c0,0,0-0.1-0.1-0.1c0,0-0.1-0.1-0.1-0.1c0,0,0,0-0.1-0.1
		c-0.1-0.1-0.2-0.1-0.3-0.2c-3.3-2.6-19.7-15.5-24-17.6c-11.1-5.5-28.5-14.1-31.7-7.8c-1.6,3.2,9.5,4.7,17.5,12.6
		c4,3.9,3.2,9.5,3.2,9.5c0,0-8.1,0.4-8.1,0.4l-7.7,1.1c-2.4,0.3-4.1,0.9-4.2,3.2c-0.1,3.1,2.3,4.4,5.3,3.9c0,0,12.1-0.8,18.4,0.7
		c3.8,0.9,19,4.6,19,4.6s38.9,83.1,67.2,97.3c28.3,14.1,97.3,24.8,97.3,24.8v44.6" />
			<path d="M1058.8,279.2c-0.2,3.8-0.5,8.7-1,13.9c-1.1,12.8-2.9,27.3-5.7,30.1c-1.9,1.9-7.1,2.4-13.1,2.3h0
		c-7.9-0.1-17.2-1.3-21.6-1.9" />
			<path d="M1009,323.1c-0.4,0-0.7,0-1.1,0" />
			<path d="M990.7,322.4c-0.2,0-0.3,0-0.5,0" />
			<path d="M855.8,238.4L855.8,238.4c0,0,0.1,0,0.3,0.2c0,0,0,0,0.1,0.1c0,0,0.1,0.1,0.1,0.1c0,0,0.1,0.1,0.1,0.1
		c4.3,4.2,33.8,32.6,59.5,54h0c13.8,11.4,26.5,20.8,33.6,23.3c0.1,0,0.1,0,0.2,0.1c6.1,2,14,3.5,22.2,4.5" />
			<path d="M982.4,321.7c-1.5-0.1-2.9-0.3-4.4-0.4" />
			<path d="M998.4,322.8c0.2,0,0.4,0,0.5,0h0" />
			<path d="M1039,325.1c0,0-2.7,52.9,34.3,56.4c37.1,3.5,47.1-45.1,47.1-45.1" />
			<line x1="1140.5" y1="348" x2="1138.7" y2="427.5" />
			<line x1="1011.7" y1="333.9" x2="1007.9" y2="371" />
			<path d="M1098.9,296.7c25.1,1,47.1-0.3,55.7-1.8c49.5-169.8-35.4-176.8-72.5-166.2c-33.6-12.4-99,19.5-72.5,150.3
		c12,6.9,29.5,11.3,48.2,14.1" />
			<path d="M1030.9,164.1c0,0-10.6,14.1-12.4,35.4c33.6,8.8,86.7,1.8,86.7,1.8s7.1-14.1,8.8-23
		c1.8,15.9,6.7,26.2,6.7,26.2s15,7,36,7c5.7-13.5-4.3-38.8-9.1-43.8" />
			<ellipse class="st3" cx="1064.5" cy="225.1" rx="4.4" ry="5.3" />
			<ellipse class="st3" cx="1109.6" cy="229.7" rx="4.4" ry="5.3" />
			<line x1="1088.3" y1="218" x2="1084.8" y2="248.1" />
			<path d="M1110.4,211.8c0,0,10.6,0,12.4,5.3" />
			<path d="M1068.5,208.9c0,0-9.9-3.8-13.5,0.5" />
			<path d="M1080.4,264.9c0,0,10.6,7.1,17.7-1.8" />
			<path d="M1027.5,217.4c-4.4,1.1-7.6,5.3-7.3,10c0.3,5.3,4.8,9.3,10.1,9.1" />
			<path d="M1144.4,226c4.5,0.6,8.2,4.3,8.4,9.1c0.3,5.4-3.8,10-9.1,10.3c-1.5,0.1-2.8-0.1-4.1-0.7" />
			<ellipse transform="matrix(0.9622 -0.2724 0.2724 0.9622 -48.8174 394.1386)" cx="1395.2" cy="372.9" rx="4"
				ry="5" />
			<ellipse transform="matrix(0.9622 -0.2724 0.2724 0.9622 -51.4279 395.3339)" cx="1398.2" cy="382.9" rx="4"
				ry="5" />
			<ellipse transform="matrix(0.9622 -0.2724 0.2724 0.9622 -53.766 396.4914)" cx="1401.2" cy="391.9" rx="4"
				ry="5" />
			<ellipse transform="matrix(0.9622 -0.2724 0.2724 0.9622 -56.1419 397.3766)" cx="1403.2" cy="400.9" rx="4"
				ry="5" />
		</g>
		<g>
			<polyline points="17.8,423.9 18.9,432.2 57.5,429.1 57.4,425.1 56.8,400.9 55.5,347.1 7.7,350.9 12.8,388 	" />
			<path d="M54.3,331.3c-11.2,6.2-34.6,8.7-43.7,9.4c-2.1,0.2-3.5,2.4-3.3,5l0.4,5.3l47.9-3.9L54.3,331.3z" />
		</g>
		<g>
			<path d="M1353.5,383.4c-2.2-4.5-5-8.3-5.7-10.9c-1-3.4-2.6-16.4-2.6-16.4l40.4-11.4c0,0,5.1,10.6,6.4,15.1
		c0.7,2.5,0.6,5.6,0.7,8.9" />
			<path d="M1399.2,387.8c-0.1-0.1-0.1-0.2-0.2-0.3" />
			<path d="M1355.9,390.4c1.2,6,0.6,12.8,1.5,15.8c0.3,1.1,1.6,4.8,3.1,9.2c3.1,8.8,7.4,20.6,7.4,20.6l40.4-11.4
		c0,0-2-9.9-3.9-18.8" />
			<path d="M1402.4,396.7c-0.1-0.3-0.1-0.5-0.2-0.7" />
			<path d="M1394.8,379.6c-0.3-0.7-0.6-1.5-0.9-2.2" />
			<path d="M1378.1,337.4L1348,346c-2.8,0.8-4.5,3.8-3.7,6.6l1,3.5l40.4-11.4l-1-3.5
		C1383.9,338.3,1380.9,336.6,1378.1,337.4z" />
		</g>
	</g>
</svg>