<?xml version="1.0" encoding="utf-8"?>
<!-- Generator: Adobe Illustrator 24.1.2, SVG Export Plug-In . SVG Version: 6.00 Build 0)  -->
<svg version="1.1" id="Слой_1" xmlns="http://www.w3.org/2000/svg" xmlns:xlink="http://www.w3.org/1999/xlink" x="0px"
	y="0px" viewBox="0 0 1546.2 723" style="enable-background:new 0 0 1546.2 723;" xml:space="preserve">
	<style type="text/css">
		.st0,
		.st1,
		.st2,
		.st3,
		.st4,
		.st5,
		.st6,
		.st7,
		.st8 {
			fill: none;
			stroke: #8EBB43;
			stroke-linecap: round;
			stroke-linejoin: round;
			stroke-miterlimit: 10;
		}

		.st0 {
			stroke-width: 3
		}

		.st1 {
			stroke-width: 2
		}

		.st2 {
			stroke-width: 5
		}

		.st3 {
			stroke-width: 5.2816
		}

		.st4 {
			stroke-width: 1.6893
		}

		.st5 {
			stroke-width: 1.6687
		}

		.st7 {
			stroke-width: 1.5757
		}

		.st8 {
			stroke-width: 1.993
		}
	</style>
	<g>
		<polyline class="st0" points="236.4,315.9 236.4,194.5 381.4,194.5 381.4,250.5 	" />
		<polyline class="st0" points="236.4,421 236.4,436.2 290.4,436.2 	" />
		<line class="st0" x1="381.4" y1="278.8" x2="381.4" y2="278.6" />
		<rect x="252.7" y="213.6" class="st1" width="28.4" height="31.8" />
		<rect x="295.4" y="213.6" class="st1" width="28.4" height="31.8" />
		<rect x="338.1" y="213.6" class="st1" width="28.4" height="31.8" />
		<polyline class="st1" points="281.2,278.8 281.2,288.1 252.7,288.1 252.7,256.3 270.7,256.3 	" />
		<rect x="252.7" y="299" class="st1" width="28.4" height="31.8" />
		<polyline class="st1" points="260.8,373.4 281.2,373.4 281.2,341.6 252.7,341.6 252.7,346.2 	" />
		<polyline class="st1" points="261.7,384.3 281.2,384.3 281.2,416.1 252.7,416.1 252.7,410.6 	" />
	</g>
	<g>
		<polyline class="st0" points="414.1,260.9 614.4,260.9 614.4,367.3 	" />
		<polyline class="st0" points="405.1,278.8 405.1,436.4 499.1,436.4 	" />
		<path class="st0" d="M414.1,260.9h200.2h8.7c0.9,0,1.3-1,0.7-1.7L566.5,202c-0.2-0.2-0.4-0.3-0.7-0.3l-115.9-0.1
		c-0.3,0-0.5,0.1-0.7,0.3l-48.6,48.6" />
		<rect x="558.4" y="280.2" class="st1" width="28.4" height="31.8" />
		<rect x="515.8" y="280.2" class="st1" width="28.4" height="31.8" />
		<rect x="473.1" y="280.2" class="st1" width="28.4" height="31.8" />
		<rect x="430.4" y="280.2" class="st1" width="28.4" height="31.8" />
		<rect x="558.4" y="331.4" class="st1" width="28.4" height="31.8" />
		<rect x="515.8" y="331.4" class="st1" width="28.4" height="31.8" />
		<rect x="473.1" y="331.4" class="st1" width="28.4" height="31.8" />
		<rect x="430.4" y="331.4" class="st1" width="28.4" height="31.8" />
		<polyline class="st1" points="558.4,384.3 558.4,382.5 562.5,382.5 	" />
		<polyline class="st1" points="515.8,412.7 515.8,382.5 544.2,382.5 544.2,391.5 	" />
		<rect x="473.1" y="382.5" class="st1" width="28.4" height="31.8" />
		<rect x="430.4" y="382.5" class="st1" width="28.4" height="31.8" />
	</g>
	<g>
		<rect x="574.7" y="441.4" class="st2" width="324.3" height="271.9" />
		<rect x="704.1" y="617.5" class="st2" width="65.4" height="95.9" />
		<path class="st2" d="M643,393.9l-89,45c-0.9,0.9-0.3,2.6,1.1,2.6h357.5c1.3,0,2-1.6,1.1-2.6L824.8,394c-0.3-0.3-0.7-0.4-1.1-0.4
		L644,393.5C643.6,393.5,643.2,393.6,643,393.9z" />
		<rect x="812.3" y="471.2" class="st0" width="44.1" height="49.3" />
		<rect x="746.2" y="471.2" class="st0" width="44.1" height="49.3" />
		<rect x="680.1" y="471.2" class="st0" width="44.1" height="49.3" />
		<rect x="613.9" y="471.2" class="st0" width="44.1" height="49.3" />
		<rect x="812.3" y="550.6" class="st0" width="44.1" height="49.3" />
		<rect x="746.2" y="550.6" class="st0" width="44.1" height="49.3" />
		<rect x="680.1" y="550.6" class="st0" width="44.1" height="49.3" />
		<rect x="613.9" y="550.6" class="st0" width="44.1" height="49.3" />
		<rect x="812.3" y="629.9" class="st0" width="44.1" height="49.3" />
		<rect x="613.9" y="629.9" class="st0" width="44.1" height="49.3" />
	</g>
	<g>
		<polyline class="st0"
			points="746.6,372.5 779.8,372.5 779.8,292.3 779.8,273.7 662,273.7 662,312.4 662,362.6 	" />
		<polyline class="st0" points="674.8,362.5 674.8,310.7 718.7,310.7 718.7,366.4 	" />
		<polygon class="st0" points="722.1,240.5 654.4,273.6 789.8,273.6 	" />
		<g>
			<rect x="731.5" y="304.1" class="st1" width="16.4" height="15.8" />
			<rect x="750.6" y="304.1" class="st1" width="16.4" height="15.8" />
			<rect x="731.5" y="322.4" class="st1" width="16.4" height="15.8" />
			<rect x="750.6" y="322.4" class="st1" width="16.4" height="15.8" />
		</g>
	</g>
	<g>
		<path class="st0" d="M177.8,357.4c11.5-37.3,39.6-64.9,39.6-64.9s0.7,0.7,2,2c6.8,7.2,29.4,33,39.3,69
		c10.3,37.7-6.6,59.9-40.3,60.1c-0.2,0-0.3,0-0.5,0c-13.1,0-23.8-3.4-31.4-9.9" />
		<line class="st0" x1="218.4" y1="324.4" x2="218.4" y2="484" />
		<path class="st0" d="M195.8,347.8c0,0,4.2,34,21.8,47" />
		<path class="st0" d="M247.2,371.2c0,0-6.5,32.9-28.8,45.4" />
		<path class="st0" d="M233.2,337.4c0,0-1,15.1-14,23.9" />
		<path class="st0" d="M186.4,365.5c0,0,4.2,6.8,15.6,8.8" />
		<path class="st0" d="M207.8,330.1c0,0,2.6,8.4,9.9,12" />
	</g>
	<g>
		<path class="st3" d="M1289,627c-15.5,0-28-4.4-36.4-12.7c-11.3-11.1-15.3-29.3-9.3-53.1c11.1-44.2,45.2-77.7,45.2-77.7
		s0.8,0.8,2.2,2.2c7.5,7.9,32.2,36.1,43,75.5C1345,602.6,1326.3,627,1289,627z" />
		<line class="st3" x1="1289.6" y1="518.4" x2="1289.6" y2="693" />
		<path class="st3" d="M1264.9,544c0,0,4.5,37.2,23.9,51.4" />
		<path class="st3" d="M1321.2,569.6c0,0-7.1,36-31.5,49.6" />
		<path class="st3" d="M1305.8,532.6c0,0-1.1,16.5-15.3,26.1" />
		<path class="st3" d="M1254.7,563.3c0,0,4.5,7.4,17.1,9.7" />
		<path class="st3" d="M1278,524.6c0,0,2.8,9.2,10.8,13.1" />
	</g>
	<g>
		<path class="st3" d="M1390.6,640.2c-12.2,0-22-3.4-28.6-9.9c-8.9-8.7-12-23-7.3-41.7c8.7-34.7,35.5-61,35.5-61s0.6,0.6,1.7,1.7
		c5.9,6.2,25.3,28.3,33.8,59.3C1434.6,621,1419.9,640.2,1390.6,640.2z" />
		<line class="st3" x1="1391.1" y1="554.9" x2="1391.1" y2="692" />
		<path class="st3" d="M1371.6,575c0,0,3.6,29.2,18.7,40.4" />
		<path class="st3" d="M1415.8,595.1c0,0-5.6,28.3-24.8,39" />
		<path class="st3" d="M1403.8,566.1c0,0-0.9,12.9-12.1,20.5" />
		<path class="st3" d="M1363.6,590.2c0,0,3.6,5.8,13.4,7.6" />
		<path class="st3" d="M1381.9,559.8c0,0,2.2,7.2,8.5,10.3" />
	</g>
	<g>
		<path class="st0" d="M136.5,447.3c-16.6,0-30-4.7-39-13.6c-12.2-11.9-16.4-31.4-10-57c11.9-47.4,48.4-83.3,48.4-83.3
		s0.8,0.8,2.3,2.4c8,8.4,34.5,38.7,46.1,80.9C196.5,421.2,176.4,447.3,136.5,447.3z" />
		<line class="st0" x1="137.1" y1="330.9" x2="137.1" y2="518" />
		<path class="st0" d="M110.6,358.4c0,0,4.9,39.9,25.6,55.1" />
		<path class="st0" d="M170.9,385.8c0,0-7.6,38.6-33.8,53.2" />
		<path class="st0" d="M154.5,346.2c0,0-1.2,17.7-16.4,28" />
		<path class="st0" d="M99.7,379.1c0,0,4.9,7.9,18.3,10.4" />
		<path class="st0" d="M124.7,337.6c0,0,3,9.8,11.5,14.1" />
	</g>
	<g>
		<g>
			<path class="st0" d="M828.2,198.6c-4.1-0.4-7.2-2.9-7.2-17.1c0-16.1,4-41.2,8.9-41.2v57.9" />
			<path class="st0" d="M827.7,205.3c1.7,3.8,1.2,7.7-11.2,14.8c-14,8.1-37.7,17.2-40.1,12.9l50.2-29" />
			<path class="st0" d="M833.9,202.2c2.4-3.2,6.2-4.4,18.3,2.5c14,8.1,33.7,24.1,31.3,28.3l-50.1-28.9" />
		</g>
		<circle class="st0" cx="830" cy="202.1" r="3.9" />
		<polyline class="st0" points="830.9,205.9 833.1,366.8 826.9,366.8 829.1,205.9 	" />
	</g>
	<g>
		<g>
			<path class="st0" d="M1010.6,173.8c-4.1-0.4-7.2-2.9-7.2-17.1c0-16.1,4-41.2,8.9-41.2v57.9" />
			<path class="st0" d="M1010,180.5c1.7,3.8,1.2,7.7-11.2,14.8c-14,8.1-37.7,17.2-40.1,12.9l50.2-29" />
			<path class="st0" d="M1016.2,177.4c2.4-3.2,6.2-4.4,18.3,2.5c14,8.1,33.7,24.1,31.3,28.3l-50.1-28.9" />
		</g>
		<circle class="st0" cx="1012.3" cy="177.3" r="3.9" />
		<polyline class="st0" points="1013.2,181.1 1015.4,342 1009.3,342 1011.4,181.1 	" />
	</g>
	<g>
		<g>
			<path class="st0" d="M1094.6,224.8c-4.1-0.4-7.2-2.9-7.2-17.1c0-16.1,4-41.2,8.9-41.2v57.9" />
			<path class="st0" d="M1094,231.5c1.7,3.8,1.2,7.7-11.2,14.8c-14,8.1-37.7,17.2-40.1,12.9l50.2-29" />
			<path class="st0" d="M1100.2,228.4c2.4-3.2,6.2-4.4,18.3,2.5c14,8.1,33.7,24.1,31.3,28.3l-50.1-28.9" />
		</g>
		<circle class="st0" cx="1096.3" cy="228.3" r="3.9" />
		<polyline class="st0" points="1093.7,358.1 1093.7,357.5 1095.4,232.1 1095.4,232.1 	" />
		<line class="st0" x1="1098.9" y1="357.5" x2="1097.2" y2="232.1" />
	</g>
	<g>
		<g>
			<path class="st0" d="M925.9,205.9c-4.7-0.4-8.3-3.3-8.3-19.8c0-18.7,4.6-47.7,10.3-47.7v67" />
			<path class="st0" d="M925.3,213.6c2,4.3,1.4,8.9-13,17.2c-16.2,9.3-43.6,19.9-46.4,15l58.1-33.6" />
			<path class="st0" d="M932.4,210c2.8-3.7,7.2-5.1,21.1,2.9c16.2,9.3,39,27.8,36.2,32.7l-57.9-33.5" />
		</g>
		<circle class="st0" cx="927.9" cy="209.9" r="4.5" />
		<polyline class="st0" points="929,214.3 931.5,400.5 924.4,400.5 926.9,214.3 	" />
	</g>
	<path class="st4" d="M925.8,297c-7.4-1.1-15-2-22.7-2.8" />
	<path class="st4" d="M890.9,293c-19-1.6-38.7-2.5-58.8-2.5" />
	<path class="st4" d="M1015.1,317.4c25.6,8.6,47.6,18.9,65,30.5c4.7,3.1,9,6.3,12.9,9.6c0.2,0.2,0.5,0.4,0.7,0.6" />
	<line class="st4" x1="933.2" y1="411.2" x2="858.9" y2="411.2" />
	<path class="st4" d="M930.1,297.6c28.9,4.3,55.7,10.4,79.5,18" />
	<path class="st4" d="M828,290.5c-16.4,0.1-32.5,0.7-48.2,1.8" />
	<path class="st4" d="M662,312.4c-17.4,5-33.4,10.8-47.7,17.3" />
	<line class="st5" x1="1089.2" y1="581.5" x2="1061.6" y2="581.5" />
	<line class="st5" x1="933.2" y1="581.5" x2="899" y2="581.5" />
	<path class="st0" d="M797.5,393.6c-32-19.1-77.7-31.1-128.4-31.1c-19.1,0-37.5,1.7-54.7,4.8c-18.9,3.4-36.4,8.6-51.9,15.2
	c-1.4,0.6-2.7,1.2-4.1,1.8c-5,2.3-9.7,4.7-14.2,7.2c-11.1,6.3-20.7,13.4-28.4,21.1c-7.3,7.4-13,15.3-16.7,23.7
	c-3.3,7.4-5,15.2-5,23.1h80.6" />
	<path class="st0" d="M390.8,462.7c12.9-3.7,27-5.7,41.8-5.7c62.1,0,112.5,35.8,112.5,80h-52h-3.8h-10.4" />
	<line class="st0" x1="441" y1="537" x2="390.8" y2="537" />
	<line class="st0" x1="471.6" y1="537" x2="462.3" y2="537" />
	<path class="st0" d="M290.4,534.5H72.1c0-44.2,50.4-80,112.5-80c48.7,0,90.1,22,105.8,52.7" />
	<path class="st2" d="M325.2,603.4c8.5-0.2,17.1-0.3,25.9-0.3c37.2,0,73.1,1.9,106.6,5.5" />
	<path class="st2" d="M103.6,637.2C45.1,657,9.1,683.8,9.1,713.4h565.6h118.4" />
	<path class="st2" d="M469.7,609.9c9.8,1.2,19.4,2.5,28.8,3.9c27.7,4.3,53.3,9.7,76.3,16.1" />
	<path class="st3" d="M1245.1,603.9c-10-0.5-20.1-0.8-30.4-1" />
	<path class="st3" d="M899,713h34.1h79.3h122.9h79.3h322.3c0-33.2-45.4-62.9-117.4-83.1h0" />
	<path class="st3" d="M1353.7,615.3c-8.3-1.4-16.8-2.7-25.5-3.9" />
	<path class="st3" d="M899,657.7c10-5.5,21.4-10.8,34.1-15.7" />
	<polyline class="st6" points="464.5,109.5 467.6,35 490.6,35 493.7,109.5 " />
	<polyline class="st6" points="208.1,302.9 208.1,48.5 272.1,48.5 272.1,74 " />
	<polyline class="st6" points="314.6,112.5 412.2,112.5 414.6,55 437.6,55 440.7,130 454.1,130 " />
	<polyline class="st6" points="516.6,130 537.1,130 537.1,2.5 664.1,2.5 664.1,43 743.6,43 743.6,83 816.1,83 816.1,27.5 892.1,27.5 
	892.1,100.5 910.1,100.5 910.1,22.5 986.1,22.5 986.1,109.5 " />
	<g>
		<rect x="933.2" y="357.5" class="st2" width="281.6" height="355.9" />
		<polyline class="st0" points="1012.5,592.3 1020.2,592.3 1029.1,592.3 1061.6,592.3 1089.2,592.3 1118.9,592.3 1130.6,592.3 
		1135.4,592.3 	" />
		<polyline class="st2" points="1012.5,619.8 1012.5,713.4 1135.4,713.4 1135.4,619.8 	" />
		<polyline class="st0" points="1029.1,592.3 1061.6,592.3 1089.2,592.3 1118.9,592.3 	" />
		<polyline class="st0" points="1118.9,619.8 1118.9,658.6 1029.1,658.6 1029.1,619.8 	" />
		<polygon class="st2" points="1145.9,619.8 1002.1,619.8 1012.5,592.3 1135.4,592.3 	" />
		<rect x="965" y="391.6" class="st0" width="55.2" height="61.8" />
		<rect x="1047.8" y="391.6" class="st0" width="55.2" height="61.8" />
		<rect x="1130.6" y="391.6" class="st0" width="55.2" height="61.8" />
		<rect x="965" y="474.5" class="st0" width="55.2" height="61.8" />
		<rect x="1047.8" y="474.5" class="st0" width="55.2" height="61.8" />
		<rect x="1047.8" y="557.9" class="st0" width="55.2" height="22.5" />
		<rect x="1130.6" y="474.5" class="st0" width="55.2" height="61.8" />
		<polyline class="st0" points="1002.4,619 965,619 965,557.1 1020.2,557.1 1020.2,592.3 	" />
		<polyline class="st0" points="1130.6,592.3 1130.6,557.1 1185.8,557.1 1185.8,619 1145.5,619 	" />
		<path class="st0" d="M1062.5,580.4" />
		<line class="st0" x1="1061.6" y1="580.4" x2="1061.6" y2="592.3" />
		<line class="st0" x1="1089.2" y1="580.4" x2="1089.2" y2="592.3" />
	</g>
	<polyline class="st1" points="922.4,147.5 837.6,147.5 837.6,135 768.6,135 768.6,115.5 676.1,104.5 676.1,150 609.6,150 
	609.6,76.5 547.1,76.5 547.1,150 516.6,150 516.6,109.5 454.1,109.5 454.1,147.1 314.6,163.8 314.6,74 272.1,74 220.1,74 
	220.1,295.3 " />
	<polyline class="st1"
		points="1080.1,347.9 1080.1,247.8 1080.1,237.6 1080.1,109.5 931.1,109.5 931.1,147.5 927.8,147.5 " />
	<g>
		<rect x="290.4" y="278.6" class="st0" width="100.4" height="286.8" />
		<rect x="270.7" y="250.5" class="st0" width="143.4" height="28.3" />
		<rect x="305.9" y="384.5" class="st1" width="27.6" height="30.9" />
		<rect x="347.3" y="384.5" class="st1" width="27.6" height="30.9" />
		<rect x="305.9" y="343.4" class="st1" width="27.6" height="30.9" />
		<rect x="347.3" y="343.4" class="st1" width="27.6" height="30.9" />
		<rect x="305.9" y="298.9" class="st1" width="27.6" height="30.9" />
		<rect x="347.3" y="298.9" class="st1" width="27.6" height="30.9" />
		<rect x="305.9" y="425.9" class="st1" width="27.6" height="30.9" />
		<rect x="347.3" y="425.9" class="st1" width="27.6" height="30.9" />
		<rect x="305.9" y="467.3" class="st1" width="27.6" height="30.9" />
		<rect x="347.3" y="467.3" class="st1" width="27.6" height="30.9" />
		<rect x="305.9" y="508.7" class="st1" width="27.6" height="30.9" />
		<rect x="347.3" y="508.7" class="st1" width="27.6" height="30.9" />
	</g>
	<g>
		<g>
			<circle class="st0" cx="251" cy="594.2" r="3.6" />
			<path class="st0"
				d="M258.7,685.3c-2.3-0.9-4-3.1-4.1-5.7l-3.5-73.8l0-0.7l72,0.1l-0.3,4.5l-5.1,70.1c-0.2,3.4-3.1,6-6.5,6h-0.4" />
			<polyline class="st0" points="304.7,685.8 304.7,685.8 264.4,685.7 		" />
			<path class="st0" d="M251,597.7l0,7.3l71.7,0.1c1.5,0,2.7-1.2,2.7-2.7l0-8.8l-70.9-0.1" />
			<path class="st0" d="M254.5,593.6l70.9,0.1v-1.4c0-3.7-3-6.7-6.7-6.7l-67.7-0.1l0,5.1" />
			<circle class="st0" cx="261.4" cy="687.9" r="3.7" />
			<circle class="st0" cx="307.7" cy="688" r="3.7" />
			<line class="st0" x1="271.3" y1="605" x2="271.3" y2="667.3" />
			<line class="st0" x1="301.9" y1="605" x2="301.9" y2="667.3" />
			<polyline class="st6" points="280.8,646.6 275.6,645 296.6,633 294.6,651 284.6,648 		" />
			<path class="st6" d="M294.3,636.9" />
			<path class="st6" d="M283.6,651" />
			<polygon class="st6" points="284.6,648 293.6,637 280.8,646.6 283.6,651 		" />
			<line class="st6" x1="283.6" y1="651" x2="285.5" y2="648.3" />
		</g>
	</g>
	<g>
		<g>
			<circle class="st0" cx="191" cy="560.2" r="3.6" />
			<path class="st0" d="M250.8,651.8h0.4c0.7,0,1.4-0.1,2.1-0.3" />
			<path class="st0" d="M262,585.5l0.7-9.8l0.3-4.5h-0.3c0,0,0,0,0,0l-20.8,0l-30.6,0l-20.3,0l0,0.7l0.7,13.8l0.2,3.3l0.2,4.3
			l0.2,4.1l0.3,5.3l1.7,36.5l0.3,6.6c0.1,2.6,1.8,4.8,4.1,5.8" />
			<polyline class="st0" points="244.7,651.8 244.7,651.8 204.4,651.7 		" />
			<path class="st0" d="M191,563.7l0,7.3l71.7,0.1c1.5,0,2.7-1.2,2.7-2.7l0-8.8l-70.9-0.1" />
			<path class="st0" d="M194.5,559.6l70.9,0.1v-1.4c0-3.7-3-6.7-6.7-6.7l-67.7-0.1l0,5.1" />
			<circle class="st0" cx="201.4" cy="653.9" r="3.7" />
			<circle class="st0" cx="247.7" cy="654" r="3.7" />
			<line class="st0" x1="211.3" y1="571" x2="211.3" y2="633.3" />
			<line class="st0" x1="241.9" y1="571" x2="241.9" y2="633.3" />
			<path class="st0" d="M236.3,602.9" />
			<path class="st6" d="M231.3,624h-8.4c-0.7,0-1.3-0.6-1.3-1.3v-16.4c0-0.7,0.6-1.3,1.3-1.3h8.4c0.7,0,1.3,0.6,1.3,1.3v16.4
			C232.6,623.4,232,624,231.3,624z" />
			<rect x="221.6" y="611" class="st6" width="11" height="7" />
			<rect x="222.1" y="624" class="st6" width="10" height="1.5" />
			<rect x="222.6" y="604" class="st6" width="9" height="1" />
		</g>
	</g>
	<g>
		<g>
			<circle class="st0" cx="101" cy="571.2" r="3.6" />
			<path class="st0" d="M160.8,662.8h0.4c3.4,0,6.3-2.6,6.5-6l1.3-17.8l1.5-21.3l2.2-31l0.3-4.5h-0.3c0,0,0,0,0,0l-20.8,0l-30.6,0
			l-20.3,0l0,0.7l3.5,73.8c0.1,2.6,1.8,4.8,4.1,5.8" />
			<polyline class="st0" points="114.4,662.7 114.4,662.7 154.7,662.8 154.7,662.8 		" />
			<path class="st0"
				d="M104.5,570.6l70.9,0.1l0,8.8c0,1.5-1.2,2.7-2.7,2.7c0,0,0,0,0,0l-20.8,0l-30.6,0l-20.3,0l0-7.3" />
			<path class="st0" d="M104.5,570.6l70.9,0.1v-1.4c0-3.7-3-6.7-6.7-6.7l-67.7-0.1l0,5.1" />
			<path class="st0" d="M115.1,664.9c0,2.1-1.7,3.8-3.8,3.7c-2.1,0-3.8-1.7-3.7-3.8c0-1,0.4-1.9,1.1-2.6c0.7-0.7,1.6-1.1,2.7-1.1
			c1.3,0,2.4,0.6,3,1.6h0C114.9,663.4,115.1,664.1,115.1,664.9z" />
			<path class="st0" d="M161.5,665c0,2.1-1.7,3.8-3.8,3.7c-2.1,0-3.8-1.7-3.8-3.8c0-0.8,0.3-1.6,0.7-2.2c0.7-1,1.8-1.6,3.1-1.6
			c1.3,0,2.4,0.6,3.1,1.6C161.2,663.4,161.5,664.2,161.5,665z" />
			<line class="st0" x1="121.3" y1="582" x2="121.3" y2="644.3" />
			<line class="st0" x1="151.9" y1="582" x2="151.9" y2="644.3" />
			<g>
				<path class="st6" d="M144.1,624v8.8c0,0-1.1,1.3-1.5,1.2c-0.8-0.3-1.3-1-2-1c-1,0-2.3,0.8-3,1c-0.7,0.2-2-1-3-1
				c-0.6,0-1.3,0.8-2,1c-0.4,0.1-2.1-1.2-2.1-1.2V624l0.2-2.3c0.2-1.1,0.5-2.3,0.9-3l1.5-2.8c1.1-2.1,0.7-3.7-0.6-5.7
				c-0.5-0.7-0.7-1.6-0.7-2.4c0-0.9,0.3-1.8,0.8-2.6l2.5-2.8l0,0c0.2-0.3,0.4-0.6,0.4-0.9v-1.3h3.3v1.3c0,0.3,0.1,0.7,0.4,0.9
				l2.6,2.8c1,1.5,1.1,3.5,0.1,5c-0.7,1.1-1.3,2.3-1.3,3.5c0,1.1,0.3,1.2,0.8,2.2l1.5,2.8c0.4,0.8,0.7,1.9,0.9,3
				C144,622.6,144.1,623.4,144.1,624z" />
				<path class="st6" d="M139.6,599v0.6c0,0.3-0.3,0.6-0.6,0.6h-3.6c-0.1,0-0.2,0-0.3-0.1c-0.2-0.1-0.3-0.3-0.3-0.5V599
				c0-0.2,0.1-0.4,0.3-0.5c0.1,0,0.2-0.1,0.3-0.1h3.5C139.3,598.4,139.6,598.7,139.6,599z" />
			</g>
		</g>
	</g>
	<g>

		<ellipse transform="matrix(7.704927e-02 -0.997 0.997 7.704927e-02 -62.9943 908.1802)" class="st0" cx="459"
			cy="488.1" rx="7.7" ry="5.3" />
		<line class="st0" x1="458.5" y1="499.4" x2="458.8" y2="495.8" />
		<polyline class="st0" points="453.2,499.2 453.8,491.1 454,491.1 	" />
		<path class="st0" d="M453.2,499.2c-0.5,0.1-1.1,0.3-1.7,0.4c-2.7,0.6-6,1.5-7.8,2c-0.9,0.3-1.2,1.7-1,3.6c0,0.3,0,0.6,0.1,1
		c0,0.1,0,0.2,0,0.3c0.7,5.4,3.2,13.9,2.3,19.2c-0.8,5.1-2.6,8.7-4.1,11.2c-0.8,1.4-1.4,2.4-1.7,3.1c3.8,3,23.8,3.8,24.6,1.9
		c-0.3-0.7-1-2.5-1.6-5c-0.4-1.5-0.6-3.2-0.7-5" />
		<path class="st0" d="M462,525.1c0.7-5.7,2.1-11.2,2.1-11.2s3.8,11,9,13.4s19.9,1.5,19.9,1.5s1.2,2.1,1.8,2.1c0,0,1.1-1.6,2.5-1.5
		c1.3,0.1-0.2,2-0.2,2c0.7,0.1,4.4-0.7,5.2-1.9c0.8-1.3,0.5-2.3-1.4-3.1c-1.9-0.8-6.3-0.2-6.3-0.2s-16.5-1.9-19.1-4.1
		c-2.5-2.2-8.1-16-10.6-18.9c-1.4-1.7-4.3-3-6.4-3.8" />
		<path class="st0" d="M477.4,539.6c0,0-16.4-7.2-22.5-11.8c-6.1-4.6-16.3-24.7-10.7-25.5c4.4-0.6,11.1,18.1,14.4,20.5
		c3.8,2.7,20.3,14.3,20.3,14.3s7.9,1.9,8.3,4.7c0.5,2.7-3.9,3.4-4.6,3.3s1.4-1.2,0.2-2s-3.6-0.6-4.2-2
		C478.1,539.7,477.4,539.6,477.4,539.6z" />
		<path class="st0" d="M439.3,540c0,0-12,33.8-17.4,35.4c-5.5,1.6-1.1-3.4-31.9-1.8c-1.9,0.1-0.3,4-0.3,4s27.9,10.2,36.1,8.1
		c8.2-2,29.6-37.8,29.6-37.8" />
		<path class="st0" d="M463.9,541.9c0,0,4.1,41.7,4.5,45.8c1.1,11.4,2,42.9,2,42.9s-4.2,1.5-4.7,0.3c-14.7-33.9-7.8-38-8.7-42.8
		c-1-4.8-5.4-33.8-5.4-33.8" />
		<path class="st0" d="M465.7,631.6l-0.5,6l17.3,0.7c0,0-4.9-5.7-12.1-7.6" />
		<path class="st0" d="M389.7,573.7l-4.3-1.1l-3.1,14.5c0,0,6.9-3.5,7.4-9.4" />
		<path class="st0" d="M443,509.6c0,0-5.9-1.8-6.2-5.8c-0.4-4,5.9-6.9,6-8.9s-1.6-4.8-0.8-6.7c0.8-1.9,4.9-2.3,6.3-3.5
		c1.4-1.2,1-4.6,2.5-5.8c1.4-1.2,2.7,0.2,4.7-0.3c2-0.5,2.9-3.1,5.5-2.2s5.1,3.1,5.6,5.1c0.5,2-1,4.6-0.5,6.6c0.5,2,3,4.2,3.5,6.9
		c0.5,2.7-2.4,4.5-2.5,6.5c-0.2,2,2.4,3.5,2.2,5.5s-0.9,2.4-0.9,2.4" />
		<path class="st0"
			d="M453.7,487.6c-0.2,0.1-0.4,0.1-0.6,0c-0.7-0.2-1.1-1.1-0.9-2s1-1.5,1.7-1.3c0.2,0,0.3,0.1,0.5,0.3" />
		<path class="st0" d="M451.4,499.6c0,0,4.6,5.7,8.3,0.6" />
		<path class="st0" d="M462.5,482c0,0-1.5,4.7-8.1,3.3" />
		<circle class="st0" cx="421.7" cy="638.2" r="9.3" />
		<circle class="st0" cx="421.7" cy="638.2" r="4" />
		<circle class="st0" cx="499.9" cy="638.2" r="15.7" />
		<circle class="st0" cx="499.9" cy="638.2" r="6.7" />
		<polyline class="st0" points="422.1,637.9 500.2,638.6 492.9,534.5 	" />
		<line class="st0" x1="497.7" y1="529.7" x2="485.8" y2="539.9" />
		<line class="st0" x1="503.6" y1="524.6" x2="501.3" y2="526.6" />
		<line class="st0" x1="482.2" y1="543" x2="479.3" y2="545.5" />
	</g>
	<g>
		<path class="st1" d="M896.7,262.2c0.1,0.4,0.1,0.7,0.2,1.1c0.1,2.2-1.1,4-2.6,4c-1.5,0.1-2.7-1.6-2.8-3.6c0-0.1,0-0.1,0-0.2
		c0-0.6,0-1.1,0.2-1.6" />
		<line class="st1" x1="894.1" y1="267.4" x2="894.2" y2="269.3" />
		<polyline class="st1" points="896.7,265.1 896.8,265.1 896.9,269.2 	" />
		<path class="st1" d="M894.2,269.3c-1.1,0.4-2.6,1-3.3,1.8c-1.3,1.4-4.5,8.3-5.8,9.4c-1.3,1.1-1.9-10.9-1.9-10.9s2-1.8,2-3.1
		c0-0.1-1.9,0.4-1.9,0.3c0-1.5-0.1-3.4-1.7-3.4c-2.1,0-0.5,6.1-0.5,6.1s-1.5,15.3,5.1,13.6c2.8-0.7,4.9-6.6,4.9-6.6
		s-0.3,13.8-0.5,14.3c0.4,1,10.6,1,12.6-0.4c-0.4-1-0.6-13.2-0.6-13.2c2,1,4.6,2.2,5.3,4.2c0.8,2.3-4.6,6.4-4.6,6.4s1.1,4.2,2.4,3.8
		c1.5-0.5-0.5-3.1-0.5-3.1s7.1-4.5,5.8-8.2c-1.4-3.6-9.1-9.6-9.1-9.6c-1.1-0.4-3.4-1-4.8-1.5" />
		<path class="st1" d="M890.9,290.9c0,0-0.4,21.4-0.4,23.5c-0.1,5.9,0.7,22,0.7,22s2.2,0.6,2.4,0c6.2-17.9,2.4-19.7,2.7-22.1
		c0.3-2.5,0.6-16,0.6-16" />
		<path class="st1" d="M893.6,336.7l0.5,3l-9.5,0.4c0,0,2.9-2.5,6.5-3.7" />
		<path class="st1" d="M896.9,297.7c0,0,0.6,14.7,0.7,16.8c0.3,5.9,2.2,21.9,2.2,21.9s2.2,0.5,2.4-0.2c5-18.2,1.1-19.8,1.2-22.3
		c0.1-2.5-0.3-23.4-0.3-23.4" />
		<path class="st1" d="M902.2,336.5l0.7,3l-9.5,0.1c0,0,2.9-1.8,6.4-3.3" />
		<path class="st1"
			d="M896.6,261.8c0.1-0.1,0.1-0.1,0.2-0.1c0.4-0.1,0.7,0.2,0.8,0.7c0.1,0.5-0.1,0.9-0.5,1c-0.1,0-0.2,0-0.3,0" />
		<path class="st1" d="M897.8,269.5c0,0-2.5,2.8-4.3,0.1" />
		<path class="st1" d="M891.6,262c0,0,0.1-0.1,0.2-0.1c0.6-0.3,4.1-1,4.6,0c0.1,0.2,0.2,0.3,0.4,0.4c0.9,0.5,2.4-1.1,0.7-2.4
		c-1.5-1.1-7.2-2-7.2,0c0,2,1.1,3.8,1.2,3.9c0,0,0,0,0,0" />
	</g>
	<g>
		<g>
			<circle class="st0" cx="150.2" cy="547.3" r="3.6" />
			<polyline class="st0" points="150.4,562.5 150.3,558.9 150.2,558.2 170.5,558.2 188,558.3 		" />
			<line class="st0" x1="194.2" y1="639" x2="168.9" y2="638.9" />
			<polyline class="st0" points="153.7,546.8 224.6,546.9 224.6,551.5 		" />
			<polyline class="st0" points="150.2,550.9 150.2,550.9 150.2,558.2 170.5,558.2 188,558.3 		" />
			<path class="st0" d="M153.7,546.8l70.9,0.1v-1.4c0-3.7-3-6.7-6.7-6.7l-67.7-0.1l0,5.1" />
			<line class="st0" x1="170.5" y1="620.5" x2="170.5" y2="617.6" />
			<polyline class="st0" points="170.5,558.2 170.5,558.2 170.5,562.8 		" />
			<g>
				<polygon class="st6" points="191.2,585.8 188.6,581.5 182.5,581.5 179.3,587 183.9,589.7 185.6,586.8 186.6,588.5 184.8,589.5 
				191.2,591.2 192.9,584.8 			" />
				<polyline class="st6" points="186.6,588.5 185.6,586.8 182.5,581.5 188.6,581.5 191.2,585.8 			" />
			</g>
			<g>
				<polygon class="st6" points="176,593 173.4,597.3 176.5,602.6 182.9,602.6 182.9,597.3 179.6,597.3 180.6,595.6 182.3,596.6 
				180.6,590.2 174.2,591.9 			" />
				<polyline class="st6" points="180.6,595.6 179.6,597.3 176.5,602.6 173.4,597.3 176,593 			" />
			</g>
			<g>
				<polyline class="st6" points="192.1,593.1 189.9,594.3 191.6,597.2 189.6,597.2 189.6,595.2 184.9,599.9 189.6,604.6 
				189.6,602.5 192.5,602.5 			" />
				<line class="st6" x1="192.5" y1="602.5" x2="189.6" y2="602.5" />
				<polyline class="st6" points="189.6,597.2 191.6,597.2 192.3,597.2 			" />
			</g>
		</g>
	</g>
	<path class="st7" d="M899,538c8.6-10.3,20.1-19.9,34.1-28.6" />
	<line class="st7" x1="933.2" y1="581.5" x2="899" y2="581.5" />
	<line class="st7" x1="1240.5" y1="581.5" x2="1214.8" y2="581.5" />
	<line class="st7" x1="1356.7" y1="581.5" x2="1336.9" y2="581.5" />
	<path class="st7" d="M1298.5,484.5C1298.5,484.5,1298.5,484.5,1298.5,484.5" />
	<path class="st7" d="M1350.6,508.3c13.3,8.1,24.4,16.9,33.1,26.4" />
	<line class="st7" x1="1301.7" y1="485.6" x2="1301.7" y2="485.6" />
	<line class="st7" x1="1277.6" y1="478" x2="1277.6" y2="478" />
	<path class="st7" d="M1249.5,471.2c-11.2-2.3-22.8-4.3-34.7-5.9" />
	<line class="st7" x1="1089.2" y1="581.5" x2="1061.6" y2="581.5" />
	<g>
		<rect x="1249.5" y="490.5" class="st8" width="101.2" height="23" />
		<rect x="1249.5" y="467.5" class="st8" width="101.2" height="23" />
		<rect x="1249.5" y="444.5" class="st8" width="101.2" height="23" />
		<path class="st8" d="M1256.6,444.5c0,0-4-7.2,1.1-11.2c5.1-4.1,7,0.7,12.8-1.5c6.6-2.6,4.7-7.4,11.8-11.8
		c6.6-4.1,17.4-1.5,25.6,3.1c6.8,3.8,0.5,10.2,9.2,12.3c8,1.9,7.7-4.1,16.4-2.6c8.7,1.5,12,11.8,12,11.8" />
		<line class="st8" x1="1252.7" y1="472.7" x2="1252.8" y2="486.4" />
		<polyline class="st8" points="1258.1,473.2 1252.7,479.6 1259.7,485.7 	" />

		<ellipse transform="matrix(0.9992 -3.928126e-02 3.928126e-02 0.9992 -17.832 50.1218)" class="st8" cx="1266.6"
			cy="478.8" rx="4.8" ry="6.2" />

		<ellipse transform="matrix(0.9992 -3.928126e-02 3.928126e-02 0.9992 -17.8311 51.4843)" class="st8" cx="1301.2"
			cy="479.5" rx="4.8" ry="6.2" />
		<path class="st8"
			d="M1342.2,480.9c0.5,0.2,1,0.2,1.6,0.2c2.7-0.1,4.7-2.3,4.6-5c-0.1-2.6-2.3-4.7-5-4.6c-0.4,0-0.9,0.1-1.3,0.2" />
		<path class="st8"
			d="M1318.1,483.6c-0.8,1-1.9,1.7-3.2,1.7c-2.7,0.1-4.9-2.6-5.1-6s1.9-6.2,4.6-6.3c1.1,0,2.1,0.4,2.9,1.1" />
		<polyline class="st8" points="1273.8,485.8 1273.7,472.1 1278.5,479.4 1282,471.5 1283.4,486.7 	" />
		<polyline class="st8" points="1285.5,486.7 1285.1,472.7 1293.5,472.8 1293.9,486.7 	" />
		<line class="st8" x1="1318.6" y1="473.2" x2="1329.6" y2="472.9" />
		<line class="st8" x1="1324.4" y1="484.8" x2="1324.1" y2="473.1" />
		<polyline class="st8" points="1339.5,484.8 1332.6,485.5 1332.4,473.1 1339.3,472.4 	" />
		<line class="st8" x1="1337.4" y1="477.7" x2="1332.5" y2="478" />
		<polyline class="st8" points="1342.3,485 1342.2,480.9 1342.2,471.7 	" />
	</g>
</svg>