<?xml version="1.0" encoding="utf-8"?>
<!-- Generator: Adobe Illustrator 24.1.2, SVG Export Plug-In . SVG Version: 6.00 Build 0)  -->
<svg version="1.1" id="Слой_1" xmlns="http://www.w3.org/2000/svg" xmlns:xlink="http://www.w3.org/1999/xlink" x="0px" y="0px"
	 viewBox="0 0 1117 613" style="enable-background:new 0 0 1117 613;" xml:space="preserve">
<style type="text/css">
	.st0{fill:none;stroke:#8DBA43;stroke-width:5;stroke-linecap:round;stroke-linejoin:round;stroke-miterlimit:10;}
	.st1{fill:none;stroke:#8DBA43;stroke-width:2;stroke-linecap:round;stroke-linejoin:round;stroke-miterlimit:10;}
	.st2{fill:none;stroke:#8DBA43;stroke-width:1.5;stroke-linecap:round;stroke-linejoin:round;stroke-miterlimit:10;}
	.st3{fill:none;stroke:#8DBA43;stroke-linecap:round;stroke-linejoin:round;stroke-miterlimit:10;}
	.st4{fill:none;stroke:#8DBA43;stroke-width:0.708;stroke-linecap:round;stroke-linejoin:round;stroke-miterlimit:10;}
	.st5{fill:none;stroke:#8DBA43;stroke-width:0.6994;stroke-linecap:round;stroke-linejoin:round;stroke-miterlimit:10;}
	.st6{fill:none;stroke:#8DBA43;stroke-width:0.5;stroke-linecap:round;stroke-linejoin:round;stroke-miterlimit:10;}
	.st7{fill:none;stroke:#8DBA43;stroke-width:0.6604;stroke-linecap:round;stroke-linejoin:round;stroke-miterlimit:10;}
	.st8{fill:none;stroke:#8DBA43;stroke-width:0.8353;stroke-linecap:round;stroke-linejoin:round;stroke-miterlimit:10;}
	.st9{fill:none;stroke:#8DBA43;stroke-width:4;stroke-linecap:round;stroke-linejoin:round;stroke-miterlimit:10;}
	.st10{fill:none;stroke:#8DBA43;stroke-width:3;stroke-linecap:round;stroke-linejoin:round;stroke-miterlimit:10;}
</style>
<g>
	<polyline class="st0" points="202.8,255.6 202.8,133.3 283.4,133.3 295.9,133.3 308.5,133.3 331.3,133.3 	"/>
	<polyline class="st0" points="712.4,133.3 763.3,133.3 769.5,133.3 887.8,133.3 887.8,248.1 	"/>
	<polyline class="st0" points="887.8,274.4 887.8,569.3 202.8,569.3 202.8,288.2 	"/>
	<line class="st0" x1="672" y1="133.3" x2="433.2" y2="133.3"/>
	<polyline class="st0" points="217.8,243.6 217.8,148.3 316.4,148.3 389.5,148.3 	"/>
	<polyline class="st0" points="697.4,148.3 872.8,148.3 872.8,243.6 	"/>
	<polyline class="st0" points="872.8,273 872.8,554.3 217.8,554.3 217.8,276.7 	"/>
	<line class="st0" x1="659.3" y1="148.3" x2="448.3" y2="148.3"/>
	<rect x="146.3" y="598.8" class="st0" width="798" height="14"/>
	<polygon class="st0" points="202.3,569.8 888.3,569.8 944.3,598.3 146.3,598.3 	"/>
	<polygon class="st1" points="463.4,584.6 627.2,584.6 640.6,591.4 450,591.4 	"/>
	<g>
		<g>
			<polyline class="st2" points="320.3,346.8 320.3,295.9 381.1,295.9 381.1,319.4 			"/>
			<polyline class="st2" points="320.3,390.9 320.3,397.2 343,397.2 			"/>
			<line class="st2" x1="381.1" y1="331.3" x2="381.1" y2="331.2"/>
			<rect x="327.2" y="303.9" class="st3" width="11.9" height="13.3"/>
			<rect x="345.1" y="303.9" class="st3" width="11.9" height="13.3"/>
			<rect x="363" y="303.9" class="st3" width="11.9" height="13.3"/>
			<polyline class="st3" points="339.1,331.3 339.1,335.2 327.2,335.2 327.2,321.8 334.8,321.8 			"/>
			<rect x="327.2" y="339.7" class="st3" width="11.9" height="13.3"/>
			<polyline class="st3" points="330.6,370.9 339.1,370.9 339.1,357.6 327.2,357.6 327.2,359.5 			"/>
			<polyline class="st3" points="331,375.5 339.1,375.5 339.1,388.8 327.2,388.8 327.2,386.5 			"/>
		</g>
		<g>
			<polyline class="st2" points="394.9,323.8 478.8,323.8 478.8,368.4 			"/>
			<polyline class="st2" points="391.1,331.3 391.1,397.3 430.5,397.3 			"/>
			<path class="st2" d="M394.9,323.8h83.9h3.7c0.4,0,0.5-0.4,0.3-0.7l-24-24c-0.1-0.1-0.2-0.1-0.3-0.1l-48.6,0c-0.1,0-0.2,0-0.3,0.1
				l-20.4,20.4"/>
			<rect x="455.3" y="331.8" class="st3" width="11.9" height="13.3"/>
			<rect x="437.4" y="331.8" class="st3" width="11.9" height="13.3"/>
			<rect x="419.6" y="331.8" class="st3" width="11.9" height="13.3"/>
			<rect x="401.7" y="331.8" class="st3" width="11.9" height="13.3"/>
			<rect x="455.3" y="353.3" class="st3" width="11.9" height="13.3"/>
			<rect x="437.4" y="353.3" class="st3" width="11.9" height="13.3"/>
			<rect x="419.6" y="353.3" class="st3" width="11.9" height="13.3"/>
			<rect x="401.7" y="353.3" class="st3" width="11.9" height="13.3"/>
			<polyline class="st3" points="455.3,375.5 455.3,374.7 457,374.7 			"/>
			<polyline class="st3" points="437.4,387.4 437.4,374.7 449.4,374.7 449.4,378.5 			"/>
			<rect x="419.6" y="374.7" class="st3" width="11.9" height="13.3"/>
			<rect x="401.7" y="374.7" class="st3" width="11.9" height="13.3"/>
		</g>
		<g>
			<rect x="462.1" y="399.4" class="st1" width="135.9" height="114"/>
			<rect x="516.4" y="473.2" class="st1" width="27.4" height="40.2"/>
			<path class="st1" d="M490.8,379.5l-37.3,18.8c-0.4,0.4-0.1,1.1,0.4,1.1h149.8c0.6,0,0.8-0.7,0.4-1.1l-37.2-18.8
				c-0.1-0.1-0.3-0.2-0.4-0.2l-75.3,0C491,379.3,490.9,379.4,490.8,379.5z"/>
			<rect x="561.7" y="411.9" class="st2" width="18.5" height="20.7"/>
			<rect x="534" y="411.9" class="st2" width="18.5" height="20.7"/>
			<rect x="506.3" y="411.9" class="st2" width="18.5" height="20.7"/>
			<rect x="478.6" y="411.9" class="st2" width="18.5" height="20.7"/>
			<rect x="561.7" y="445.2" class="st2" width="18.5" height="20.7"/>
			<rect x="534" y="445.2" class="st2" width="18.5" height="20.7"/>
			<rect x="506.3" y="445.2" class="st2" width="18.5" height="20.7"/>
			<rect x="478.6" y="445.2" class="st2" width="18.5" height="20.7"/>
			<rect x="561.7" y="478.4" class="st2" width="18.5" height="20.7"/>
			<rect x="478.6" y="478.4" class="st2" width="18.5" height="20.7"/>
		</g>
		<g>
			<polyline class="st2" points="534.2,370.5 548.1,370.5 548.1,336.9 548.1,329.1 498.7,329.1 498.7,345.4 498.7,366.4 			"/>
			<polyline class="st2" points="504.1,366.3 504.1,344.6 522.5,344.6 522.5,368 			"/>
			<polygon class="st2" points="523.9,315.2 495.5,329.1 552.3,329.1 			"/>
			<g>
				<rect x="527.8" y="341.8" class="st3" width="6.9" height="6.6"/>
				<rect x="535.9" y="341.8" class="st3" width="6.9" height="6.6"/>
				<rect x="527.8" y="349.5" class="st3" width="6.9" height="6.6"/>
				<rect x="535.9" y="349.5" class="st3" width="6.9" height="6.6"/>
			</g>
		</g>
		<g>
			<path class="st2" d="M295.8,364.2c4.8-15.6,16.6-27.2,16.6-27.2s0.3,0.3,0.8,0.9c2.9,3,12.3,13.8,16.5,28.9
				c4.3,15.8-2.8,25.1-16.9,25.2c-0.1,0-0.1,0-0.2,0c-5.5,0-10-1.4-13.2-4.1"/>
			<line class="st2" x1="312.8" y1="350.4" x2="312.8" y2="417.2"/>
			<path class="st2" d="M303.3,360.2c0,0,1.7,14.3,9.1,19.7"/>
			<path class="st2" d="M324.9,370c0,0-2.7,13.8-12.1,19"/>
			<path class="st2" d="M319,355.8c0,0-0.4,6.3-5.9,10"/>
			<path class="st2" d="M299.4,367.6c0,0,1.7,2.8,6.5,3.7"/>
			<path class="st2" d="M308.4,352.7c0,0,1.1,3.5,4.1,5"/>
		</g>
		<g>
			<path class="st1" d="M761.5,477.2c-6.5,0-11.7-1.8-15.3-5.3c-4.8-4.7-6.4-12.3-3.9-22.3c4.6-18.5,18.9-32.6,18.9-32.6
				s0.3,0.3,0.9,0.9c3.1,3.3,13.5,15.1,18,31.6C785,467,777.1,477.2,761.5,477.2z"/>
			<line class="st1" x1="761.8" y1="431.7" x2="761.8" y2="504.8"/>
			<path class="st1" d="M751.4,442.4c0,0,1.9,15.6,10,21.6"/>
			<path class="st1" d="M775,453.1c0,0-3,15.1-13.2,20.8"/>
			<path class="st1" d="M768.5,437.6c0,0-0.5,6.9-6.4,11"/>
			<path class="st1" d="M747.1,450.5c0,0,1.9,3.1,7.1,4.1"/>
			<path class="st1" d="M756.9,434.3c0,0,1.2,3.8,4.5,5.5"/>
		</g>
		<g>
			<path class="st1" d="M804.1,482.7c-5.1,0-9.2-1.4-12-4.2c-3.7-3.7-5-9.6-3.1-17.5c3.6-14.5,14.9-25.6,14.9-25.6s0.3,0.2,0.7,0.7
				c2.5,2.6,10.6,11.9,14.2,24.8C822.5,474.7,816.3,482.7,804.1,482.7z"/>
			<line class="st1" x1="804.3" y1="447" x2="804.3" y2="504.4"/>
			<path class="st1" d="M796.1,455.4c0,0,1.5,12.3,7.9,16.9"/>
			<path class="st1" d="M814.7,463.8c0,0-2.3,11.8-10.4,16.3"/>
			<path class="st1" d="M809.6,451.7c0,0-0.4,5.4-5.1,8.6"/>
			<path class="st1" d="M792.8,461.8c0,0,1.5,2.4,5.6,3.2"/>
			<path class="st1" d="M800.4,449c0,0,0.9,3,3.5,4.3"/>
		</g>
		<g>
			<path class="st2" d="M278.5,401.9c-7,0-12.6-2-16.4-5.7c-5.1-5-6.9-13.1-4.2-23.9c5-19.8,20.3-34.9,20.3-34.9s0.4,0.3,1,1
				c3.4,3.5,14.5,16.2,19.3,33.9C303.6,390.9,295.2,401.9,278.5,401.9z"/>
			<line class="st2" x1="278.8" y1="353.1" x2="278.8" y2="431.5"/>
			<path class="st2" d="M267.7,364.6c0,0,2,16.7,10.7,23.1"/>
			<path class="st2" d="M292.9,376.1c0,0-3.2,16.2-14.2,22.3"/>
			<path class="st2" d="M286,359.5c0,0-0.5,7.4-6.9,11.7"/>
			<path class="st2" d="M263.1,373.3c0,0,2,3.3,7.7,4.3"/>
			<path class="st2" d="M273.5,355.9c0,0,1.3,4.1,4.8,5.9"/>
		</g>
		<g>
			<g>
				<path class="st2" d="M568.4,297.7c-1.7-0.2-3-1.2-3-7.2c0-6.8,1.7-17.3,3.7-17.3v24.3"/>
				<path class="st2" d="M568.2,300.4c0.7,1.6,0.5,3.2-4.7,6.2c-5.9,3.4-15.8,7.2-16.8,5.4l21.1-12.2"/>
				<path class="st2" d="M570.8,299.2c1-1.3,2.6-1.9,7.7,1.1c5.9,3.4,14.1,10.1,13.1,11.9l-21-12.1"/>
			</g>
			<circle class="st2" cx="569.1" cy="299.1" r="1.6"/>
			<polyline class="st2" points="569.5,300.7 570.4,368.2 567.8,368.2 568.8,300.7 			"/>
		</g>
		<g>
			<g>
				<path class="st2" d="M644.8,287.3c-1.7-0.2-3-1.2-3-7.2c0-6.8,1.7-17.3,3.7-17.3v24.3"/>
				<path class="st2" d="M644.6,290c0.7,1.6,0.5,3.2-4.7,6.2c-5.9,3.4-15.8,7.2-16.8,5.4l21.1-12.2"/>
				<path class="st2" d="M647.2,288.8c1-1.3,2.6-1.9,7.7,1.1c5.9,3.4,14.1,10.1,13.1,11.9l-21-12.1"/>
			</g>
			<circle class="st2" cx="645.5" cy="288.7" r="1.6"/>
			<polyline class="st2" points="645.9,290.3 646.8,357.8 644.3,357.8 645.2,290.3 			"/>
		</g>
		<g>
			<g>
				<path class="st2" d="M680,308.6c-1.7-0.2-3-1.2-3-7.2c0-6.8,1.7-17.3,3.7-17.3v24.3"/>
				<path class="st2" d="M679.8,311.4c0.7,1.6,0.5,3.2-4.7,6.2c-5.9,3.4-15.8,7.2-16.8,5.4l21.1-12.2"/>
				<path class="st2" d="M682.4,310.1c1-1.3,2.6-1.9,7.7,1.1c5.9,3.4,14.1,10.1,13.1,11.9l-21-12.1"/>
			</g>
			<circle class="st2" cx="680.7" cy="310.1" r="1.6"/>
			<polyline class="st2" points="679.7,364.5 679.7,364.2 680.4,311.7 680.4,311.7 			"/>
			<line class="st2" x1="681.8" y1="364.2" x2="681.1" y2="311.7"/>
		</g>
		<g>
			<g>
				<path class="st2" d="M609.3,300.7c-2-0.2-3.5-1.4-3.5-8.3c0-7.8,1.9-20,4.3-20v28.1"/>
				<path class="st2" d="M609.1,303.9c0.8,1.8,0.6,3.7-5.4,7.2c-6.8,3.9-18.3,8.3-19.5,6.3l24.4-14.1"/>
				<path class="st2" d="M612.1,302.4c1.2-1.6,3-2.1,8.9,1.2c6.8,3.9,16.4,11.7,15.2,13.7l-24.3-14"/>
			</g>
			<circle class="st2" cx="610.2" cy="302.4" r="1.9"/>
			<polyline class="st2" points="610.6,304.2 611.7,382.2 608.7,382.2 609.7,304.2 			"/>
		</g>
		<path class="st4" d="M609.3,338.9c-3.1-0.4-6.3-0.8-9.5-1.2"/>
		<path class="st4" d="M594.6,337.2c-8-0.7-16.2-1.1-24.6-1.1"/>
		<path class="st4" d="M646.7,347.4c10.7,3.6,20,7.9,27.2,12.8c2,1.3,3.8,2.6,5.4,4c0.1,0.1,0.2,0.2,0.3,0.2"/>
		<line class="st4" x1="612.4" y1="386.8" x2="581.2" y2="386.8"/>
		<path class="st4" d="M611.1,339.1c12.1,1.8,23.3,4.4,33.3,7.5"/>
		<path class="st4" d="M568.3,336.2c-6.9,0-13.6,0.3-20.2,0.8"/>
		<path class="st4" d="M498.7,345.4c-7.3,2.1-14,4.5-20,7.2"/>
		<line class="st5" x1="677.8" y1="458.1" x2="666.2" y2="458.1"/>
		<line class="st5" x1="612.4" y1="458.1" x2="598.1" y2="458.1"/>
		<path class="st2" d="M555.5,379.3c-13.4-8-32.5-13-53.8-13c-8,0-15.7,0.7-22.9,2c-7.9,1.4-15.3,3.6-21.7,6.4
			c-0.6,0.2-1.1,0.5-1.7,0.8c-2.1,0.9-4.1,2-6,3c-4.7,2.6-8.7,5.6-11.9,8.9c-3.1,3.1-5.4,6.4-7,9.9c-1.4,3.1-2.1,6.4-2.1,9.7h33.8"
			/>
		<path class="st2" d="M385.1,408.3c5.4-1.5,11.3-2.4,17.5-2.4c26,0,47.1,15,47.1,33.5h-21.8h-1.6H422"/>
		<line class="st2" x1="406.1" y1="439.5" x2="385.1" y2="439.5"/>
		<line class="st2" x1="418.9" y1="439.5" x2="415" y2="439.5"/>
		<path class="st2" d="M343,438.4h-91.5c0-18.5,21.1-33.5,47.1-33.5c20.4,0,37.8,9.2,44.3,22.1"/>
		<path class="st1" d="M357.6,467.3c3.6-0.1,7.2-0.1,10.8-0.1c15.6,0,30.6,0.8,44.7,2.3"/>
		<path class="st1" d="M264.7,481.5c-24.6,8.3-39.6,19.5-39.6,31.9h237h49.6"/>
		<path class="st1" d="M418.1,470c4.1,0.5,8.1,1,12.1,1.6c11.6,1.8,22.3,4.1,32,6.7"/>
		<path class="st1" d="M743.1,467.5c-4.2-0.2-8.4-0.3-12.7-0.4"/>
		<path class="st1" d="M598.1,513.2h14.3h33.2h51.5h33.2h135.1c0-13.9-19-26.4-49.2-34.8h0"/>
		<path class="st1" d="M788.6,472.3c-3.5-0.6-7-1.1-10.7-1.6"/>
		<path class="st1" d="M598.1,490.1c4.2-2.3,9-4.5,14.3-6.6"/>
		<polyline class="st6" points="416,260.3 417.3,229.1 426.9,229.1 428.2,260.3 		"/>
		<polyline class="st6" points="308.5,341.4 308.5,234.7 335.3,234.7 335.3,245.4 		"/>
		<polyline class="st6" points="353.1,261.6 394,261.6 395,237.5 404.7,237.5 406,268.9 411.6,268.9 		"/>
		<polyline class="st6" points="437.8,268.9 446.4,268.9 446.4,215.5 499.6,215.5 499.6,232.4 532.9,232.4 532.9,249.2 563.3,249.2 
			563.3,225.9 595.2,225.9 595.2,256.5 602.7,256.5 602.7,223.8 634.5,223.8 634.5,260.3 		"/>
		<g>
			<rect x="612.4" y="364.2" class="st1" width="118" height="149.1"/>
			<polyline class="st2" points="645.6,462.7 648.8,462.7 652.6,462.7 666.2,462.7 677.8,462.7 690.2,462.7 695.1,462.7 
				697.1,462.7 			"/>
			<polyline class="st1" points="645.6,474.2 645.6,513.4 697.1,513.4 697.1,474.2 			"/>
			<polyline class="st2" points="652.6,462.7 666.2,462.7 677.8,462.7 690.2,462.7 			"/>
			<polyline class="st2" points="690.2,474.2 690.2,490.4 652.6,490.4 652.6,474.2 			"/>
			<polygon class="st1" points="701.5,474.2 641.2,474.2 645.6,462.7 697.1,462.7 			"/>
			<rect x="625.7" y="378.5" class="st2" width="23.1" height="25.9"/>
			<rect x="660.4" y="378.5" class="st2" width="23.1" height="25.9"/>
			<rect x="695.1" y="378.5" class="st2" width="23.1" height="25.9"/>
			<rect x="625.7" y="413.3" class="st2" width="23.1" height="25.9"/>
			<rect x="660.4" y="413.3" class="st2" width="23.1" height="25.9"/>
			<rect x="660.4" y="448.2" class="st2" width="23.1" height="9.4"/>
			<rect x="695.1" y="413.3" class="st2" width="23.1" height="25.9"/>
			<polyline class="st2" points="641.4,473.8 625.7,473.8 625.7,447.9 648.8,447.9 648.8,462.7 			"/>
			<polyline class="st2" points="695.1,462.7 695.1,447.9 718.3,447.9 718.3,473.8 701.4,473.8 			"/>
			<path class="st2" d="M666.6,457.7"/>
			<line class="st2" x1="666.2" y1="457.7" x2="666.2" y2="462.7"/>
			<line class="st2" x1="677.8" y1="457.7" x2="677.8" y2="462.7"/>
		</g>
		<polyline class="st3" points="607.8,276.2 572.3,276.2 572.3,271 543.4,271 543.4,262.8 504.6,258.2 504.6,277.3 476.8,277.3 
			476.8,246.5 450.6,246.5 450.6,277.3 437.8,277.3 437.8,260.3 411.6,260.3 411.6,276.1 353.1,283.1 353.1,245.4 335.3,245.4 
			313.5,245.4 313.5,338.2 		"/>
		<polyline class="st3" points="673.9,360.2 673.9,318.3 673.9,314 673.9,260.3 611.5,260.3 611.5,276.2 610.1,276.2 		"/>
		<g>
			<rect x="343" y="331.2" class="st2" width="42.1" height="120.2"/>
			<rect x="334.8" y="319.4" class="st2" width="60.1" height="11.9"/>
			<rect x="349.5" y="375.6" class="st3" width="11.6" height="12.9"/>
			<rect x="366.8" y="375.6" class="st3" width="11.6" height="12.9"/>
			<rect x="349.5" y="358.3" class="st3" width="11.6" height="12.9"/>
			<rect x="366.8" y="358.3" class="st3" width="11.6" height="12.9"/>
			<rect x="349.5" y="339.7" class="st3" width="11.6" height="12.9"/>
			<rect x="366.8" y="339.7" class="st3" width="11.6" height="12.9"/>
			<rect x="349.5" y="392.9" class="st3" width="11.6" height="12.9"/>
			<rect x="366.8" y="392.9" class="st3" width="11.6" height="12.9"/>
			<rect x="349.5" y="410.3" class="st3" width="11.6" height="12.9"/>
			<rect x="366.8" y="410.3" class="st3" width="11.6" height="12.9"/>
			<rect x="349.5" y="427.6" class="st3" width="11.6" height="12.9"/>
			<rect x="366.8" y="427.6" class="st3" width="11.6" height="12.9"/>
		</g>
		<g>
			<g>
				<circle class="st2" cx="326.5" cy="463.4" r="1.5"/>
				<path class="st2" d="M329.7,501.6c-1-0.4-1.7-1.3-1.7-2.4l-1.5-30.9l0-0.3l30.2,0l-0.1,1.9l-2.1,29.4c-0.1,1.4-1.3,2.5-2.7,2.5
					h-0.2"/>
				<polyline class="st2" points="349,501.8 349,501.8 332.1,501.8 				"/>
				<path class="st2" d="M326.5,464.9l0,3.1l30.1,0c0.6,0,1.1-0.5,1.1-1.1l0-3.7l-29.7,0"/>
				<path class="st2" d="M328,463.2l29.7,0v-0.6c0-1.6-1.3-2.8-2.8-2.8l-28.4,0l0,2.1"/>
				<circle class="st2" cx="330.8" cy="502.7" r="1.6"/>
				<circle class="st2" cx="350.3" cy="502.7" r="1.6"/>
				<line class="st2" x1="335" y1="468" x2="335" y2="494.1"/>
				<line class="st2" x1="347.8" y1="468" x2="347.8" y2="494.1"/>
				<polyline class="st6" points="339,485.4 336.8,484.7 345.6,479.7 344.7,487.2 340.6,486 				"/>
				<path class="st6" d="M344.6,481.3"/>
				<path class="st6" d="M340.1,487.2"/>
				<polygon class="st6" points="340.6,486 344.3,481.4 339,485.4 340.1,487.2 				"/>
				<line class="st6" x1="340.1" y1="487.2" x2="341" y2="486.1"/>
			</g>
		</g>
		<g>
			<g>
				<circle class="st2" cx="301.4" cy="449.2" r="1.5"/>
				<path class="st2" d="M326.4,487.6h0.2c0.3,0,0.6-0.1,0.9-0.1"/>
				<path class="st2" d="M331.1,459.8l0.3-4.1l0.1-1.9h-0.1c0,0,0,0,0,0l-8.7,0l-12.8,0l-8.5,0l0,0.3l0.3,5.8l0.1,1.4l0.1,1.8
					l0.1,1.7l0.1,2.2l0.7,15.3l0.1,2.7c0.1,1.1,0.8,2,1.7,2.4"/>
				<polyline class="st2" points="323.8,487.6 323.8,487.6 307,487.6 				"/>
				<path class="st2" d="M301.4,450.7l0,3.1l30.1,0c0.6,0,1.1-0.5,1.1-1.1l0-3.7l-29.7,0"/>
				<path class="st2" d="M302.8,448.9l29.7,0v-0.6c0-1.6-1.3-2.8-2.8-2.8l-28.4,0l0,2.1"/>
				<circle class="st2" cx="305.7" cy="488.5" r="1.6"/>
				<circle class="st2" cx="325.1" cy="488.5" r="1.6"/>
				<line class="st2" x1="309.8" y1="453.7" x2="309.8" y2="479.8"/>
				<line class="st2" x1="322.7" y1="453.7" x2="322.7" y2="479.8"/>
				<path class="st2" d="M320.3,467.1"/>
				<path class="st6" d="M318.2,475.9h-3.5c-0.3,0-0.5-0.2-0.5-0.5v-6.9c0-0.3,0.2-0.5,0.5-0.5h3.5c0.3,0,0.5,0.2,0.5,0.5v6.9
					C318.8,475.7,318.5,475.9,318.2,475.9z"/>
				<rect x="314.2" y="470.5" class="st6" width="4.6" height="2.9"/>
				<rect x="314.4" y="475.9" class="st6" width="4.2" height="0.6"/>
				<rect x="314.6" y="467.5" class="st6" width="3.8" height="0.4"/>
			</g>
		</g>
		<g>
			<g>
				<circle class="st2" cx="263.6" cy="453.8" r="1.5"/>
				<path class="st2" d="M288.7,492.2h0.2c1.4,0,2.6-1.1,2.7-2.5l0.5-7.5l0.6-8.9l0.9-13l0.1-1.9h-0.1c0,0,0,0,0,0l-8.7,0l-12.8,0
					l-8.5,0l0,0.3l1.5,30.9c0.1,1.1,0.8,2,1.7,2.4"/>
				<polyline class="st2" points="269.2,492.2 269.2,492.2 286.1,492.2 286.1,492.2 				"/>
				<path class="st2" d="M265.1,453.5l29.7,0l0,3.7c0,0.6-0.5,1.1-1.1,1.1c0,0,0,0,0,0l-8.7,0l-12.8,0l-8.5,0l0-3.1"/>
				<path class="st2" d="M265.1,453.5l29.7,0V453c0-1.6-1.3-2.8-2.8-2.8l-28.4,0l0,2.1"/>
				<path class="st2" d="M269.5,493.1c0,0.9-0.7,1.6-1.6,1.6c-0.9,0-1.6-0.7-1.6-1.6c0-0.4,0.2-0.8,0.4-1.1c0.3-0.3,0.7-0.5,1.1-0.5
					c0.5,0,1,0.3,1.3,0.7h0C269.4,492.4,269.5,492.7,269.5,493.1z"/>
				<path class="st2" d="M289,493.1c0,0.9-0.7,1.6-1.6,1.6c-0.9,0-1.6-0.7-1.6-1.6c0-0.3,0.1-0.7,0.3-0.9c0.3-0.4,0.8-0.7,1.3-0.7
					c0.5,0,1,0.3,1.3,0.7C288.9,492.4,289,492.8,289,493.1z"/>
				<line class="st2" x1="272.1" y1="458.3" x2="272.1" y2="484.4"/>
				<line class="st2" x1="285" y1="458.3" x2="285" y2="484.4"/>
				<g>
					<path class="st6" d="M281.7,475.9v3.7c0,0-0.5,0.5-0.6,0.5c-0.3-0.1-0.6-0.4-0.8-0.4c-0.4,0-1,0.4-1.3,0.4s-0.8-0.4-1.3-0.4
						c-0.3,0-0.5,0.3-0.8,0.4c-0.2,0.1-0.9-0.5-0.9-0.5v-3.7l0.1-1c0.1-0.5,0.2-0.9,0.4-1.3l0.6-1.2c0.5-0.9,0.3-1.5-0.3-2.4
						c-0.2-0.3-0.3-0.7-0.3-1c0-0.4,0.1-0.8,0.3-1.1l1.1-1.2l0,0c0.1-0.1,0.1-0.2,0.1-0.4v-0.6h1.4v0.6c0,0.1,0.1,0.3,0.2,0.4
						l1.1,1.2c0.4,0.6,0.5,1.5,0,2.1c-0.3,0.5-0.6,1-0.6,1.5c0,0.5,0.1,0.5,0.3,0.9l0.6,1.2c0.2,0.3,0.3,0.8,0.4,1.3
						C281.6,475.3,281.7,475.7,281.7,475.9z"/>
					<path class="st6" d="M279.8,465.4v0.3c0,0.1-0.1,0.2-0.2,0.2h-1.5c0,0-0.1,0-0.1,0c-0.1,0-0.1-0.1-0.1-0.2v-0.3
						c0-0.1,0-0.2,0.1-0.2c0,0,0.1,0,0.1,0h1.5C279.7,465.2,279.8,465.3,279.8,465.4z"/>
				</g>
			</g>
		</g>
		<g>
			
				<ellipse transform="matrix(7.704927e-02 -0.997 0.997 7.704927e-02 -35.9383 799.1357)" class="st2" cx="413.7" cy="419" rx="3.2" ry="2.2"/>
			<line class="st2" x1="413.4" y1="423.7" x2="413.6" y2="422.2"/>
			<polyline class="st2" points="411.2,423.6 411.5,420.2 411.6,420.2 			"/>
			<path class="st2" d="M411.2,423.6c-0.2,0.1-0.5,0.1-0.7,0.2c-1.1,0.3-2.5,0.6-3.3,0.9c-0.4,0.1-0.5,0.7-0.4,1.5
				c0,0.1,0,0.3,0,0.4c0,0,0,0.1,0,0.1c0.3,2.3,1.3,5.8,1,8.1c-0.3,2.1-1.1,3.7-1.7,4.7c-0.3,0.6-0.6,1-0.7,1.3
				c1.6,1.2,10,1.6,10.3,0.8c-0.1-0.3-0.4-1-0.7-2.1c-0.1-0.6-0.3-1.3-0.3-2.1"/>
			<path class="st2" d="M414.9,434.5c0.3-2.4,0.9-4.7,0.9-4.7s1.6,4.6,3.8,5.6s8.3,0.6,8.3,0.6s0.5,0.9,0.8,0.9c0,0,0.5-0.7,1-0.6
				c0.6,0-0.1,0.8-0.1,0.8c0.3,0,1.8-0.3,2.2-0.8c0.3-0.5,0.2-1-0.6-1.3s-2.7-0.1-2.7-0.1s-6.9-0.8-8-1.7c-1-0.9-3.4-6.7-4.4-7.9
				c-0.6-0.7-1.8-1.3-2.7-1.6"/>
			<path class="st2" d="M421.4,440.6c0,0-6.9-3-9.4-4.9c-2.5-1.9-6.8-10.4-4.5-10.7c1.8-0.3,4.6,7.6,6.1,8.6c1.6,1.1,8.5,6,8.5,6
				s3.3,0.8,3.5,1.9c0.2,1.1-1.6,1.4-1.9,1.4c-0.3,0,0.6-0.5,0.1-0.8c-0.5-0.3-1.5-0.3-1.8-0.8C421.7,440.6,421.4,440.6,421.4,440.6
				z"/>
			<path class="st2" d="M405.4,440.7c0,0-5,14.2-7.3,14.8c-2.3,0.7-0.4-1.4-13.4-0.8c-0.8,0-0.1,1.7-0.1,1.7s11.7,4.3,15.1,3.4
				c3.4-0.9,12.4-15.8,12.4-15.8"/>
			<path class="st2" d="M415.7,441.5c0,0,1.7,17.5,1.9,19.2c0.5,4.8,0.8,18,0.8,18s-1.7,0.6-2,0.1c-6.2-14.2-3.2-15.9-3.7-17.9
				s-2.3-14.2-2.3-14.2"/>
			<path class="st2" d="M416.4,479.1l-0.2,2.5l7.3,0.3c0,0-2.1-2.4-5.1-3.2"/>
			<path class="st2" d="M384.6,454.8l-1.8-0.5l-1.3,6.1c0,0,2.9-1.5,3.1-4"/>
			<path class="st2" d="M407,428c0,0-2.5-0.8-2.6-2.4c-0.1-1.7,2.5-2.9,2.5-3.7c0.1-0.8-0.7-2-0.3-2.8c0.3-0.8,2-1,2.6-1.5
				c0.6-0.5,0.4-1.9,1-2.4c0.6-0.5,1.1,0.1,2-0.1c0.9-0.2,1.2-1.3,2.3-0.9c1.1,0.4,2.1,1.3,2.4,2.1c0.2,0.9-0.4,1.9-0.2,2.8
				c0.2,0.9,1.3,1.8,1.5,2.9c0.2,1.1-1,1.9-1,2.7s1,1.5,0.9,2.3c-0.1,0.8-0.4,1-0.4,1"/>
			<path class="st2" d="M411.4,418.8c-0.1,0-0.2,0-0.3,0c-0.3-0.1-0.5-0.4-0.4-0.8c0.1-0.4,0.4-0.6,0.7-0.5c0.1,0,0.1,0.1,0.2,0.1"
				/>
			<path class="st2" d="M410.5,423.8c0,0,1.9,2.4,3.5,0.3"/>
			<path class="st2" d="M415.1,416.4c0,0-0.6,2-3.4,1.4"/>
			<circle class="st2" cx="398" cy="481.9" r="3.9"/>
			<circle class="st2" cx="398" cy="481.9" r="1.7"/>
			<circle class="st2" cx="430.8" cy="481.9" r="6.6"/>
			<circle class="st2" cx="430.8" cy="481.9" r="2.8"/>
			<polyline class="st2" points="398.2,481.7 430.9,482 427.8,438.4 			"/>
			<line class="st2" x1="429.9" y1="436.4" x2="424.9" y2="440.7"/>
			<line class="st2" x1="432.4" y1="434.3" x2="431.4" y2="435.1"/>
			<line class="st2" x1="423.4" y1="442" x2="422.2" y2="443"/>
		</g>
		<g>
			<path class="st3" d="M597.1,324.3c0,0.1,0.1,0.3,0.1,0.5c0,0.9-0.5,1.7-1.1,1.7c-0.6,0-1.1-0.7-1.2-1.5c0,0,0-0.1,0-0.1
				c0-0.2,0-0.5,0.1-0.7"/>
			<line class="st3" x1="596" y1="326.5" x2="596" y2="327.3"/>
			<polyline class="st3" points="597.1,325.5 597.1,325.5 597.2,327.3 			"/>
			<path class="st3" d="M596,327.3c-0.5,0.2-1.1,0.4-1.4,0.8c-0.6,0.6-1.9,3.5-2.4,3.9c-0.6,0.4-0.8-4.6-0.8-4.6s0.8-0.8,0.9-1.3
				c0-0.1-0.8,0.2-0.8,0.1c0-0.6-0.1-1.4-0.7-1.4c-0.9,0-0.2,2.6-0.2,2.6s-0.6,6.4,2.1,5.7c1.2-0.3,2-2.8,2-2.8s-0.1,5.8-0.2,6
				c0.2,0.4,4.4,0.4,5.3-0.2c-0.2-0.4-0.2-5.5-0.2-5.5c0.9,0.4,1.9,0.9,2.2,1.7c0.3,1-1.9,2.7-1.9,2.7s0.5,1.8,1,1.6
				c0.6-0.2-0.2-1.3-0.2-1.3s3-1.9,2.4-3.4c-0.6-1.5-3.8-4-3.8-4c-0.5-0.2-1.4-0.4-2-0.6"/>
			<path class="st3" d="M594.7,336.3c0,0-0.2,9-0.2,9.9c0,2.5,0.3,9.2,0.3,9.2s0.9,0.3,1,0c2.6-7.5,1-8.3,1.1-9.3s0.3-6.7,0.3-6.7"
				/>
			<path class="st3" d="M595.8,355.5l0.2,1.3l-4,0.2c0,0,1.2-1,2.7-1.6"/>
			<path class="st3" d="M597.2,339.2c0,0,0.2,6.2,0.3,7c0.1,2.5,0.9,9.2,0.9,9.2s0.9,0.2,1-0.1c2.1-7.6,0.5-8.3,0.5-9.3
				c0.1-1-0.1-9.8-0.1-9.8"/>
			<path class="st3" d="M599.4,355.4l0.3,1.3l-4,0.1c0,0,1.2-0.7,2.7-1.4"/>
			<path class="st3" d="M597,324.1c0,0,0.1,0,0.1-0.1c0.2,0,0.3,0.1,0.4,0.3c0,0.2,0,0.4-0.2,0.4c0,0-0.1,0-0.1,0"/>
			<path class="st3" d="M597.5,327.4c0,0-1,1.2-1.8,0.1"/>
			<path class="st3" d="M595,324.2C595,324.2,595,324.2,595,324.2c0.3-0.2,1.8-0.5,2,0c0,0.1,0.1,0.1,0.1,0.2c0.4,0.2,1-0.5,0.3-1
				c-0.6-0.5-3-0.9-3,0c0,0.8,0.5,1.6,0.5,1.6c0,0,0,0,0,0"/>
		</g>
		<g>
			<g>
				<circle class="st2" cx="284.3" cy="443.8" r="1.5"/>
				<polyline class="st2" points="284.3,450.2 284.3,448.7 284.2,448.4 292.7,448.4 300.1,448.4 				"/>
				<line class="st2" x1="302.7" y1="482.2" x2="292.1" y2="482.2"/>
				<polyline class="st2" points="285.7,443.6 315.4,443.6 315.4,445.6 				"/>
				<polyline class="st2" points="284.3,445.3 284.3,445.3 284.2,448.4 292.7,448.4 300.1,448.4 				"/>
				<path class="st2" d="M285.7,443.6l29.7,0V443c0-1.6-1.3-2.8-2.8-2.8l-28.4,0l0,2.1"/>
				<line class="st2" x1="292.7" y1="474.5" x2="292.7" y2="473.3"/>
				<polyline class="st2" points="292.7,448.4 292.7,448.4 292.7,450.3 				"/>
				<g>
					<polygon class="st6" points="301.4,459.9 300.3,458.1 297.8,458.1 296.4,460.4 298.4,461.5 299.1,460.3 299.5,461 298.7,461.5 
						301.4,462.2 302.1,459.5 					"/>
					<polyline class="st6" points="299.5,461 299.1,460.3 297.8,458.1 300.3,458.1 301.4,459.9 					"/>
				</g>
				<g>
					<polygon class="st6" points="295,462.9 294,464.8 295.3,467 297.9,467 297.9,464.8 296.5,464.8 297,464 297.7,464.5 297,461.8 
						294.3,462.5 					"/>
					<polyline class="st6" points="297,464 296.5,464.8 295.3,467 294,464.8 295,462.9 					"/>
				</g>
				<g>
					<polyline class="st6" points="301.8,463 300.9,463.5 301.6,464.7 300.8,464.7 300.8,463.9 298.8,465.8 300.8,467.8 
						300.8,466.9 302,466.9 					"/>
					<line class="st6" x1="302" y1="466.9" x2="300.8" y2="466.9"/>
					<polyline class="st6" points="300.8,464.7 301.6,464.7 301.9,464.7 					"/>
				</g>
			</g>
		</g>
		<path class="st7" d="M598.1,439.9c3.6-4.3,8.4-8.3,14.3-12"/>
		<line class="st7" x1="612.4" y1="458.1" x2="598.1" y2="458.1"/>
		<line class="st7" x1="741.2" y1="458.1" x2="730.4" y2="458.1"/>
		<line class="st7" x1="789.9" y1="458.1" x2="781.6" y2="458.1"/>
		<path class="st7" d="M765.5,417.5C765.5,417.5,765.5,417.5,765.5,417.5"/>
		<path class="st7" d="M787.3,427.4c5.6,3.4,10.2,7.1,13.9,11"/>
		<line class="st7" x1="766.8" y1="417.9" x2="766.8" y2="417.9"/>
		<line class="st7" x1="756.7" y1="414.7" x2="756.7" y2="414.7"/>
		<path class="st7" d="M744.9,411.9c-4.7-1-9.5-1.8-14.5-2.5"/>
		<line class="st7" x1="677.8" y1="458.1" x2="666.2" y2="458.1"/>
		<g>
			<polyline class="st8" points="751.4,429.6 744.9,429.6 744.9,420 758.6,420 			"/>
			<polyline class="st8" points="764,420 787.3,420 787.3,429.6 771.2,429.6 			"/>
			<polyline class="st8" points="764,420 787.3,420 787.3,410.3 744.9,410.3 744.9,420 758.6,420 			"/>
			<rect x="744.9" y="400.7" class="st8" width="42.4" height="9.6"/>
			<path class="st8" d="M747.9,400.7c0,0-1.7-3,0.5-4.7c2.1-1.7,2.9,0.3,5.4-0.6c2.8-1.1,2-3.1,4.9-4.9c2.8-1.7,7.3-0.6,10.7,1.3
				c2.8,1.6,0.2,4.3,3.9,5.1c3.3,0.8,3.2-1.7,6.9-1.1c3.6,0.6,5,4.9,5,4.9"/>
			<line class="st8" x1="746.3" y1="412.5" x2="746.3" y2="418.3"/>
			<polyline class="st8" points="748.6,412.7 746.3,415.4 749.2,418 			"/>
			
				<ellipse transform="matrix(0.9992 -3.928126e-02 3.928126e-02 0.9992 -15.7249 29.8635)" class="st8" cx="752.1" cy="415.1" rx="2" ry="2.6"/>
			
				<ellipse transform="matrix(0.9992 -3.928126e-02 3.928126e-02 0.9992 -15.7245 30.4346)" class="st8" cx="766.6" cy="415.4" rx="2" ry="2.6"/>
			<path class="st8" d="M783.8,415.9c0.2,0.1,0.4,0.1,0.7,0.1c1.1,0,2-1,1.9-2.1c0-1.1-1-2-2.1-1.9c-0.2,0-0.4,0-0.5,0.1"/>
			<path class="st8" d="M773.7,417.1c-0.3,0.4-0.8,0.7-1.3,0.7c-1.1,0-2.1-1.1-2.1-2.5c-0.1-1.4,0.8-2.6,1.9-2.7
				c0.5,0,0.9,0.2,1.2,0.5"/>
			<polyline class="st8" points="755.1,418 755.1,412.3 757.1,415.3 758.6,412 759.1,418.4 			"/>
			<polyline class="st8" points="760,418.4 759.9,412.5 763.4,412.5 763.5,418.4 			"/>
			<line class="st8" x1="773.9" y1="412.7" x2="778.5" y2="412.6"/>
			<line class="st8" x1="776.3" y1="417.6" x2="776.2" y2="412.7"/>
			<polyline class="st8" points="782.7,417.6 779.8,417.9 779.7,412.7 782.6,412.4 			"/>
			<line class="st8" x1="781.8" y1="414.6" x2="779.7" y2="414.7"/>
			<polyline class="st8" points="783.8,417.7 783.8,415.9 783.8,412.1 			"/>
		</g>
	</g>
	<g>
		<path class="st9" d="M139.2,256.1c6.9,5.2,15.3,9.7,25.1,11.6c34.8,6.8,48.3-33.2,81.2-36.4c7.3-0.7,14.9,0.1,22.3,1.7"/>
		<path class="st9" d="M116.9,275.8c7.4,9.6,21.9,24.8,42.2,28.8c34.8,6.8,48.3-33.2,81.2-36.5c5.7-0.6,11.3-0.3,16.7,0.5"/>
		<path class="st9" d="M831.1,297.1c0,0,12.4-16.3,32.5-22.2c28.5-8.4,32.9,11.9,65.8,4.4c16.2-3.7,24.5-16,28.3-24"/>
		<path class="st9" d="M837.6,252.5c4.5-2.9,9.8-5.6,15.7-7.3c28.5-8.4,32.9,11.9,65.8,4.4c10.3-2.4,17.4-8.1,22.1-14.1"/>
		<path class="st9" d="M628.9,187.3c0,0,49.8-68.2,78.3-88.7c18.2-13.1,35.6-16.5,45.7-17.3"/>
		<path class="st9" d="M656.7,198.8c0,0,38.1-53.9,66.5-74.3c12.9-9.3,25.4-13.7,35.1-15.7"/>
		<path class="st9" d="M344.3,95.2c2.4,7.1,6.4,14.2,13.3,19.2c20,14.6,39.8,7,65.1,14.1c28.6,8,38.8,48.1,38.8,48.1"/>
		<path class="st9" d="M318.8,102.6c0.9,10.1,4.4,25.2,16.2,33.8c20,14.6,39.8,7,65.1,14.1c28.6,8,34.8,37.4,34.8,37.4"/>
		<polyline class="st9" points="139.2,256.1 161.6,236.3 118.4,233.8 100.8,232.8 96.7,293.6 116.9,275.8 		"/>
		<polyline class="st9" points="344.3,95.2 374.1,86.5 320.6,57.4 291,110.7 318.8,102.6 		"/>
		<polyline class="st9" points="758.3,108.7 764.7,140.5 798.2,89.5 747.6,55.6 752.8,81.4 		"/>
		<polyline class="st9" points="957.8,255.2 976.2,277.3 981.4,216.6 920.7,210.7 941.3,235.4 		"/>
	</g>
	<g>
		<g>
			<line class="st9" x1="10.2" y1="270.7" x2="4.5" y2="261.2"/>
			<line class="st9" x1="0.1" y1="253.8" x2="4.5" y2="261.2"/>
			<path class="st9" d="M4.5,261.2c0.7-0.1,1.3-0.3,1.9-0.6c2.2-1.3,3-4.3,1.6-6.5c-1.3-2.2-4.3-3-6.5-1.6c-0.6,0.4-1.1,0.8-1.5,1.4
				"/>
			<path class="st9" d="M10.4,271c0.9-0.1,1.7-0.5,2.5-0.9c3.1-1.8,4.2-5.5,2.6-8.2c-1.6-2.7-5.4-3.3-8.4-1.5
				c-0.8,0.5-1.5,1.1-2,1.8"/>
		</g>
		<g>
			<polyline class="st9" points="27.3,252 16.2,243.2 22.7,262.6 20.5,256.1 27.3,252 			"/>
			<line class="st9" x1="32.8" y1="256.5" x2="27.3" y2="252"/>
		</g>
		<path class="st9" d="M37.7,235.2c-1.3-2.1-4.4-2.6-7-1c-2.6,1.6-3.7,4.6-2.4,6.7s4.4,2.6,7,1c2.6-1.6,6-0.7,7.5,1.9
			c1.6,2.6,0.7,6-1.9,7.5c-2.6,1.6-6,0.7-7.5-1.9"/>
		<path class="st9" d="M65.6,234.1c-0.2,2-1.2,3.7-2.8,4.7c-3.4,2.1-8.4,0-11.3-4.6c-2.9-4.6-2.4-10,0.9-12.1c1.4-0.8,3-1,4.7-0.6"
			/>
		<g>
			<polyline class="st9" points="114.4,207 104.7,212.9 98.8,203.1 			"/>
			<polyline class="st9" points="104.1,189.9 94.3,195.8 98.8,203.1 			"/>
			<line class="st9" x1="104.5" y1="199.7" x2="98.8" y2="203.1"/>
		</g>
		<g>
			<polyline class="st9" points="100.7,215.3 90.9,221.2 85,211.4 			"/>
			<line class="st9" x1="80.6" y1="204.1" x2="85" y2="211.4"/>
		</g>
		<g>
			<polyline class="st9" points="158.1,180.7 148.3,186.6 142.4,176.8 			"/>
			<line class="st9" x1="138" y1="169.5" x2="142.4" y2="176.8"/>
		</g>
		<g>
			<polyline class="st9" points="143.6,189.5 133.8,195.4 127.9,185.6 			"/>
			<polyline class="st9" points="133.2,172.4 123.5,178.3 127.9,185.6 			"/>
			<line class="st9" x1="133.6" y1="182.2" x2="127.9" y2="185.6"/>
		</g>
		<line class="st9" x1="41.1" y1="228.5" x2="50.9" y2="244.8"/>
		<polyline class="st9" points="108.3,186.9 123.7,200.9 117.7,181.2 		"/>
	</g>
	<g>
		<line class="st9" x1="1002.1" y1="187.3" x2="995.1" y2="195.4"/>
		<line class="st9" x1="989.4" y1="202" x2="995.1" y2="195.4"/>
		<path class="st9" d="M995.1,195.4c0.3,0.7,0.8,1.4,1.5,2c2.5,2.1,6.2,1.8,8.3-0.6c2.1-2.5,1.8-6.2-0.6-8.3c-0.7-0.6-1.4-1-2.2-1.2
			"/>
		<path class="st9" d="M950.2,169.6c4.3,3.6,10.7,3.1,14.4-1.2c3.7-4.3,3.2-10.8-1-14.4L950.2,169.6z"/>
		<g>
			<polyline class="st9" points="984.2,171.6 975.5,164.2 969.9,170.7 			"/>
			<line class="st9" x1="975" y1="175" x2="969.9" y2="170.7"/>
			<polyline class="st9" points="971.1,186.8 962.5,179.4 969.9,170.7 			"/>
		</g>
		<g>
			<polyline class="st9" points="997,182.7 988.4,175.3 982.8,181.8 			"/>
			<line class="st9" x1="987.8" y1="186.1" x2="982.8" y2="181.8"/>
			<polyline class="st9" points="984,197.9 975.3,190.4 982.8,181.8 			"/>
		</g>
		<g>
			<polyline class="st9" points="1032.5,239.6 1023.8,232.2 1031.3,223.5 			"/>
			<polyline class="st9" points="1045.5,224.4 1036.9,217 1031.3,223.5 			"/>
			<line class="st9" x1="1036.3" y1="227.8" x2="1031.3" y2="223.5"/>
		</g>
		<g>
			<polyline class="st9" points="1020.4,229.2 1011.7,221.7 1019.1,213.1 			"/>
			<line class="st9" x1="1024.7" y1="206.6" x2="1019.1" y2="213.1"/>
		</g>
		<g>
			<polyline class="st9" points="1071.2,272.9 1062.5,265.4 1069.9,256.7 			"/>
			<line class="st9" x1="1075.5" y1="250.2" x2="1069.9" y2="256.7"/>
		</g>
		<g>
			<polyline class="st9" points="1058.3,261.8 1049.6,254.3 1057.1,245.7 			"/>
			<polyline class="st9" points="1071.3,246.6 1062.6,239.2 1057.1,245.7 			"/>
			<line class="st9" x1="1062.1" y1="250" x2="1057.1" y2="245.7"/>
		</g>
		<polyline class="st9" points="1049.7,227.4 1041.2,246.5 1058,234.6 		"/>
	</g>
	<g>
		<g>
			<path class="st9" d="M849.8,86.3"/>
			<polyline class="st9" points="849.8,86.3 844.8,73 840.4,93 841.9,86.3 			"/>
			<line class="st9" x1="852.3" y1="93" x2="849.8" y2="86.3"/>
		</g>
		<g>
			<path class="st9" d="M828.8,86.3"/>
			<polyline class="st9" points="828.8,86.3 823.8,73 819.4,93 820.9,86.3 			"/>
			<line class="st9" x1="831.3" y1="93" x2="828.8" y2="86.3"/>
			<polyline class="st9" points="832.8,97.3 834.8,93.3 814.8,93.3 816.8,97.3 			"/>
		</g>
		<g>
			<path class="st9" d="M904.8,86.3"/>
			<polyline class="st9" points="904.8,86.3 899.8,73 895.4,93 896.9,86.3 			"/>
			<line class="st9" x1="907.3" y1="93" x2="904.8" y2="86.3"/>
			<polyline class="st9" points="908.8,97.3 910.8,93.3 890.8,93.3 892.8,97.3 			"/>
		</g>
		<g>
			<line class="st9" x1="866.6" y1="73.2" x2="866.6" y2="83.9"/>
			<line class="st9" x1="866.6" y1="92.7" x2="866.6" y2="83.9"/>
			<path class="st9" d="M866.6,83.9c-0.7,0.3-1.6,0.5-2.4,0.5c-3.2,0-5.9-2.6-5.9-5.9s2.6-5.9,5.9-5.9c0.9,0,1.7,0.2,2.4,0.5"/>
			<line class="st9" x1="857.4" y1="92.7" x2="866.6" y2="83.9"/>
		</g>
		<polyline class="st9" points="956.2,92.5 946.2,92.5 946.2,81.1 		"/>
		<polyline class="st9" points="956.2,72.5 946.2,72.5 946.2,81.1 		"/>
		<line class="st9" x1="952.1" y1="81.1" x2="946.2" y2="81.1"/>
		<g>
			<line class="st9" x1="930.5" y1="72.5" x2="922.8" y2="72.5"/>
			<line class="st9" x1="938.2" y1="72.5" x2="930.5" y2="72.5"/>
			<line class="st9" x1="930.5" y1="72.5" x2="930.5" y2="92.5"/>
		</g>
		<line class="st9" x1="916.8" y1="72.3" x2="916.8" y2="91.3"/>
		<g>
			<polyline class="st9" points="962.8,72.3 962.8,92.3 974.8,72.3 974.8,92.3 			"/>
			<path class="st9" d="M972.8,66.1c0,1.3-1.3,2.4-3,2.4s-3-1.1-3-2.4"/>
		</g>
	</g>
	<g>
		<g>
			<line class="st9" x1="375.2" y1="28.4" x2="371.9" y2="17.9"/>
			<line class="st9" x1="369.3" y1="9.6" x2="371.9" y2="17.9"/>
			<path class="st9" d="M375.2,28.7c0.9,0.1,1.8,0,2.7-0.3c3.4-1.1,5.4-4.3,4.5-7.3c-0.9-3-4.4-4.5-7.8-3.5
				c-0.9,0.3-1.7,0.7-2.4,1.3"/>
		</g>
		<g>
			<line class="st9" x1="283.2" y1="56" x2="279.9" y2="45.4"/>
			<line class="st9" x1="277.3" y1="37.1" x2="279.9" y2="45.4"/>
			<path class="st9" d="M279.9,45.4c0.6,0.1,1.3,0,2-0.2c2.5-0.8,3.9-3.4,3.1-5.9c-0.8-2.5-3.4-3.9-5.9-3.1c-0.7,0.2-1.2,0.5-1.7,1"
				/>
			<path class="st9" d="M283.3,56.2c0.9,0.1,1.8,0,2.7-0.3c3.4-1.1,5.4-4.3,4.5-7.3c-0.9-3-4.4-4.5-7.8-3.5
				c-0.9,0.3-1.7,0.7-2.4,1.3"/>
		</g>
		<g>
			<path class="st9" d="M365.9,24.8"/>
			<polyline class="st9" points="365.9,24.8 357.2,13.6 358.9,34 358.3,27.2 			"/>
			<line class="st9" x1="370.2" y1="30.5" x2="365.9" y2="24.8"/>
		</g>
		<g>
			<path class="st9" d="M252.9,58.9"/>
			<polyline class="st9" points="252.9,58.9 244.2,47.6 245.9,68 245.3,61.2 			"/>
			<line class="st9" x1="257.2" y1="64.5" x2="252.9" y2="58.9"/>
			<polyline class="st9" points="260,68.2 260.7,63.8 241.6,69.7 244.7,72.9 			"/>
		</g>
		<g>
			<path class="st9" d="M315,39.6"/>
			<polyline class="st9" points="315,39.6 306.3,28.3 308,48.7 307.4,41.9 			"/>
			<line class="st9" x1="319.3" y1="45.2" x2="315" y2="39.6"/>
			<polyline class="st9" points="322.1,48.9 322.8,44.5 303.7,50.4 306.8,53.7 			"/>
		</g>
		<g>
			<line class="st9" x1="220.4" y1="56" x2="222.9" y2="64.2"/>
			<line class="st9" x1="226.3" y1="75.1" x2="222.9" y2="64.2"/>
			<line class="st9" x1="235.9" y1="72.2" x2="229.9" y2="53.1"/>
			<line class="st9" x1="232.3" y1="61.3" x2="222.9" y2="64.2"/>
		</g>
		<g>
			<line class="st9" x1="382.8" y1="5.6" x2="385.3" y2="13.8"/>
			<line class="st9" x1="388.7" y1="24.7" x2="385.3" y2="13.8"/>
			<line class="st9" x1="398.2" y1="21.8" x2="392.3" y2="2.7"/>
			<line class="st9" x1="394.7" y1="10.9" x2="385.3" y2="13.8"/>
		</g>
		<g>
			<polyline class="st9" points="348.7,30.2 340,18.9 341.7,39.3 341.1,32.5 348.7,30.2 			"/>
			<line class="st9" x1="353" y1="35.8" x2="348.7" y2="30.2"/>
		</g>
		<line class="st9" x1="213.7" y1="57.4" x2="219.9" y2="77.5"/>
		<line class="st9" x1="398" y1="0.2" x2="404.3" y2="20.3"/>
		<line class="st9" x1="292" y1="33.1" x2="298.2" y2="53.2"/>
		<g>
			<polyline class="st9" points="259.5,43.2 265.5,62.3 271,39.6 276.9,58.7 			"/>
		</g>
		<g>
			<line class="st9" x1="333.1" y1="20.4" x2="327.6" y2="43"/>
			<line class="st9" x1="320.7" y1="24.2" x2="329.6" y2="34.4"/>
		</g>
	</g>
	<g>
		<path class="st9" d="M168.2,396.6l5.1-2.2c5.8-2.5,8.5-9.2,6.1-15l-12.2-28.6c-2.5-5.8-9.2-8.5-15-6.1l-52.6,22.3
			c-5.8,2.5-8.5,9.2-6.1,15l12.1,28.6c2.5,5.8,9.2,8.5,15,6.1l38.4-16.3"/>
		<polyline class="st9" points="168.2,396.6 172.8,407.7 159.1,400.5 		"/>
		<g>
			<g>
				<polygon class="st3" points="138.6,369.5 133.2,365.5 125.7,368.7 124.6,377.2 131.7,378.1 132.2,373.6 134.3,375.2 
					132.7,377.4 141.5,376.1 140.3,367.4 				"/>
				<polyline class="st3" points="134.3,375.2 132.2,373.6 125.7,368.7 133.2,365.5 138.6,369.5 				"/>
			</g>
			<g>
				<polygon class="st3" points="123.6,386.3 122.8,393 129.3,397.9 137.3,394.6 134.5,388 130.3,389.8 130.7,387.1 133.4,387.5 
					127.9,380.5 120.9,385.9 				"/>
				<polyline class="st3" points="130.7,387.1 130.3,389.8 129.3,397.9 122.8,393 123.6,386.3 				"/>
			</g>
			<g>
				<polygon class="st3" points="145.5,390.9 151.7,388.3 152.7,380.1 145.8,375 141.6,380.7 145.1,383.3 142.7,384.4 141.6,381.9 
					138.3,390.1 146.5,393.5 				"/>
				<polyline class="st3" points="142.7,384.4 145.1,383.3 152.7,380.1 151.7,388.3 145.5,390.9 				"/>
			</g>
		</g>
	</g>
	<g>
		<path class="st9" d="M586,100.2l6.9,0.9c7.8,1,15-4.5,16-12.4l5-38.6c1-7.8-4.5-15-12.4-16l-70.8-9.1c-7.8-1-15,4.5-16,12.4
			L509.7,76c-1,7.8,4.5,15,12.4,16l51.7,6.6"/>
		<polyline class="st9" points="573.7,98.7 584.1,115.1 586,100.2 		"/>
		<g>
			<g>
				<path class="st3" d="M548.8,53.2c-0.7-0.2-1.3-0.7-0.9-3.3c0.4-3,1.7-7.5,2.6-7.4l-1.4,10.7"/>
				<line class="st3" x1="548.4" y1="54.2" x2="546.3" y2="55"/>
				<path class="st3" d="M545.5,55.4l-7.1,3c0.4,0.8,5-0.3,7.7-1.4c2.4-1,2.6-1.7,2.4-2.5v0"/>
				<path class="st3" d="M554.1,55.8c2.2,1.9,4.5,4.5,4,5.1l-6.5-4.9"/>
				<polyline class="st3" points="551.2,55.5 549.6,54.3 549.6,54.3 				"/>
				<path class="st3" d="M549.8,54c0.5-0.5,1.2-0.7,3.1,0.8"/>
			</g>
			<circle class="st3" cx="549" cy="53.9" r="0.7"/>
			<polyline class="st3" points="549.1,54.6 545.7,84.4 544.6,84.2 548.8,54.6 			"/>
		</g>
		<g>
			<g>
				<path class="st3" d="M535.6,47.3c-0.9-0.2-1.5-0.8-1.1-3.9c0.4-3.5,2-8.8,3-8.6L536,47.3"/>
				<path class="st3" d="M535.3,48.7c0.3,0.9,0,1.7-2.8,2.9c-3.2,1.3-8.6,2.7-9,1.7l11.6-4.8"/>
				<path class="st3" d="M536.8,48.2c0.6-0.6,1.5-0.8,3.9,1.1c2.8,2.1,6.6,6.1,5.9,6.9l-10-7.6"/>
			</g>
			<circle class="st3" cx="535.9" cy="48.1" r="0.8"/>
			<polyline class="st3" points="536,48.9 532,83.6 530.7,83.4 535.6,48.9 			"/>
		</g>
		<g>
			<g>
				<path class="st3" d="M564.6,48.9c-1-0.2-1.7-0.9-1.2-4.4c0.5-3.9,2.2-9.9,3.4-9.7l-1.8,14"/>
				<path class="st3" d="M564.3,50.5c0.3,1,0,1.9-3.2,3.2c-3.6,1.5-9.7,3-10.1,1.9l13.1-5.5"/>
				<path class="st3" d="M565.9,49.9c0.7-0.7,1.6-0.9,4.3,1.2c3.1,2.4,7.4,6.9,6.7,7.8l-11.2-8.6"/>
			</g>
			<circle class="st3" cx="564.9" cy="49.8" r="1"/>
			<polyline class="st3" points="565,50.7 560.6,89.8 559.1,89.6 564.6,50.7 			"/>
		</g>
		<g>
			<g>
				<path class="st3" d="M580.4,52.4c-0.7-0.2-1.2-0.7-0.9-3.3c0.4-2.9,1.7-7.4,2.6-7.3l-1.4,10.6"/>
				<line class="st3" x1="580" y1="53.3" x2="574.9" y2="55.4"/>
				<path class="st3" d="M580.2,53.6c0.2,0.7,0,1.4-2.4,2.4c-0.5,0.2-1.2,0.5-1.8,0.7"/>
				<path class="st3" d="M574.5,57.1c-2.1,0.6-4.1,0.9-4.4,0.3l3.1-1.3"/>
				<path class="st3" d="M581.4,53.1c0.5-0.5,1.2-0.7,3.3,0.9c2.4,1.8,5.6,5.2,5,5.9l-8.4-6.4"/>
			</g>
			<circle class="st3" cx="580.7" cy="53" r="0.7"/>
			<polyline class="st3" points="580.7,53.7 577.4,83.1 576.3,83 580.4,53.7 			"/>
		</g>
		<g>
			<g>
				<path class="st3" d="M593.2,59.2c-0.8-0.2-1.3-0.7-0.9-3.4c0.4-3,1.7-7.7,2.7-7.6l-1.4,10.9"/>
				<path class="st3" d="M592.9,60.5c0.2,0.8,0,1.5-2.5,2.5c-2.8,1.2-7.5,2.3-7.9,1.5l10.2-4.3"/>
				<path class="st3" d="M594.2,60c0.5-0.5,1.3-0.7,3.4,0.9c2.4,1.9,5.8,5.3,5.2,6.1l-8.7-6.7"/>
			</g>
			<circle class="st3" cx="593.5" cy="59.9" r="0.7"/>
			<polyline class="st3" points="593.5,60.7 590.1,91 588.9,90.9 593.2,60.6 			"/>
		</g>
	</g>
	<g>
		<path class="st9" d="M972.7,420.2l79.1,32.9c12,5,25.9-0.7,30.9-12.7l24.7-59.2c5-12-0.7-25.9-12.7-30.9L985.9,305
			c-12-5-25.9,0.7-30.9,12.7L930.3,377c-5,12,0.7,25.9,12.7,30.9l7.8,3.3"/>
		<polyline class="st9" points="972.7,420.2 939.8,437.6 950.8,411.1 		"/>
		<g>
			<g>
				<circle class="st1" cx="1048.4" cy="363.8" r="1.9"/>
				<path class="st1" d="M1033.2,411.1c-1-0.9-1.4-2.4-0.9-3.8l13.7-37.8l0.1-0.4l36.2,15.1l-1.1,2.2l-17.2,34.2
					c-0.8,1.7-2.8,2.4-4.5,1.7l-0.2-0.1"/>
				<polyline class="st1" points="1056.2,421 1056.2,421 1036,412.6 				"/>
				<path class="st1" d="M1047.7,365.5l-1.5,3.7l36,15.1c0.7,0.3,1.6,0,1.9-0.8l1.8-4.4l-35.6-14.9"/>
				<path class="st1" d="M1050.3,364.2l35.6,14.9l0.3-0.7c0.8-1.9-0.1-4-2-4.8l-34-14.2l-1.1,2.6"/>
				<circle class="st1" cx="1034" cy="413" r="2"/>
				<circle class="st1" cx="1057.3" cy="422.8" r="2"/>
				<line class="st1" x1="1056.3" y1="373.5" x2="1043.3" y2="404.8"/>
				<line class="st1" x1="1071.7" y1="379.9" x2="1058.7" y2="411.2"/>
				<polyline class="st3" points="1052.4,396.4 1050.1,394.4 1063.2,392.8 1058.4,401.4 1054,397.8 				"/>
				<path class="st1" d="M1061.2,394.3"/>
				<path class="st1" d="M1052.9,399.1"/>
				<polygon class="st3" points="1054,397.8 1060.8,394.2 1052.4,396.4 1052.9,399.1 				"/>
				<line class="st3" x1="1052.9" y1="399.1" x2="1054.4" y2="398.2"/>
			</g>
		</g>
		<g>
			<g>
				<circle class="st1" cx="1030.2" cy="346.7" r="1.9"/>
				<polyline class="st1" points="1049.5,361.2 1038.1,356.4 1027.9,352.2 1027.8,352.5 1027.1,354.5 				"/>
				<line class="st1" x1="1034.1" y1="402.4" x2="1023" y2="397.7"/>
				<polyline class="st1" points="1032.1,347.2 1067.7,362.1 1066,366 				"/>
				<polyline class="st1" points="1049.5,361.2 1038.1,356.4 1027.9,352.2 1029.4,348.5 				"/>
				<path class="st1" d="M1032.1,347.2l35.6,14.9l0.3-0.7c0.8-1.9-0.1-4-2-4.8l-34-14.2l-1.1,2.6"/>
				<polyline class="st1" points="1037.1,358.7 1038.1,356.4 1038.1,356.4 				"/>
				<path class="st1" d="M1044,377.7"/>
				<path class="st3" d="M1037.1,387.2l-4.2-1.8c-0.4-0.1-0.5-0.6-0.4-0.9l3.4-8.3c0.1-0.4,0.6-0.5,0.9-0.4l4.2,1.8
					c0.4,0.1,0.5,0.6,0.4,0.9l-3.4,8.3C1037.8,387.2,1037.4,387.4,1037.1,387.2z"/>
				
					<rect x="1033.9" y="379.6" transform="matrix(0.9231 0.3845 -0.3845 0.9231 226.4349 -369.3793)" class="st3" width="6" height="3.8"/>
				
					<rect x="1032.1" y="386.3" transform="matrix(0.9231 0.3845 -0.3845 0.9231 228.2499 -368.1588)" class="st3" width="5.4" height="0.8"/>
				
					<rect x="1036.6" y="376.3" transform="matrix(0.9231 0.3845 -0.3845 0.9231 224.6642 -370.5701)" class="st3" width="4.9" height="0.5"/>
			</g>
		</g>
		<g>
			<g>
				<circle class="st1" cx="1003.1" cy="349.6" r="1.9"/>
				<path class="st1" d="M1013.9,408.1l0.2,0.1c1.7,0.7,3.7,0,4.5-1.7l4.4-8.8l12.8-25.4l1.1-2.2l-0.2-0.1h0l-10.4-4.4l-15.4-6.4
					l-10.2-4.3l-0.1,0.4l-3.9,10.7"/>
				<line class="st1" x1="1010.8" y1="406.8" x2="996.5" y2="400.8"/>
				<path class="st1" d="M1002.3,351.4l-1.5,3.7l36,15.1c0.7,0.3,1.6,0,1.9-0.8l1.8-4.4l-35.6-14.9"/>
				<path class="st1" d="M1004.9,350l35.6,14.9l0.3-0.7c0.8-1.9-0.1-4-2-4.8l-34-14.2l-1.1,2.6"/>
				<circle class="st1" cx="1011.9" cy="408.6" r="2"/>
				<polyline class="st1" points="1004.7,374.4 1004.8,374 1010.9,359.3 1011,359.3 				"/>
				<line class="st1" x1="1026.4" y1="365.7" x2="1013.3" y2="397"/>
				<g>
					<path class="st3" d="M1014.3,371.4l1.7,0.7l-0.3,0.7c-0.1,0.2-0.1,0.4,0,0.5l0.7,2c0.2,1-0.2,2-1,2.5c-0.6,0.4-1.1,0.9-1.4,1.5
						c-0.2,0.5-0.1,0.7-0.1,1.3l0.2,1.7c0.1,0.5,0,1.1-0.2,1.7c-0.1,0.5-0.2,0.9-0.4,1.2l-1.8,4.4c0,0-0.8,0.4-1,0.3
						c-0.4-0.3-0.5-0.8-0.8-0.9c-0.5-0.2-1.3-0.1-1.7-0.1c-0.4-0.1-0.8-0.9-1.3-1.1c-0.3-0.1-0.8,0.1-1.2,0.1c-0.2,0-0.8-1-0.8-1
						l1.8-4.4l0.6-1.1c0.3-0.5,0.7-1,1.1-1.3l1.3-1.1c1-0.8,1.1-1.7,0.9-3c-0.1-0.5,0-0.9,0.2-1.4c0.2-0.5,0.5-0.9,1-1.1l1.9-0.9
						l0,0c0.2-0.1,0.3-0.2,0.4-0.4L1014.3,371.4z"/>
					<path class="st3" d="M1014.6,370.5l1.8,0.7c0.2,0.1,0.2,0.2,0.2,0.4l-0.1,0.3c-0.1,0.2-0.2,0.2-0.4,0.2l-1.8-0.7c0,0,0,0,0,0
						c0,0-0.1-0.1-0.1-0.1c-0.1-0.1-0.1-0.2,0-0.3l0.1-0.3c0-0.1,0.1-0.2,0.2-0.2C1014.5,370.5,1014.6,370.5,1014.6,370.5z"/>
				</g>
			</g>
		</g>
		<g>
			
				<rect x="949.6" y="386" transform="matrix(0.9224 0.3863 -0.3863 0.9224 226.8316 -345.8301)" class="st1" width="48.8" height="11.1"/>
			
				<rect x="953.9" y="375.8" transform="matrix(0.9224 0.3863 -0.3863 0.9224 223.2161 -348.2765)" class="st1" width="48.8" height="11.1"/>
			
				<rect x="958.2" y="365.6" transform="matrix(0.9224 0.3863 -0.3863 0.9224 219.6006 -350.7229)" class="st1" width="48.8" height="11.1"/>
			<path class="st1" d="M965.4,357.9c0,0-0.5-3.9,2.6-4.8c3-0.9,3,1.6,6,1.7c3.4,0.1,3.5-2.4,7.4-3c3.7-0.6,8,2.6,10.8,6.1
				c2.3,3-1.7,4.6,1.8,7.2c3.2,2.3,4.2-0.4,7.7,1.9c3.6,2.3,3.2,7.5,3.2,7.5"/>
			<line class="st3" x1="958.4" y1="369.7" x2="955.9" y2="375.8"/>
			<polyline class="st3" points="960.7,370.9 957.1,372.8 959.1,376.8 			"/>
			
				<ellipse transform="matrix(0.3497 -0.9369 0.9369 0.3497 275.1362 1146.4374)" class="st3" cx="963.4" cy="375" rx="3" ry="2.3"/>
			
				<ellipse transform="matrix(0.3497 -0.9369 0.9369 0.3497 279.0313 1166.4286)" class="st3" cx="979.8" cy="382.2" rx="3" ry="2.3"/>
			<path class="st3" d="M996.7,390c0.2,0.2,0.4,0.3,0.7,0.4c1.2,0.5,2.5-0.2,3-1.3c0.4-1.2-0.2-2.5-1.4-3c-0.2-0.1-0.4-0.1-0.6-0.1"
				/>
			<path class="st3" d="M985.4,386.7c-0.6,0.3-1.2,0.4-1.7,0.2c-1.2-0.4-1.7-2.1-1.1-3.6s2-2.4,3.2-2c0.5,0.2,0.9,0.6,1.1,1"/>
			<polyline class="st3" points="966.4,379.9 968.9,373.8 969.7,377.9 972.7,375.1 970.5,382.1 			"/>
			<polyline class="st3" points="971.4,382.5 973.9,376.2 977.6,377.8 975.1,384 			"/>
			<line class="st3" x1="987.6" y1="382.2" x2="992.5" y2="384.1"/>
			<line class="st3" x1="988" y1="388.4" x2="990.1" y2="383.2"/>
			<polyline class="st3" points="994.7,391.2 991.5,390.3 993.7,384.7 996.9,385.7 			"/>
			<line class="st3" x1="995.1" y1="387.7" x2="992.9" y2="386.9"/>
			<polyline class="st3" points="995.9,391.9 996.7,390 998.3,385.9 			"/>
		</g>
	</g>
	<g>
		<path class="st10" d="M1089.7,126.5c-3.4-12.1-16.4-19-28.5-14.8c-10.3,3.6-16.5,14.4-14.3,25.1c0.8,3.8,2.4,7.1,4.7,9.9
			c3.8,4.5,7,9.3,9.6,14.5c3.1,6.3,10.3,9.5,17,7.6l0.4-0.1c6.9-1.9,11.3-8.5,10.6-15.7c-0.5-5.4-0.3-10.9,0.7-16.3
			C1090.8,133.4,1090.7,129.9,1089.7,126.5z"/>
		<path class="st10" d="M1084.3,165.6l3.5,12.3l-2.2,2.5c-1.7,1.9-4.2,2.6-6.6,1.9l-3.2-1l-3.4-12.3"/>
		
			<ellipse transform="matrix(0.9629 -0.2697 0.2697 0.9629 -1.7447 295.5331)" class="st3" cx="1074.6" cy="154.1" rx="2.5" ry="15.5"/>
		<g>
			<path class="st3" d="M1060.8,149.2c0,0,3.2,0.2,6.4,4.4c2.2,2.9,7.5,15.7,11.5,15"/>
			<path class="st3" d="M1083.9,142.7c0,0-2.6,1.8-3.2,7.1c-0.4,3.6,1.7,17.3-2,18.8"/>
		</g>
		<g>
			<line class="st3" x1="1056.5" y1="87" x2="1059.1" y2="96.3"/>
			<line class="st3" x1="1034.3" y1="99.7" x2="1041.3" y2="106.5"/>
			<line class="st3" x1="1021.5" y1="121.8" x2="1030.9" y2="124.2"/>
			<line class="st3" x1="1021.4" y1="147.4" x2="1030.8" y2="144.7"/>
			<line class="st3" x1="1116.9" y1="122.1" x2="1107.5" y2="124.7"/>
			<line class="st3" x1="1104.2" y1="99.9" x2="1097.4" y2="106.8"/>
			<line class="st3" x1="1082.1" y1="87" x2="1079.7" y2="96.5"/>
		</g>
	</g>
	<g>
		<path class="st10" d="M169.5,103.3c-0.6,0.8-1.4,1.3-2.2,1.5c-0.8,0.2-1.6,0.1-2.3-0.4l-29.4-21.5c-1.3-1-1.5-3-0.3-4.6
			c0.6-0.8,1.4-1.3,2.2-1.5c0.8-0.2,1.6-0.1,2.3,0.4l29.4,21.5C170.5,99.7,170.6,101.8,169.5,103.3z"/>
		<path class="st10" d="M122.7,126.2l-6.3,8.6c-1.2,1.6-1,3.8,0.3,4.8c1.4,1,3.5,0.5,4.7-1.1l6.2-8.5"/>
		<path class="st10" d="M160.4,113.8c0,0-5.5,5.4-9.5,8.6c-1.3,1.1-3.5,2.7-6.3,4.2c-0.8,0.4-1.6,0.9-2.5,1.2
			c-0.9,0.4-1.8,0.8-2.7,1.1c-1,0.4-1.9,0.7-2.9,0.9c-4,1-8.2,1-11.6-1.3c-3.2-2.6-4.5-6.5-4.8-10.7c-0.1-1-0.1-2,0-3.1
			c0-1,0.1-1.9,0.3-2.9c0.1-0.9,0.3-1.9,0.4-2.7c0.6-3.1,1.5-5.8,2.1-7.3c1.9-4.7,5.4-11.6,5.4-11.6c0.9-2.5,3.7-3.7,5.5-2.3
			l27.1,19.8C162.7,109.2,162.4,112.3,160.4,113.8z"/>
		<path class="st3" d="M144.6,126.7c-0.8,0.4-1.6,0.9-2.5,1.2L120.4,112c0.1-0.9,0.3-1.9,0.4-2.7L144.6,126.7z"/>
		<path class="st3" d="M139.5,129c-1,0.4-1.9,0.7-2.9,0.9l-16.4-12c-0.1-1-0.1-2,0-3.1L139.5,129z"/>
		
			<rect x="131.6" y="93.2" transform="matrix(0.8072 0.5902 -0.5902 0.8072 85.2031 -69.3616)" class="st10" width="34.4" height="5.2"/>
	</g>
</g>
</svg>
