<?xml version="1.0" encoding="utf-8"?>
<!-- Generator: Adobe Illustrator 24.1.2, SVG Export Plug-In . SVG Version: 6.00 Build 0)  -->
<svg version="1.1" id="OBJECTS" xmlns="http://www.w3.org/2000/svg" xmlns:xlink="http://www.w3.org/1999/xlink" x="0px" y="0px"
	 viewBox="0 0 500 500" style="enable-background:new 0 0 500 500;" xml:space="preserve">
<style type="text/css">
	.st0{fill:#BBE7F2;}
	.st1{fill:#3B8B58;}
	.st2{fill:#307147;}
	.st3{fill:#59A960;}
	.st4{fill:#73C078;}
	.st5{fill:#4D7ABB;}
	.st6{fill:#79C0C4;}
	.st7{opacity:0.5;fill:#00BBFF;}
	.st8{fill:#FFFFFF;}
	.st9{opacity:0.3;fill:#FFFFFF;}
	.st10{fill:#0A3C5F;}
	.st11{fill:#FDB18D;}
	.st12{fill:#0D134F;}
	.st13{fill:#62C1C5;}
	.st14{fill:#F09474;}
	.st15{fill:#F8A510;}
	.st16{fill:#FDD247;}
	.st17{fill:#E9F9F9;}
	.st18{fill:#ADCCCC;}
	.st19{fill:#BA7C0C;}
	.st20{fill:#2466B4;}
	.st21{fill:#5600B5;}
	.st22{fill:#410088;}
	.st23{fill:#3D895B;}
	.st24{fill:#73C176;}
	.st25{fill:#1CDBC9;}
</style>
<g>
	<g>
		<path class="st0" d="M95.81,136.42c-1.04-20.97,8.29-46.77,32.4-47.6c43.71-1.5,67.66,50.26,106.98,59.85
			c26.99,6.58,43.69-12.47,63.59-26.52c21.49-15.17,44.4-35.81,73.2-29.33c18.6,4.18,29.13,23.13,30.73,40.58
			c1.71,18.7-7.28,33.73-5.74,51.67c1.63,19.03,21.76,27.24,31.71,42.94c12.29,19.39,16.44,41.78,10.48,64.02
			c-5.75,21.45-21.96,42.66-42.88,51.01c-28.34,11.32-49.47-5.73-75.81-13.37c-37.62-10.9-55.5,9.14-81.73,31.69
			c-16.23,13.95-36.75,26.3-59.3,22.89c-31.61-4.78-41.44-47.65-41.7-74.16c-0.17-16.9,7.43-36.49-5.03-49.46
			c-11.92-12.41-23.56-10.71-39.76-11.7c-12.89-0.79-28.04-5.65-32.38-19.04c-2.01-6.22-1.83-14.38,2.12-19.82
			c9.82-13.52,32.89-13.82,36.27-30.66C101.82,165.2,96.51,150.55,95.81,136.42z"/>
		<path class="st0" d="M218.61,92.03c6.04-24.51-49.48-44.55-51.15-20.47c-0.89,12.84,18,28.56,29.45,30.69
			C207.44,104.21,215.95,102.85,218.61,92.03z"/>
	</g>
	<g>
		<g>
			<g>
				<g>
					<path class="st1" d="M176.82,343.37c-4.32-9.98-6.18-20.71-12.06-29.89c-2.25-3.51-4.52-6.66-7.95-9.3
						c-4.22-3.25-8.9-2.73-13.55-4.68c-8.53-3.59-13.31-13.36-21.44-18.19c-8.06-4.78-17.78-6.34-27.03-4.43
						c-8.54,1.76-14.4,2.77-22.62-0.79c-6.29-2.72-19.41-7.19-14.96,4.76c2.62,7.05,11.34,10.45,15.6,16.95
						c4.56,6.97,5.71,17.18,11.88,23.08c5.85,5.6,13.77-0.6,20.06,4.6c6.52,5.39,8.5,12.77,16.6,17.2
						c8.75,4.78,19.09,6.26,28.86,6.82c6.95,0.4,20.33,1.11,28.24-1.95C177.94,346.16,177.42,344.76,176.82,343.37z"/>
				</g>
			</g>
			<path class="st2" d="M103.39,301.88c21.05,22.33,46.13,37.64,73.94,42.75c-0.17-0.42-0.33-0.84-0.51-1.26
				c-4.32-9.98-6.18-20.71-12.06-29.89c-2.25-3.51-4.52-6.66-7.95-9.3c-4.22-3.25-8.9-2.73-13.55-4.68
				c-8.53-3.59-13.31-13.36-21.44-18.19c-8.06-4.78-17.78-6.34-27.03-4.43c-3.51,0.72-6.56,1.31-9.51,1.52
				C91.04,286.88,96.91,295,103.39,301.88z"/>
			<g>
				<g>
					<path class="st1" d="M394.07,161.86c-6.79-1.37,6.86-12.82,8.81-14.73c5.02-4.89,14.58-13.28,13.41-21.31
						c-1.15-7.94-9.64-2.13-14.36-3.36c0.92-5.57,8.68-10.98,12.11-15.14c2.64-3.19,5.25-6.63,6.12-10.84
						c1.82-8.82-3.94-10.48-10.59-6.54c-0.97-1.41-0.65-3.46-0.48-5.22c0.45-4.6,4.16-20.38-3.65-21.64
						c-4.13-0.67-7.59,7.87-8.89,10.66c-1.45,3.12-3.35,11.4-6.2,13.33c-3.1,2.09-3.15-3.21-6.54-2.82
						c-3.66,0.42-4.54,7.98-5.02,10.84c-0.85,5.09-0.23,10.33,0.32,15.38c0.31,2.86,1.54,6.67-0.16,9.27
						c-1.89-1.47-3.82-3.87-5.91-5.18c-5.1-3.2-6.15,2.38-7.18,6.75c-1.75,7.37-0.56,15.38-0.53,22.91
						c0.01,2.73,1.13,9.65-0.77,11.48c-4.45-3.37-11.49-10.31-13.78-0.64c-1.5,6.34-0.93,13.88,0.35,20.2
						c0.84,4.14,4.44,18.59,8.15,28.76c0.64-0.45,1.26-0.89,1.88-1.34c5.38-3.91,11.23-6.82,16.76-10.56
						c7.62-5.15,16.1-12.03,20.8-19.99c1.18-2.01,4.49-8.43,3.12-10.65C400,158.46,396.14,162.28,394.07,161.86z"/>
				</g>
			</g>
			<path class="st2" d="M401.85,161.47c-1.85-3.01-5.72,0.81-7.78,0.39c-0.29-0.06-0.54-0.14-0.76-0.24
				c-11.44,9.23-22.14,19.42-30.57,31.42c-1.67,2.38-3.26,4.79-4.75,7.24c0.43,1.29,0.86,2.54,1.3,3.73
				c0.64-0.45,1.26-0.89,1.88-1.34c5.38-3.91,11.23-6.82,16.76-10.56c7.62-5.15,16.1-12.03,20.8-19.99
				C399.91,170.11,403.21,163.69,401.85,161.47z"/>
			<g>
				<g>
					<g>
						<path class="st3" d="M161.33,242.09c3.1-11.17,7.03-22.75,8.88-34.1c1.5-9.25-2.16-19.14-6.74-26.97
							c-3.77-6.44-11.72-10.79-15.28-17.32c-4.56-8.36-1.99-19.81-4.76-28.92c-3.02-9.93-8.96-16.51-16.88-22.79
							c-6.97-5.53-12.12-7.52-16.4-15.59c-3.87-7.3-8.02-16.19-16.28-19.51c-19.2-7.72-4.99,32.03-4.25,39.37
							c0.85,8.4-2.53,13.62-6.28,20.66c-5.5,10.34-5.57,20.27,2.48,29.74c7.03,8.27,14.14,10.58,12.39,22.68
							c-1.26,8.75-2.61,18.41,0.04,27.19c3.08,10.19,8.85,19.73,17.92,24.99c3.93,2.28,8.33,4.4,12.56,6.22
							c3.48,1.5,17.13,3.76,28.13,5.39C158.62,249.69,160.16,246.31,161.33,242.09z"/>
					</g>
				</g>
			</g>
			<path class="st1" d="M128.72,247.73c3.48,1.5,17.13,3.76,28.13,5.39c1.37-2.66,2.61-5.29,3.64-8.31
				c-7.22-13.5-17.32-25.98-31.68-37.31c-9.64-7.61-19.7-14.1-30.48-19.09c-0.03,0.31-0.07,0.61-0.12,0.93
				c-1.26,8.75-2.61,18.41,0.04,27.19c3.08,10.19,8.85,19.73,17.92,24.99C120.1,243.79,124.5,245.91,128.72,247.73z"/>
			<g>
				<g>
					<path class="st3" d="M427.37,208.1c5.67-19.63,8.26-41.59,6.76-62.02c-0.61-8.32-0.28-16.6,0.86-24.84
						c-2.75,2.76-5.87,5.33-7.51,7.09c-5.64,6.06-11.71,11.85-17.25,18.12c-15.09,17.09-30.15,35.35-38.79,56.72
						c-5.67,14.02-8.88,28.36-8.15,43.28c0.34,6.99,1.58,13.73,3.46,20.46c0.62,2.2,1.36,5.28,2.31,8.41
						C398.29,262.36,418.51,238.76,427.37,208.1z"/>
				</g>
			</g>
			<path class="st1" d="M374.15,197.04c-0.96,2.02-1.87,4.06-2.71,6.14c-5.67,14.02-8.88,28.36-8.15,43.28
				c0.34,6.99,1.58,13.73,3.46,20.46c0.62,2.2,1.36,5.28,2.31,8.41c8.9-3.95,16.96-8.89,24.12-14.71
				C392.38,237.38,385.53,215.67,374.15,197.04z"/>
			<path class="st1" d="M423.98,218.08c-18.48,4.26-34.55,12.75-49.58,23.92c-3.91,2.91-7.48,5.9-10.76,8.97
				c0.56,5.4,1.63,10.68,3.11,15.95c0.62,2.2,1.36,5.28,2.31,8.41C395.03,263.8,413.88,243.88,423.98,218.08z"/>
			<g>
				<g>
					<path class="st4" d="M121.95,215.78c-16.36-12.91-33.87-22.63-54.18-27.19c-5.92-1.33-17.43-1.08-27.51-2.78
						c20.28,21.79,29.77,56.32,46.59,80.01c21.42,30.17,50.05,51.04,84.41,56.78C167.53,280.72,158.46,244.59,121.95,215.78z"/>
				</g>
			</g>
			<g>
				<g>
					<path class="st4" d="M374.4,251.07c15.59-11.58,32.28-20.31,51.64-24.39c5.64-1.19,16.61-0.96,26.22-2.49
						c-19.33,19.55-28.38,50.53-44.4,71.78c-20.42,27.07-47.71,45.79-80.46,50.94C330.95,309.34,339.6,276.92,374.4,251.07z"/>
				</g>
			</g>
			<path class="st3" d="M327.41,346.91c19.08-3,36.31-10.62,51.4-21.8c9.25-17.95,14.47-38.31,14.47-59.89
				c0-8.54-0.83-16.88-2.39-24.96c-5.67,3.23-11.14,6.85-16.49,10.82C339.6,276.92,330.95,309.34,327.41,346.91z"/>
			<g>
				<g>
					<path class="st3" d="M191.59,326.94c-8.1-3.88-16.54-10.68-22.19-15.46c-20.13-17.04-36.25-38.25-51.83-58.76
						c-1.92-2.53-3.85-5.06-5.78-7.59c-8.24-10.77-15.2-18.68-22.56-25.63c-0.76-0.72-1.56-1.48-2.38-2.27
						c-6.47-6.17-14.51-13.86-22.11-17.16l0.37-0.85c7.75,3.37,15.86,11.12,22.38,17.34c0.82,0.79,1.62,1.54,2.38,2.26
						c7.4,6.98,14.39,14.92,22.66,25.74c1.93,2.53,3.86,5.06,5.78,7.59c15.55,20.47,31.64,41.63,51.69,58.61
						c5.61,4.75,13.99,11.5,21.99,15.33L191.59,326.94z"/>
				</g>
			</g>
			<g>
				<g>
					<path class="st1" d="M154.86,244.39c-1.08-9.02-3.04-16.45-6.16-23.4c-5.43-12.1-11.6-21.55-19.39-29.75
						c-6.81-7.16-12.44-13.98-12.46-24.95c0-2.43,0.06-4.87,0.11-7.24c0.18-7.54,0.35-14.66-1.24-21.96
						c-2.78-12.76-9.31-23.19-16.23-34.22l0.36-0.3l0.39-0.25l-0.39,0.25l0.43-0.19c6.96,11.11,13.54,21.6,16.35,34.52
						c1.61,7.41,1.43,14.91,1.26,22.18c-0.06,2.36-0.11,4.8-0.11,7.21c0.01,10.62,5.53,17.29,12.2,24.31
						c7.87,8.28,14.09,17.82,19.57,30.01c3.16,7.04,5.14,14.56,6.24,23.67L154.86,244.39z"/>
				</g>
			</g>
			<g>
				<path class="st2" d="M354.56,233.13l-0.91-0.19c0.82-3.93,1.25-7.85,1.67-11.64c0.59-5.29,1.2-10.77,2.86-16.14
					c0.89-2.87,1.7-5.46,2.7-8.24c1.16-3.2,2.24-6.52,3.29-9.74c1.62-4.94,3.29-10.05,5.31-15.05c1.83-4.53,4.12-9.14,6.33-13.61
					c2.34-4.73,4.76-9.61,6.64-14.4c1.72-4.38,3.04-8.97,4.31-13.4c1.68-5.85,3.42-11.91,6.11-17.59c3.12-6.57,4.52-12.89,6-19.57
					c0.62-2.79,1.26-5.67,2.03-8.57l0.9,0.24c-0.77,2.89-1.41,5.76-2.02,8.54c-1.5,6.74-2.91,13.1-6.07,19.77
					c-2.66,5.62-4.39,11.63-6.06,17.45c-1.28,4.46-2.6,9.07-4.34,13.49c-1.9,4.83-4.33,9.73-6.67,14.48
					c-2.2,4.45-4.48,9.04-6.3,13.54c-2.01,4.96-3.67,10.06-5.28,14.99c-1.05,3.22-2.14,6.55-3.3,9.76c-1,2.76-1.81,5.34-2.69,8.2
					c-1.63,5.28-2.21,10.47-2.82,15.96C355.82,225.22,355.38,229.16,354.56,233.13z"/>
			</g>
			<g>
				<path class="st1" d="M355.25,287.54l-0.59-0.72c2.83-2.35,4.5-5.78,6.1-9.11c1.14-2.36,2.32-4.8,3.92-6.88
					c0.83-1.07,1.63-2.02,2.41-2.94c1.75-2.07,3.4-4.02,4.87-6.89c3.18-6.2,5.07-12.72,6.63-18.84c0.52-2.04,1.03-4.12,1.54-6.2
					c1.97-8.07,4-16.41,7.19-23.68l1.31-3c4.38-10.07,8.92-20.49,15.69-29.12c7.1-9.05,11.05-16.22,15.48-25.55l0.84,0.4
					c-4.46,9.39-8.43,16.6-15.59,25.72c-6.7,8.54-11.21,18.9-15.57,28.92l-1.31,3c-3.16,7.2-5.18,15.5-7.14,23.53
					c-0.51,2.09-1.02,4.17-1.54,6.21c-1.58,6.17-3.48,12.75-6.71,19.04c-1.52,2.96-3.2,4.95-4.99,7.06
					c-0.77,0.91-1.56,1.85-2.38,2.91c-1.54,2-2.7,4.4-3.82,6.72C359.95,281.54,358.24,285.07,355.25,287.54z"/>
			</g>
			<g>
				<path class="st3" d="M312.94,365.89l-0.49-0.8c1.76-1.08,2.57-2.39,3.52-3.91c0.44-0.71,0.9-1.45,1.48-2.21
					c4.9-6.36,9.64-12.86,14.22-19.15c6.9-9.47,14.04-19.26,21.82-28.69c4.23-5.12,9.38-9.25,14.37-13.25
					c4.92-3.95,10.02-8.03,14.08-12.99l2.19-2.67c9.34-11.42,18.17-22.2,28.29-32.66l0.67,0.65c-10.09,10.43-18.91,21.2-28.24,32.6
					l-2.19,2.67c-4.13,5.04-9.26,9.15-14.22,13.13c-4.95,3.97-10.07,8.07-14.23,13.11c-7.77,9.4-14.89,19.18-21.79,28.64
					c-4.59,6.29-9.33,12.8-14.24,19.17c-0.56,0.72-1,1.44-1.43,2.13C315.79,363.23,314.89,364.7,312.94,365.89z"/>
			</g>
			<g>
				<path class="st2" d="M202.36,357.13c-1.34-1.28-2.61-2.52-3.84-3.71c-10.03-9.73-17.27-16.76-32.14-19.62
					c-1.76-0.34-3.64-0.62-5.46-0.89c-4.01-0.6-8.16-1.22-11.84-2.54c-4.89-1.75-8.53-5.25-12.05-8.63
					c-3.29-3.17-6.41-6.16-10.49-7.89c-3.03-1.28-5.73-2.01-8.34-2.71c-5.58-1.5-10.39-2.79-15.77-8.86
					c-1.04-1.17-2.15-2.63-3.31-4.17c-4.91-6.48-11.02-14.55-19.31-11.12l-0.36-0.86c8.95-3.71,15.3,4.68,20.41,11.42
					c1.16,1.53,2.25,2.97,3.27,4.12c5.19,5.86,9.88,7.12,15.32,8.58c2.64,0.71,5.38,1.44,8.46,2.75c4.24,1.8,7.56,4.99,10.77,8.07
					c3.45,3.31,7.01,6.74,11.72,8.42c3.6,1.29,7.7,1.9,11.67,2.5c1.83,0.27,3.71,0.56,5.5,0.9c15.14,2.91,22.47,10.02,32.61,19.87
					c1.23,1.19,2.5,2.43,3.84,3.7L202.36,357.13z"/>
			</g>
		</g>
		<g>
			<g>
				<g>
					
						<ellipse transform="matrix(0.127 -0.9919 0.9919 0.127 -22.1492 460.8348)" class="st5" cx="250.72" cy="243" rx="130.97" ry="130.97"/>
					<g>
						<g>
							<path class="st6" d="M244.95,131.25c-1.03,2.17-4.09,1.43-4.95,3.16c-1.4,2.85,0.15,5.52,0.66,8.23
								c1.15,6.13,2.89,8.57-3.33,12.21c-5.9,3.46-7.61,1.03-7.33,9.31c0.09,2.87,2.74,3,1.05,6.13c-0.53,0.98-4.68,1.43-5.81,3.02
								c-3.33,4.74,1.8,10.94,0.51,16.12c-1.53,6.13-5.96,5.16-9.99,8.32c-7.78,6.08-5.44,21.05-14.59,25.48
								c-3.62,1.75-12.42-0.24-14.94-3.1c-3.87-4.36-1.07-9.45,0.85-13.74c2.54-5.68,3.11-6.85,0.15-12.36
								c-1.08-2-2.77-2.62-3.56-5.28c-0.84-2.82,0.76-6.04-0.49-8.84c-1.01-2.22-3.9-2.39-4.76-4.2c-1.28-2.64-0.31-5.52-1.51-8.01
								c-0.57-1.17-2.46-4.63-4.04-4.93c-4.55-0.85-1.83,2.58-3.41,4.93c-6.63,9.82-13.47-1.02-23.09,2.54
								c-2.34,0.87-4.64,2.35-6.95,3.68c20.23-32.54,54.33-55.54,94.03-60.77C238.45,118.77,249.38,121.95,244.95,131.25z"/>
							<path class="st6" d="M277.51,274.25c-5.51-14.47-13.99-2.33-22.92-9.58c-2.55-2.06-2.21-6.03-5.91-7.22
								c-3.98-1.29-9.25,2.18-13.92,1.72c-11.82-1.16-17.05,4.55-20.36,16.61c-1.69,6.16-2.51,8.98,2.57,13.25
								c2,1.68,5.21,2.15,6.95,4.06c2.08,2.27,1.59,5.47,3.23,7.66c2.62,3.51,7.86,4.04,11.02,7.95c1.41,1.74,1.31,4.62,3.04,6.46
								c1.85,1.97,4.92,1.7,7.14,3.89c5.77,5.69,6.74,13.82,6.45,21.06c-0.39,9.81,5.97,12.97,15.64,12.1
								c2.17-7.63,5.48-3.93,11.01-6.67c4.62-2.29,7.14-8.92,8.11-13.57c1.2-5.79,0.46-6.55,4.75-11.69
								c3.38-4.04,6.43-8.03,6.79-13.42c0.56-8.39-2.76-7.2-7.46-10.83c-3.25-2.51-5.75-6.31-8.83-8.85
								c-2.61-2.16-3.21-1.5-4.9-4.75C278.71,280.1,278.49,276.82,277.51,274.25z"/>
							<path class="st6" d="M381.69,243c0,19.06-4.07,37.16-11.38,53.49c-1.78-0.02-3.38-0.05-4.52,0
								c-5.56,0.21-11.2-1.92-14.29-6.75c-1.65-2.56-0.36-5.63-3.39-8.04c-2.01-1.59-5.07-0.73-7.42-1.49
								c-8.13-2.67-4.24-5.51-5.43-11.54c-1.02-5.1-7.86-7.97-12.89-6.25c-4.61,1.58-5.63,7.93-10.86,7.65
								c-6.09-0.33-6.89-7.43-8.14-11.57c-2.16-7.16-1.45-8.1-8.32-5.6c-0.75,0.27-5.68,2.57-5.92,2.87
								c-1.73,2.14,0.08,5.39-1.36,7.5c-3.21,4.68-8.64-2.03-10.04-6.16c-0.87-2.54-0.01-5.54-0.82-8.12
								c-0.7-2.25-3.28-3.13-3.94-5.42c-2.51-8.6,4.06-6.86,7.83-11.01c6.42-7.06-2.52-6.88-7.31-4.09
								c-2.58,1.51-3.13,3.51-6.1,4.24c-2.52,0.62-5.42-0.99-8.16-0.69c-2.7,0.29-3.69,2.15-6.77,2.05
								c-4.02-0.13-2.99-1.74-5.92-2.88c-6.45-2.51-9.37,1.13-15.69,0.06c-1.36-5.53,4.75-9.52,8.87-11.27
								c2.73-1.17,5.42-1,7.82-2.38c2.56-1.47,2.89-3.99,6.28-5.1c5.48-1.8,11.23-2.14,16.29-4.9c3.97-2.17,7.61-8.63-0.56-9.62
								c1.47-9.55-10.17-2.4-13.67-2.56c-10.54-0.51-2.22-8.09,2.66-11.06c2.71-1.66,5.69-3.05,8.33-4.43
								c3.4-1.79,4.33-2.97,7.14-5.07c9.29-6.93,5.56,2.66,13.64,2.97c-1.14,10.02,5.42,6.86,10.31,2.62
								c1.22-1.06,1.92-3.94,3.51-4.61c1.68-0.71,2.74,1.23,3.39,1.09c2.69-0.59,5.82-1.1,8.6-1.32c-0.43-3.26-3.05-8.99-1.13-12
								c0.81-1.29,4.61-0.82,5.97-2.14c2.53-2.47,2.09-3.04,2.71-6.12c1.12-5.43-0.88-6.68,3.38-10.69c1.52-1.44,4.3-3.36,7.02-4.83
								C362.01,163.79,381.69,201.1,381.69,243z"/>
							<path class="st6" d="M202.2,322.97c0.7,10.8-5.52,4.91-12.28,7.74c0.13,2.82-0.14,5.92-0.91,8.58
								c-7.29,3.6-6.47,9.6-5.71,16.01c-8.85-5.32-17.01-11.66-24.34-18.87c-0.12-1.28-0.25-2.56-0.42-3.84
								c-0.14-1.07,1.86-1.38,1.3-3.23c-0.19-0.6-2.31-1.61-2.78-2.71c-1.24-2.96-2.35-3.36-2.56-6.94
								c-0.32-5.44,4.16-9.94,4.8-14.92c0.33-2.65-1.56-4.7-1.39-7.47c0.15-2.4,1.58-4.18,1.93-6.67
								c-4.28-1.56-7.63-2.45-10.62-5.44c-3.32,3.09-10.94-1.47-14.42-2.14c-5.27-1-9.69-1.64-10.93-8.71
								c-0.13-0.08-0.26-0.14-0.38-0.2v-0.01c-2.43-9.99-3.73-20.43-3.73-31.17c0-13.91,2.16-27.31,6.18-39.88
								c5.64,0.71,3.9-0.16,6.82-3.54c2.03-2.35,13.29-16.76,15.08-5.51c4.56-0.21,13.5,0.51,11.44,7.58
								c-1.27,4.32-9.42,3.91-12.42,8.84c-3.39,5.59-0.55,7.55,3.58,11.52c6.11,5.87,6.05,5.98,8.67-1.2
								c1.09-2.99-2.05-3.49,2.19-4.9c2.84-0.95,4.74,0.44,6.62,2.17c2.6,2.41,1.54,4.93,4.95,7.15c2.24,1.46,4.95,0.78,7.43,1.5
								c4.11,1.19,13.9,7.04,10.04,12.79c-3.22,4.78-12.24-2.14-14.84,0.76c-0.18,0.06-0.35,0.1-0.52,0.15
								c0.38,5.61,7.89,5.88,7.25,11.34c-4.77,0.24-12.25-1.56-15.35,2.13c-2.61,3.1-0.2,13.6-2.32,15.48
								c-3.41,3.02-10.48-1.01-13.61-2.42c-2.27-1.03-3.76-2.96-6.61-2.89c-0.52,0.01-6.24,3.04-6.31,3.21
								c-1.84,4.58,5.12,9.99,9.17,10.89c4.5,0.99,7.8-3.11,13.28-0.36c5.06,2.54,4.28,6.86,11.01,8c3.9,0.65,12.59-1.13,15.61,1.49
								c3.07,2.66,0.98,5.79,3.23,8.87c1.76,2.41,5.31,2.48,7.67,3.18c5.77,1.7,11.21,3.12,11.37,10.78
								C199.39,311.76,201.69,314.94,202.2,322.97z"/>
						</g>
					</g>
					<path class="st7" d="M345.32,152.43c5.71,14.7,8.85,30.69,8.85,47.4c0,72.33-58.64,130.97-130.97,130.97
						c-37.19,0-70.76-15.5-94.6-40.4c19,48.9,66.51,83.56,122.12,83.56c72.33,0,130.97-58.63,130.97-130.97
						C381.69,207.86,367.85,175.95,345.32,152.43z"/>
				</g>
				<g>
					<path class="st8" d="M406.77,195.75c-5.12-27.87-24.97-15.35-24.97-15.35c-27.85-26.25-32.65,7.68-32.65,7.68
						c-12.8-4.8-16.32,7.68-16.32,7.68c-17.67-4.28-23.13,4.96-24.6,13.44h118.11C423.05,188.91,406.77,195.75,406.77,195.75z"/>
				</g>
				<g>
					<path class="st8" d="M147.84,215.74c-3.22-17.52-15.69-9.65-15.69-9.65c-17.5-16.5-20.52,4.83-20.52,4.83
						c-8.05-3.02-10.26,4.83-10.26,4.83c-11.11-2.69-14.54,3.12-15.46,8.45h74.24C158.07,211.44,147.84,215.74,147.84,215.74z"/>
				</g>
				<g>
					<path class="st8" d="M191.29,140.9c-4.1-22.3-19.98-12.28-19.98-12.28c-22.28-21-26.13,6.15-26.13,6.15
						c-10.25-3.84-13.06,6.15-13.06,6.15c-14.14-3.42-18.51,3.97-19.68,10.76h94.51C204.31,135.43,191.29,140.9,191.29,140.9z"/>
				</g>
			</g>
			<path class="st9" d="M202.88,204.65c-17.96,23.03-41.86,34.42-53.37,25.44c-11.51-8.98-6.28-34.93,11.68-57.96
				c17.96-23.03,41.86-34.42,53.37-25.44C226.08,155.67,220.84,181.62,202.88,204.65z"/>
		</g>
		<g>
			<g>
				<path class="st0" d="M459.75,386.04c0,3.75-15.44,6.8-34.48,6.8c-19.04,0-34.48-3.04-34.48-6.8c0-3.76,15.44-6.8,34.48-6.8
					C444.31,379.23,459.75,382.28,459.75,386.04z"/>
				<g>
					<g>
						<path class="st10" d="M401.63,353.17l7.8-17.64l-10.1-8.14l-8.31,22.77c0,0-2.02,4.35,5.9,9.94l15.64,15.22l4.86-2.33
							C417.43,372.99,406.86,358.3,401.63,353.17z"/>
						<polygon class="st11" points="412.56,375.32 413.85,376.91 402.1,383.63 401.76,385.08 422.41,382.18 419.45,375.32 
							417.43,372.99 						"/>
						<polygon class="st8" points="413.02,375.88 413.85,376.91 419.45,375.32 418.11,373.78 						"/>
						<polygon class="st12" points="402.1,383.63 401.76,385.08 422.41,382.18 419.45,375.32 413.85,376.91 						"/>
						<polygon class="st13" points="422.41,382.18 421.68,380.49 402.1,383.63 401.76,385.08 						"/>
					</g>
					<polygon class="st12" points="399.09,328.83 405.08,345.35 409.43,335.52 399.62,327.62 					"/>
					<path class="st14" d="M350.62,273.31c0,0-0.51-1.25,0-4.41c0,0-0.85-6.79,0.96-4.52v-1.42c0,0-1.47-2.49-0.59-3.85l0.59,0.62
						c0,0-0.4-1.02,0-1.92c0,0,0.96,1.58,1.08,2.15l0.4,2.6l0.17,3c0,0,0.4,5.49,0.79,6.33c0,0,10.35,5.88,13.35,6.62l0.57,4.98
						L350.62,273.31z"/>
					<path class="st8" d="M367.93,283.49l-0.57-4.98c-3-0.74-13.35-6.62-13.35-6.62l-1.55,2.5L367.93,283.49z"/>
					<path class="st15" d="M353.84,275.2l14.45,8.51l-0.29-4.94c-2.4-0.59-10.14-4.73-12.88-6.26L353.84,275.2z"/>
					<g>
						<path class="st14" d="M378.06,287.95c0,0,3.35,0.09,5.91,1.75l2.82-3.17l-3.76-3.87l-4.67,1.37L378.06,287.95z"/>
						<polygon class="st8" points="385.2,284.9 384.26,283.72 380.3,287.87 381.12,289.19 384.9,286.98 						"/>
						<g>
							<path class="st11" d="M384,279.9c0,0-1.72-11.88-11.47-8.3c0,0-9.34,2.59-2.4,16.81l1.72-0.85c0,0,2.31,3.74,4.29,2.66
								l7.33-7.1L384,279.9z"/>
							<path class="st14" d="M380.83,277.6l-5.03-4.11l-7.64,2.35c-0.84,2.16-0.97,5.35,0.85,10.01L380.83,277.6z"/>
							<path class="st10" d="M384,279.9c0,0-1.72-11.88-11.47-8.3c0,0-6.37,1.77-4.68,10.39c0.01,0,1.07,0.69,4.36-0.68
								c0,0,1.96,0.4,3.25,2.9l1.18-0.71c0,0-1.5-3.63,0.02-4.8l1.96,0.42c0,0,1.29,3.06,3.56,3.16l1.49-0.39L384,279.9z"/>
							<path class="st12" d="M375.46,284.21l1.18-0.71c0,0-1.5-3.63,0.02-4.8l1.96,0.42c0,0,1.29,3.06,3.56,3.16l1.49-0.39l0.33-2
								c0,0-0.84-5.79-4.67-8.07c-3.15,6.49-9.21,8.24-11.69,8.69c0.05,0.47,0.12,0.95,0.22,1.47c0.01,0,1.07,0.69,4.36-0.68
								C372.21,281.31,374.17,281.71,375.46,284.21z"/>
							<path class="st11" d="M378.8,279.5c0.55,1.34,0.31,2.71-0.53,3.05c-0.84,0.34-1.97-0.46-2.51-1.81
								c-0.55-1.34-0.31-2.71,0.53-3.05C377.12,277.34,378.25,278.15,378.8,279.5z"/>
						</g>
					</g>
					<polygon class="st10" points="377.01,294.7 419.12,359.81 442.43,377.68 447.56,374.57 428.29,355.31 412.28,317.86 
						390.92,288.18 385.2,284.9 					"/>
					<path class="st16" d="M385.2,284.9l-8.19,9.8l22.08,34.13l0,0c9.64-3.32,13.2-10.97,13.2-10.97l-21.36-29.68L385.2,284.9z"/>
					<path class="st15" d="M384.27,296.43c-0.56-2.86-2.28-4.5-4.15-5.45l-3.11,3.72l1.81,2.8
						C382.13,297.46,384.27,296.43,384.27,296.43z"/>
					<path class="st11" d="M347.58,271.17c0,0,16.63,6.55,17.97,10.25c0,0,10.92,4.7,16.97,4.7c0,0,6.55,0.67,4.37,8.4
						c0,0-1.68,5.04-11.76-0.84l-13.77-7.39c0,0-13.44-9.74-16.63-13.77c0,0-2.36-2.14-1-8.08c0,0,0-5.94,1.02-5.2
						c0,0-0.45-2.8,0.74-2.8c0,0,1.3,2.51,1.53,3.42l0.11,2.21c0,0,0.74,1.98,0.74,3.22C347.85,265.28,347.98,269.31,347.58,271.17z
						"/>
					<path class="st8" d="M386.88,294.52c2.18-7.73-4.37-8.4-4.37-8.4c-6.05,0-16.97-4.7-16.97-4.7
						c-1.34-3.7-17.97-10.25-17.97-10.25l-1.85,2.47c4.34,4.47,15.62,12.65,15.62,12.65l13.77,7.39
						C385.2,299.56,386.88,294.52,386.88,294.52z"/>
					<path class="st16" d="M346.82,274.71c4.89,4.59,14.53,11.58,14.53,11.58l13.77,7.39c10.08,5.88,11.76,0.84,11.76,0.84
						c2.18-7.73-4.37-8.4-4.37-8.4c-6.05,0-16.97-4.7-16.97-4.7c-1.14-3.14-13.32-8.34-16.95-9.83L346.82,274.71z"/>
					<polygon class="st11" points="442.43,377.68 443.82,379.03 432.23,385.25 432.02,386.6 451.98,385.25 453,380.02 
						447.56,374.57 					"/>
					<polygon class="st8" points="442.97,378.21 443.82,379.03 450.66,377.68 448.13,375.15 					"/>
					<polygon class="st12" points="450.66,377.68 443.82,379.03 432.23,385.25 432.02,386.6 451.98,385.25 453,380.02 					"/>
					<polygon class="st13" points="451.98,385.25 452.31,383.57 452.31,383.56 432.23,385.25 432.02,386.6 					"/>
				</g>
			</g>
			<g>
				<path class="st0" d="M274.86,419.12c0,3.76-24.06,6.8-53.75,6.8c-29.68,0-53.75-3.04-53.75-6.8c0-3.75,24.06-6.8,53.75-6.8
					C250.79,412.32,274.86,415.37,274.86,419.12z"/>
				<g>
					<rect x="192.61" y="384.66" class="st15" width="51.72" height="2.74"/>
					<polygon class="st12" points="243.45,384.66 239.34,384.66 240.62,387.41 244.33,387.41 244.33,386.55 					"/>
					<rect x="196" y="334.65" class="st12" width="25.46" height="2.74"/>
					<g>
						<path class="st16" d="M212.84,314.55l-1.3,5.01l-25.82,99.56h-3.86l27.2-104.86l0.17-0.64c0.26-1,1.28-1.59,2.27-1.34
							c0.51,0.14,0.92,0.47,1.17,0.9c0.05,0.09,0.09,0.2,0.13,0.3C212.91,313.81,212.93,314.18,212.84,314.55z"/>
					</g>
					<path class="st15" d="M210.9,313.48c-0.04-0.1-0.08-0.21-0.13-0.3l-0.39-0.83c-0.54,0.21-0.99,0.66-1.15,1.27l-0.17,0.64
						l-0.68,2.62l1.25,2.68l1.22,2.63l0.68-2.63l0.78-3.02L210.9,313.48z"/>
					<rect x="217.77" y="342.77" class="st12" width="16.52" height="1.83"/>
					<rect x="223.2" y="354.71" class="st12" width="16.52" height="1.83"/>
					<rect x="228.63" y="366.66" class="st12" width="16.52" height="1.83"/>
					<rect x="234.06" y="378.6" class="st12" width="16.52" height="1.83"/>
					<rect x="239.49" y="390.55" class="st12" width="16.52" height="1.83"/>
					<rect x="244.92" y="402.49" class="st12" width="16.52" height="1.83"/>
					<path class="st14" d="M237.03,247.2c0.15-1.01-0.76-3.77-2.2-3.23c-0.42,0.16-0.5,0.55-0.49,0.96
						c0.01,0.84,0.47,2.06,1.12,2.63C236.09,248.1,236.9,248.11,237.03,247.2z"/>
					<path class="st14" d="M246.32,247.2c-0.15-1.01,0.76-3.77,2.2-3.23c0.42,0.16,0.5,0.55,0.49,0.96
						c-0.01,0.84-0.47,2.06-1.12,2.63C247.26,248.1,246.45,248.11,246.32,247.2z"/>
					<path class="st11" d="M249.01,241.35c0-4.04-3.27-7.31-7.31-7.31c-4.04,0-7.31,3.27-7.31,7.31c0,1.4,0.4,2.7,1.08,3.82h0
						c0,0,1.79,2.92,2.24,7.27h7.38c0,0,1.48-4.74,2.85-7.27h0C248.61,244.06,249.01,242.75,249.01,241.35z"/>
					<path class="st11" d="M274.86,256.09c0,0,0.6-2.82,0.9-3.65c0,0,1.06-1.75,2.83-2.74l0.74,2.64
						C279.33,252.34,276.93,256.34,274.86,256.09z"/>
					<g>
						<g>
							<polygon class="st16" points="279.05,259.64 278.12,259.64 278.12,242.38 294.29,232.69 294.29,228.2 278.58,228.2 
								278.58,227.27 295.23,227.27 295.23,233.22 279.05,242.91 							"/>
						</g>
					</g>
					<g>
						<path class="st15" d="M278.58,259.65c-0.77,0-1.4-0.63-1.4-1.4v-10.91c0-0.77,0.63-1.4,1.4-1.4c0.77,0,1.4,0.63,1.4,1.4v10.91
							C279.98,259.02,279.36,259.65,278.58,259.65z"/>
					</g>
					<path class="st10" d="M218.84,271.36c0,0,1.92,4.94,8.75,6C227.59,277.36,226.96,267.77,218.84,271.36z"/>
					<path class="st10" d="M252.56,291.29c0,0-2.95,60.08-4.04,70.72h-6.06l-6.37-71.7C236.1,290.31,245.1,283.52,252.56,291.29z"/>
					<path class="st12" d="M237.07,301.37l0.99,11.25c6.23-5.22,9.65-12.01,9.65-12.01L237.07,301.37z"/>
					<path class="st16" d="M229.57,253.07l6.84-2.33c0,0,7.44-1.25,10.88,0l9.32,4.51c0,0,0.47,7.77,2.02,12.9l-6.06,23.15
						l-20.82-1.24l-3.42-24.08L229.57,253.07z"/>
					<path class="st15" d="M233,263.04l-4.57,1.84l-0.1,1.09l1.98,13.94C234.15,272.4,233,263.04,233,263.04z"/>
					<path class="st10" d="M252.56,291.29c0,0,1.92,13.53-27.15,18.09l5.22,28.74h-6.13l-12.65-34.29l19.75-9.71l0.14-4.06
						L252.56,291.29z"/>
					<polygon class="st12" points="224.5,338.12 214.02,341.11 214.02,342.77 230.99,342.77 230.63,338.12 					"/>
					<polygon class="st8" points="230.99,342.77 230.86,341.11 214.02,341.11 214.02,342.77 					"/>
					<polygon class="st12" points="242.47,362.01 231.9,365 231.9,366.66 248.88,366.66 248.52,362.01 					"/>
					<polygon class="st8" points="248.88,366.66 248.75,365 231.9,365 231.9,366.66 					"/>
					<path class="st11" d="M229.57,253.07c0,0,3.93,3.98,1.42,13.77l-6.78,15.07l-13.37,19.75h-11.98c0,0,3.97-4.68,10.28-4.2
						C209.14,297.45,224.69,256.59,229.57,253.07z"/>
					<path class="st16" d="M218.84,271.36c0,0,6.5-0.63,8.75,6c0,0,11.01-17.53,1.98-24.29
						C229.57,253.07,224.82,254.43,218.84,271.36z"/>
					<path class="st11" d="M263.63,259.19l5.43,0.9l5.79-3.99c0,0,1.97-4.67,5.13-6.79c0,0,2.7,1.51,1.13,6.91l-3.94,2.43
						l-6.49,7.77c0,0-8.26,0.3-8.2,0.48C262.54,267.08,263.63,259.19,263.63,259.19z"/>
					<path class="st16" d="M256.6,255.25l8.55,3.73c0,0,2.48,5.95-0.48,9.05l-6.05,0.11C258.62,268.14,252.56,261.46,256.6,255.25z"
						/>
					<path class="st15" d="M255.98,278.25c-7.34,7.22-19.97,8.85-24.6,9.21l0.37,2.59l20.82,1.24L255.98,278.25z"/>
					<path class="st15" d="M265.99,265.28c-3.33-0.03-6.54-1.15-6.54-1.15c-0.34,1.27-0.83,4.02-0.83,4.02l6.05-0.11
						C265.42,267.25,265.81,266.28,265.99,265.28z"/>
					<path class="st17" d="M291.05,229.46c0,1.05-0.85,1.91-1.91,1.91h-21.12c-1.05,0-1.91-0.85-1.91-1.91V226
						c0-1.05,0.85-1.91,1.2-2.12h21.12c1.76,0.21,2.61,1.06,2.61,2.12V229.46z"/>
					<path class="st18" d="M289.14,228.76h-21.12c-1.05,0-1.91-0.85-1.91-1.91v2.61c0,1.05,0.85,1.91,1.91,1.91h21.12
						c1.05,0,1.91-0.85,1.91-1.91v-2.61C291.05,227.91,290.2,228.76,289.14,228.76z"/>
					<path class="st10" d="M247.93,245.17c0.68-1.11,1.08-2.42,1.08-3.82c0-4.04-3.27-7.31-7.31-7.31c-4.04,0-7.31,3.27-7.31,7.31
						c0,1.4,0.4,2.7,1.08,3.82h0c0,0,0.21,0.35,0.51,0.97c0.97,0.82,2.17,2.52,2.17,2.52h6.96c0.68-0.59,2.3-2.44,2.3-2.44
						C247.58,245.85,247.76,245.49,247.93,245.17L247.93,245.17z"/>
					<path class="st12" d="M247.41,236.8c-0.27,0.91-0.36,2.04-0.64,2.62c-0.5,0.99-1.25,1.97-2.16,2.59
						c-1.8,1.23-3.98,1.61-6.12,1.39c-1.21-0.13-2.94-0.75-4.07-1.73c0.06,1.28,0.43,2.47,1.06,3.5h0c0,0,0.21,0.35,0.51,0.97
						c0.97,0.82,2.17,2.52,2.17,2.52h6.96c0.68-0.59,2.3-2.44,2.3-2.44c0.17-0.38,0.35-0.73,0.52-1.05h0
						c0.68-1.11,1.08-2.42,1.08-3.82C249.01,239.63,248.41,238.05,247.41,236.8z"/>
					<g>
						<path class="st16" d="M262.05,419.12h-4.11l-46.4-99.56l-2.48-5.3l-2.69-5.79h-9.42c-1.03,0-1.86-0.83-1.86-1.86
							c0-1.03,0.84-1.87,1.86-1.87h10.6c0.73,0,1.39,0.42,1.69,1.08l3.43,7.36c0.05,0.09,0.09,0.2,0.13,0.3L262.05,419.12z"/>
					</g>
					<g>
						<polygon class="st10" points="195.62,301.66 191.75,305.52 191.75,308.47 210.48,308.47 207.3,301.66 						"/>
					</g>
					<polygon class="st12" points="210.48,308.47 209.11,305.52 191.75,305.52 191.75,308.47 					"/>
					<polygon class="st15" points="210.48,308.47 206.37,308.47 207.74,311.43 211.85,311.43 					"/>
					<rect x="179.21" y="417.29" class="st10" width="9.47" height="1.83"/>
					<rect x="254.81" y="417.29" class="st10" width="9.47" height="1.83"/>
					<polygon class="st13" points="261.2,417.29 259.1,412.79 254.99,412.79 257.09,417.29 					"/>
					<polygon class="st13" points="186.2,417.29 187.36,412.79 183.5,412.79 182.34,417.29 					"/>
				</g>
			</g>
			<g>
				<path class="st0" d="M154.96,383.84c0,3.75-12.41,6.8-27.73,6.8s-27.73-3.04-27.73-6.8c0-3.76,12.41-6.8,27.73-6.8
					S154.96,380.09,154.96,383.84z"/>
				<g>
					<rect x="159.69" y="291.64" class="st12" width="8.83" height="5.76"/>
					<path class="st11" d="M160.8,309.33c0,0,0.26-2.88,0.46-3.73c0,0,0.85-1.87,2.48-3.06l1.05,2.54
						C164.79,305.08,162.89,309.33,160.8,309.33z"/>
					<g>
						<path class="st15" d="M164.12,310.17c-0.6,0-1.09-0.49-1.1-1.09l-0.03-8.53c0-0.6,0.49-1.09,1.09-1.1
							c0.6,0,1.09,0.48,1.1,1.09l0.03,8.52C165.21,309.68,164.73,310.17,164.12,310.17z"/>
					</g>
					<path class="st19" d="M165.18,300.55c0-0.6-0.49-1.09-1.1-1.09c-0.6,0-1.09,0.49-1.09,1.1l0,1.25h2.19L165.18,300.55z"/>
					<path class="st11" d="M165.19,301.85c-2.88,2.48-4.39,7.48-4.39,7.48l-1.6,1.41c1.97,0.03,2.84,1.75,2.61,3.28l1.58-2.43
						l3.63-2.88C167.95,303.16,165.19,301.85,165.19,301.85z"/>
					<path class="st8" d="M159.52,310.17l0.86-1.08c0,0,1.72,0.24,3.26,2.99l-1.29,1.21L159.52,310.17z"/>
					<path class="st20" d="M101.3,314.43c0,0,4.24,13.85,13.53,29.17l2.98,35l15.92-0.46V376l-11.75-2.59l1.97-32.58l-12.39-24.36
						L101.3,314.43z"/>
					<polygon class="st12" points="133.72,376 121.97,373.41 117.36,373.41 117.81,378.6 133.72,378.15 					"/>
					<polygon class="st16" points="133.72,377.04 117.71,377.5 117.81,378.6 133.72,378.15 					"/>
					<path class="st12" d="M112.62,326.42c0,0,4.68,10.71,10.97,20.42l0.36-6.01l-3.85-7.57L112.62,326.42z"/>
					<g>
						<path class="st14" d="M144.75,291.32c0,0-3.42,0.1-6.03,1.79l-2.88-3.23l3.84-3.95l4.76,1.4L144.75,291.32z"/>
						<g>
							<path class="st11" d="M138.69,283.11c0,0,1.75-12.12,11.7-8.47c0,0,9.53,2.64,2.45,17.15l-1.75-0.86c0,0-2.36,3.82-4.37,2.72
								l-7.48-7.25L138.69,283.11z"/>
							<path class="st14" d="M141.92,280.77l5.14-4.19l7.8,2.39c0.86,2.2,0.99,5.45-0.86,10.21L141.92,280.77z"/>
							<path class="st10" d="M138.69,283.11c0,0,1.75-12.12,11.7-8.47c0,0,6.5,1.8,4.77,10.6c-0.01,0-1.09,0.7-4.45-0.7
								c0,0-2,0.41-3.32,2.96l-1.2-0.72c0,0,1.53-3.71-0.02-4.9l-2,0.43c0,0-1.32,3.13-3.63,3.23l-1.52-0.4L138.69,283.11z"/>
							<g>
								<path class="st12" d="M146.48,282.22c1,1.43-0.28,4.57-0.28,4.57l1.2,0.72c1.32-2.55,3.32-2.96,3.32-2.96
									c3.36,1.4,4.44,0.7,4.45,0.7c0.38-1.95,0.35-3.55,0.08-4.87c-1.16,0.47-2.26,1.01-3.45,1.37
									C150.36,282.19,148.36,282.4,146.48,282.22z"/>
								<path class="st12" d="M144.17,282.32l1.19-0.25c-1.1-0.21-2.12-0.57-2.88-1.14c-0.93-0.7-1.55-1.91-1.79-3.21
									c-1.58,2.53-2,5.4-2,5.4l0.34,2.04l1.52,0.4C142.86,285.45,144.17,282.32,144.17,282.32z"/>
							</g>
							<path class="st11" d="M144,282.7c-0.56,1.37-0.32,2.76,0.54,3.11c0.86,0.35,2.01-0.48,2.56-1.84
								c0.56-1.37,0.32-2.76-0.54-3.11C145.7,280.51,144.55,281.33,144,282.7z"/>
						</g>
					</g>
					<polygon class="st8" points="134.39,288.77 137.27,287.21 143,293.11 141.64,294.17 					"/>
					<path class="st20" d="M107.45,316.23c0,0,3.71,11.3,20.2,30.57l1.09,39.8h17.69v-1.94l-12.71-3.27l5.23-37.37l-13.71-26.75
						L107.45,316.23z"/>
					<path class="st21" d="M101.3,314.43c0,0,6.15-19.11,33.09-25.66c0,0,6.77,2.27,10.36,7.37c0,0-4.07,6.83-16,16.08l-2.39,7.22
						C126.35,319.44,106.19,324.34,101.3,314.43z"/>
					<path class="st22" d="M126.35,319.44l2.39-7.22c4.92-3.81,8.49-7.21,11-9.89l-1.38-1.5l-11.42,9.12c0,0-2.48-0.88-3.92-2.95
						c0,0,0.42,2.84,3.1,5.22l-2.18,5.52c0,0-15.78,2.81-22.65-3.31C106.19,324.34,126.35,319.44,126.35,319.44z"/>
					<path class="st21" d="M144.75,296.14c0,0,7.64,11.19,11.02,17.04l3.84-3.65c0,0,2.28,0.52,3.32,3.65l-6.77,6.58
						c0,0-2.54,2.42-9.08-5.33l-8.76-10.62C138.32,303.81,137.05,294.98,144.75,296.14z"/>
					<polygon class="st12" points="146.43,384.66 133.72,381.39 128.6,381.39 128.74,386.6 146.43,386.6 					"/>
					<polygon class="st16" points="128.74,386.6 146.43,386.6 146.43,384.66 128.69,384.66 					"/>
					<rect x="159.53" y="296.43" class="st15" width="9.15" height="4.4"/>
					<polygon class="st19" points="168.68,298.3 159.53,298.92 159.53,297.68 168.68,297.68 					"/>
					<path class="st17" d="M159.69,293.43c0.13,0.05,0.27,0.09,0.42,0.11c0.3,0.05,0.64,0.1,0.86,0.36
						c0.21,0.25,0.17,0.58,0.33,0.86c0.55,0.94,0.89-0.21,1.14-0.62c0.27-0.46,1.13-0.75,1.64-0.46c0.52,0.29,0.06,1.19,0.55,1.54
						c0.68,0.49,0.87-0.96,0.95-1.35c0.09-0.49,0.39-1.26,1.07-1.1c0.64,0.15,0.49,1.11,0.66,1.58c0.08,0.23,0.24,0.63,0.53,0.4
						c0.19-0.15,0.12-0.69,0.15-0.92c0.04-0.3,0.08-0.57,0.31-0.8c0.07-0.07,0.14-0.12,0.22-0.16v-1.22h-8.83V293.43z"/>
				</g>
			</g>
			<g>
				<path class="st0" d="M330.96,432.5c0,3.76-12.41,6.8-27.73,6.8c-15.31,0-27.73-3.04-27.73-6.8c0-3.76,12.41-6.8,27.73-6.8
					C318.55,425.7,330.96,428.74,330.96,432.5z"/>
				<g>
					<g>
						<path class="st20" d="M310.65,364.56c0,0,2.75,8.79-3.11,33.13l0.79,28.07h-3.41c0,0-6.35-13.9-5.61-26.83
							c0,0-4.83-20.2-2.53-32.38C296.77,366.56,303.08,360.63,310.65,364.56z"/>
						<path class="st12" d="M296.15,373.96c0.13,5.55,1.63,10.36,3.93,13.78c1.18-5.46,0.3-12.74,1.09-23.12l-0.35-0.51
							c-2.49,0.99-4.05,2.45-4.05,2.45c-0.08,0.4-0.14,0.8-0.2,1.2C296.29,369.69,296.16,371.8,296.15,373.96z"/>
						<path class="st20" d="M286.74,357.77c0,0-6.37,13.07,1.71,37.62c0,0-3.57,5.44,0,32.32h3.11l4.35-31.85
							c0,0,4.37-19.09,5.37-32.23L286.74,357.77z"/>
						<path class="st14" d="M323.47,330.97c0,0,3.07,2.77-3.22,20.37l-1.05,18.77l1.05,3.63l-1.05,4.16c0,0-1.55-1.46-0.65-3.71
							c0,0-3.21,1.79-4.17-0.34l1.39-4.37l-1.87-17.06l3.58-17.7C317.47,334.7,318.37,330.96,323.47,330.97z"/>
						<g>
							<path class="st16" d="M319.44,389.43l-1.8-0.47c1.72-6.61,1.3-11.48-1.24-14.46c-3.21-3.75-8.8-3.26-8.86-3.25
								c-11.33,0.4-12.16,16.23-12.17,16.39l-1.86-0.08c0.01-0.18,0.93-17.71,13.91-18.17c0.21-0.03,6.57-0.58,10.4,3.9
								C320.78,376.77,321.32,382.2,319.44,389.43z"/>
						</g>
						<path class="st14" d="M307.54,369.68l-1.67,0.5l-2.28-0.5c0,0,0.33,1.03,0,2.26l0.01,0c-0.02,0.16-0.01,0.33,0.04,0.5
							c0.23,0.87,1,0.89,1.76,0.88c0.86,0,1.51,0.05,2.32,0.29c0.69,0.21,1.44,0.19,2.04-0.32c0.23-0.19,0.54-0.59,0.59-0.72
							l1.15-1.63L307.54,369.68z"/>
						<path class="st8" d="M284.88,357.77"/>
						<path class="st11" d="M300.62,325.23c0,0,9.41-11.03,22.85,5.73c0,0-0.67,4.48-4.77,11.09c0,0-2.26,4.8-6.65,5.01
							c0,0-2.78,11.84-1.4,17.49c0,0-14.85,8.82-25.77-6.79c0,0,5.83-8.83,7.96-16.11C292.84,341.66,294.65,331.45,300.62,325.23z"
							/>
						<path class="st14" d="M318.2,374.5c-0.3-0.17-0.59,0.1-0.84,0.21c0.29-0.74-0.16-2.14-1.15-1.88l-0.11,0.04
							c0.23-0.48-0.18-1.05-0.74-0.89c-0.44,0.13-0.7,0.57-0.93,0.92c-0.27,0.41-0.59,0.87-0.44,1.37c0.14,0.48,0.58,0.86,1.07,0.82
							c0.02,0.43,0.03,0.76,0.38,1.06c0.26,0.22,0.58,0.33,0.84,0.05c-0.28,0.51-0.27,1.31,0.18,1.7c0.56,0.49,0.89,0.02,1.22-0.42
							c0.31-0.41,0.62-0.82,0.76-1.32C318.55,375.74,318.69,374.78,318.2,374.5z"/>
						<path class="st14" d="M320.24,373.73l-1.04,4.17c0,0-1.56-1.46-0.65-3.72c0,0,0.12-2-0.23-1.86c0.15-0.55,0.09,1.05,0.56,0.76
							c0.28-0.17,0.7-0.45,1.04-0.49h0.01L320.24,373.73z"/>
						<path class="st21" d="M318.69,342.06c0.96-1.54,1.72-2.97,2.34-4.25c0.02-0.13,0.03-0.25,0.04-0.38
							c0.25-1.67,0.24-3.46,0.25-5.17c0.01-1.17,0.16-2.32,0.26-3.48c-0.37-0.4-0.73-0.78-1.09-1.13c0,0.3,0.01,0.59,0.01,0.89
							c0,2.61,0.27,5.58-0.76,8.02c-0.74,1.74-1.8,3.85-3.91,3.98c-1.03,0.06-2.22,0.06-2.98-0.69c-0.89-0.88-1.23-2.14-1.05-3.35
							c0.36-2.35,0.74-4.69,0.86-7.09c0.1-2.09,0.52-5.46-1-7.04c-0.15-0.16-0.31-0.29-0.48-0.42c-1.28-0.28-2.47-0.32-3.55-0.21
							c0.06,0.01,0.12,0.03,0.17,0.05c1.96,0.52,3.31,2.34,2.71,4.35c-0.62,2.09-1.86,4.19-3.16,5.99c-1.48,2.04-3.41,4.19-6.12,3.5
							c-2.47-0.62-3.04-3.1-3.34-5.27c-0.07-0.51-0.09-1.01-0.08-1.51c-3.76,5.91-4.99,12.82-4.99,12.82
							c-2.13,7.28-7.96,16.11-7.96,16.11c10.92,15.61,25.77,6.79,25.77,6.79c-1.39-5.65,1.4-17.49,1.4-17.49
							C316.43,346.86,318.69,342.06,318.69,342.06z"/>
						<path class="st22" d="M310.65,364.56c-1.38-5.64,1.38-17.44,1.4-17.49c-0.89-0.67-1.97-1.12-2.88-1.82
							c-0.62-0.47-1.23-0.8-1.79-1.4c-0.49-0.51-0.89-1.04-1.5-1.37c-0.27,1.06,0.03,2.26-0.11,3.37c-0.14,1.04-0.9,1.83-1.53,2.63
							c-1.33,1.71-1.56,3.62-2.27,5.69c-0.96,2.77-3.71,7.21-7.13,7.06c-3.15-0.14-6.59-2.93-8.74-5.39
							c-0.73,1.19-1.21,1.93-1.21,1.93C295.8,373.38,310.65,364.56,310.65,364.56z"/>
						<path class="st12" d="M327.3,325.68c-1.4,1.08-0.15,4.79,0.24,6.07c0.56,1.87,1.52,4.34,1,6.42c-0.65,2.6-3.73,2.59-5.61,1.34
							c-1.92-1.28-2.4-3.2-2.5-5.32c-0.06-1.32,0.07-2.66,0-3.98c-0.07-1.38-0.84-2.26-1-3.54c-0.38-3.09,5.53-3.81,7.31-2.09"/>
						<path class="st11" d="M302.54,327.34c0,0,3.42-7.17,8.11-2.52c0,0,2.4,3.24-2.67,10.84c0,0-6.61,9.38-7.47,13.22
							c0,0,4.59,12.38,6.61,15.89c0,0,3.39,3.84,4.36,6.19c0,0-10.34,3.3-7.46-4.28l-10.87-17.72
							C293.16,348.96,295.5,340.14,302.54,327.34z"/>
						<path class="st15" d="M290.86,388.23c0,0,0.04,8.53,10.42,16.01l3.02-8.5l-4.59-5.82L290.86,388.23z"/>
						<path class="st16" d="M320.53,391.61l-11.88,7.79l-0.12,0.07l-2.99,1.96l-1.53,1.01l-2.73,1.79
							c-3.1-11.04-10.42-16.01-10.42-16.01l19.25-12.62C310.11,375.61,317.44,380.57,320.53,391.61z"/>
						<path class="st11" d="M288.45,427.71c0,0-0.34,2.84-1.29,4c0,0-2.1,2.75,2,2.75h4.45c0,0,2.8-1.39-0.35-3.37
							c0,0-1.75-1.21-1.7-3.37H288.45z"/>
						<path class="st11" d="M308.32,425.77l0.33,2.72c0,0,10.52,2.15,11,3.64H305.7l0.39-3.18l-1.17-3.18H308.32z"/>
						<path class="st11" d="M287.37,417.86c0.25,2.92,0.6,6.17,1.09,9.85h3.11l1.35-9.85H287.37z"/>
						<path class="st11" d="M304.91,425.77h3.41l-0.22-7.9h-6.07C303.46,422.59,304.91,425.77,304.91,425.77z"/>
						<path class="st13" d="M293.49,431.24c-0.09,0.17-0.21,0.32-0.4,0.45c-1.06,0.69-2.79,0.35-3.91,0.04
							c-0.67-0.19-1.16-0.63-1.4-1.19c-0.17,0.45-0.38,0.86-0.62,1.17c0,0-2.1,2.75,2,2.75h4.45
							C293.61,434.45,296.25,433.14,293.49,431.24z"/>
						<path class="st13" d="M313.37,429.59c-0.03,0.25,0,0.46-0.26,0.65c-0.27,0.21-0.62,0.18-0.96,0.17
							c-0.74-0.03-1.43-0.16-2.19-0.16c-1.36,0-2.7,0-4.04,0l-0.23,1.87h13.95C319.39,431.33,316.24,430.33,313.37,429.59z"/>
					</g>
					<polygon class="st16" points="338.05,403.55 329.31,401.13 309.32,402.16 304.01,402.44 305.54,401.44 308.53,399.48 
						308.66,399.41 312.64,399.08 327.81,397.83 329.77,394.49 					"/>
					<polygon class="st15" points="312.64,399.08 309.32,402.16 304.01,402.44 305.54,401.44 308.53,399.48 308.66,399.41 					"/>
					<path class="st11" d="M318.69,318.58l3.71,6.48l2.09,4.23c0,0-2.42-3.56-7.56,0.51l-4.94-7.65
						C312,322.15,316.72,323.74,318.69,318.58z"/>
					<g>
						<g>
							<path class="st11" d="M318.69,318.58c0,0,3.44-11.75,12.78-6.74c0,0,7.18,2.43,1,13.64c-0.47,0.85-0.36,2.74-1,3.68
								l-1.61-1.1c0,0-2.87,3.45-4.71,2.07l-6.39-8.23L318.69,318.58z"/>
						</g>
					</g>
					<path class="st10" d="M334.97,317.79c-1.56,1.45-4.64,3.38-9.16,1.98c0,0-1.59,2.29-4.44,3.5c-0.38,0.17-0.8,0.31-1.23,0.42
						c-2.18,0.59-4.93,0.44-8.14-1.53c0,0,4.72,1.59,6.69-3.57c0,0,3.44-11.75,12.78-6.73
						C331.48,311.85,335.08,313.07,334.97,317.79z"/>
					<path class="st12" d="M333.46,313.26c-0.02,0.52-0.08,1.03-0.2,1.5c-0.7,2.81-3.01,3.75-5.63,3.75c-2.34,0-5.04,0-6.09-2.5
						c-0.28-0.66-0.42-1.37-0.45-2.08c-1.67,2.19-2.4,4.64-2.4,4.64c-1.98,5.17-6.69,3.57-6.69,3.57c3.21,1.97,5.96,2.12,8.14,1.53
						c0.43-0.11,0.85-0.25,1.23-0.42c2.84-1.2,4.44-3.5,4.44-3.5c4.52,1.4,7.61-0.53,9.16-1.98
						C335.02,315.6,334.28,314.17,333.46,313.26z"/>
					<path class="st11" d="M324,318.92c-0.75,1.28-0.71,2.69,0.09,3.16c0.8,0.47,2.05-0.19,2.8-1.46c0.75-1.28,0.71-2.69-0.09-3.16
						C326,316.99,324.75,317.64,324,318.92z"/>
				</g>
				<g>
					<path class="st23" d="M365.05,393.27c3.02-10.19-7.17-16.79-11.14-24.42c0.07,3.91-0.97,7.52,0.08,11.41
						c1.09,4.05,2.73,6.84,2.3,11.12c-0.38,3.75-1.21,8.41,0.19,12.13c0.95,2.52,2.76,5.16,4.41,7.53c0.84-2.11,2.37-3.99,2.79-6.58
						c0.28-1.77-0.36-4.05-0.24-5.95C363.57,396.38,364.47,395.23,365.05,393.27z"/>
					<g>
						<path class="st24" d="M393.79,404.34c-1.92-1.44-4.26-1.38-6.59-1.5c-2.94-0.15-4.63,0.84-6.59,2.96
							c-0.69,0.74-1.24,1.85-2.09,2.43c-0.96,0.65-2.44,0.68-3.41,1.53c-1.5,1.32-1.67,3.4-2.08,5.21c1.67-0.18,3.82-0.04,4.6-0.16
							c2.51-0.4,3.89-2.24,5.35-4.22c0.9-1.21,1.2-1.74,2.73-1.92c1.17-0.13,2.49-0.02,3.59,0.14c2.73,0.4,4.4,0.23,7-0.44
							c0.83-0.21,2.01,0.09,2.9,0.69C398.28,407.12,395.36,405.52,393.79,404.34z"/>
					</g>
					<g>
						<path class="st23" d="M385.26,390.27c-1.24,1.63-2.14,3.18-2.89,5.09c-0.67,1.7-1.58,3.67-3.14,4.79
							c-1.23,0.89-2.97,1.02-4.31,1.66c-3.58,1.71-5.02,6.61-3.99,10.49c1.89-1.26,3.26-3.52,5.15-4.85
							c2.28-1.6,3.54-4.23,5.71-5.84c2.38-1.76,4.82-2.21,6.41-5.05c1.21-2.15,1.66-4.73,1.53-7.19c-0.02-0.35-0.16-1.15-0.24-1.93
							c-0.16,0.09-0.33,0.17-0.5,0.28C387.55,388.67,386.38,388.81,385.26,390.27z"/>
					</g>
					<g>
						<path class="st24" d="M350.64,399.75c-1.16-3.01-2.93-5.35-5.53-7.19c-2.94-2.07-5.88-2.09-9.41-2.09
							c0.45,2.25,0.73,4.61,2.1,6.14c2.03,2.27,4.81,2.3,6.43,5.46c1.64,3.21,1.89,6.64,5.17,8.92c2.82,1.96,6.45,1.8,9.24,3.96
							c-0.8-2.88-0.86-5.95-3-8.55C353.57,403.91,351.89,402.99,350.64,399.75z"/>
					</g>
					<g>
						<path class="st15" d="M351.92,407.99c1.49,1.48,3.18,2.69,4.64,3.97c1.51,1.23,2.62,2.71,3.4,4.08l-0.03-0.04
							c0.5,0.96,0.83,1.8,1.12,2.54c0.3,0.74,0.53,1.39,0.72,1.92c0.38,1.06,0.57,1.66,0.5,1.69c-0.07,0.04-0.4-0.5-0.91-1.52
							c-0.25-0.51-0.55-1.13-0.89-1.84c-0.34-0.72-0.74-1.54-1.19-2.33l-0.01-0.02l-0.02-0.03c-0.8-1.22-1.84-2.54-3.33-3.71
							c-1.44-1.21-3.15-2.4-4.74-3.98c-0.41-0.49-0.88-0.92-1.23-1.44c-0.33-0.54-0.69-1.05-0.96-1.59
							c-0.54-1.11-0.77-2.26-1.02-3.28c-0.25-1.02-0.52-1.95-0.99-2.71c-0.47-0.78-0.97-1.47-1.52-2.02
							c-1.09-1.12-2.2-1.79-2.95-2.27c-0.76-0.48-1.19-0.74-1.15-0.81c0.03-0.06,0.51,0.08,1.34,0.45c0.82,0.37,2.04,0.97,3.27,2.1
							c0.63,0.55,1.21,1.27,1.75,2.1c0.57,0.84,0.9,1.88,1.18,2.91c0.29,1.04,0.53,2.1,1.01,3.07c0.25,0.49,0.59,0.94,0.88,1.42
							C351.11,407.14,351.55,407.54,351.92,407.99z"/>
					</g>
					<g>
						<path class="st15" d="M361.51,399.19c-1.64,6.53-0.33,12.59,0.43,16.89c0.84,4.32,1.27,7.03,1.13,7.06
							c-0.07,0.01-0.28-0.64-0.59-1.83c-0.3-1.19-0.77-2.92-1.26-5.07c-0.51-2.15-1.03-4.74-1.34-7.68
							c-0.05-0.74-0.11-1.49-0.16-2.26c0.02-0.78,0.03-1.57,0.05-2.38c-0.02-0.81,0.2-1.62,0.29-2.45c0.11-0.84,0.28-1.64,0.44-2.46
							c0.3-1.64,0.51-3.24,0.56-4.79c0.07-1.55-0.11-3.03-0.37-4.42c-0.61-2.78-1.73-5.14-2.63-7.15c-0.92-2-1.58-3.69-1.93-4.88
							c-0.32-1.2-0.42-1.88-0.36-1.9c0.08-0.02,0.31,0.63,0.74,1.77c0.46,1.14,1.21,2.73,2.21,4.7c0.98,1.96,2.21,4.34,2.91,7.26
							c0.3,1.46,0.51,3.03,0.45,4.65C362.02,395.86,361.82,397.52,361.51,399.19z"/>
						<path class="st12" d="M363.44,398.51c0.03-0.48,0.1-0.91,0.2-1.32c-0.19-0.2-0.37-0.4-0.58-0.61
							c-1.12-1.12-1.25-2.04-1.79-3.35c-1.43,2.67-2.79,6.13-1.84,8.98c0.54,1.6,1.71,2.88,2.52,4.32c0.24,0.43,0.41,0.85,0.55,1.28
							c0.52-1.02,0.98-2.1,1.18-3.35C363.96,402.69,363.32,400.41,363.44,398.51z"/>
					</g>
					<g>
						<path class="st15" d="M372.72,408.6c-1.07,2.14-1.34,4.54-2.02,6.64c-0.3,1.06-0.75,2.04-1.17,2.93
							c-0.45,0.86-0.88,1.64-1.24,2.36c-1.5,2.88-1.26,4.99-1.48,4.97c-0.06,0-0.17-0.51-0.14-1.44c0.01-0.94,0.28-2.31,0.95-3.84
							c0.32-0.77,0.72-1.58,1.13-2.44c0.36-0.87,0.75-1.78,1.02-2.81c0.61-2.02,0.84-4.46,2.01-6.83c0.34-0.56,0.59-1.17,1.01-1.65
							c0.41-0.48,0.77-1.02,1.21-1.42c0.86-0.85,1.74-1.59,2.59-2.28c1.72-1.34,3.28-2.48,4.52-3.53c2.48-2.08,3.61-3.78,3.76-3.67
							c0.06,0.04-0.19,0.48-0.69,1.26c-0.51,0.77-1.38,1.81-2.58,2.95c-1.2,1.14-2.75,2.36-4.4,3.72
							C375.56,404.92,373.75,406.46,372.72,408.6z"/>
					</g>
					<g>
						<path class="st15" d="M377.31,413.17c-1.11,0.46-2.14,0.85-2.95,1.56c-0.87,0.64-1.57,1.42-2.24,2.17
							c-1.28,1.55-2.17,3.2-2.9,4.52c-1.25,2.79-1.21,4.8-1.43,4.77c-0.07,0-0.1-0.49-0.07-1.38c0.04-0.88,0.25-2.18,0.82-3.69
							c0.69-1.45,1.52-3.14,2.83-4.83c0.69-0.81,1.42-1.66,2.37-2.38c0.89-0.79,2.09-1.26,3.17-1.71c1.1-0.45,2.12-0.89,2.87-1.59
							c0.78-0.7,1.38-1.59,2.01-2.41c1.18-1.7,2.91-3.1,4.6-3.26c1.65-0.28,2.94,0.09,3.79,0.27c0.86,0.22,1.31,0.38,1.3,0.45
							c-0.01,0.07-0.5,0.04-1.37-0.05c-0.86-0.06-2.13-0.29-3.57,0.06c-1.48,0.25-2.84,1.43-3.97,3.11c-0.6,0.82-1.2,1.77-2.09,2.59
							C379.58,412.23,378.41,412.73,377.31,413.17z"/>
					</g>
					<g>
						<path class="st24" d="M370.47,386.68c1.14-3.04,1.88-5.99,0.76-9.17c-0.48-1.34-1.18-2.59-1.61-3.94
							c-0.33,0.48-0.77,0.94-0.97,1.4c-0.45,1.04-0.49,2.24-0.75,3.33c-0.46,1.95-1.01,3.94-1.99,5.68
							c-1.9,3.39-5.05,5.83-5.77,9.89c-0.69,3.94,0.77,8.23,3,11.34c0.84,1.18,1.78,2.37,2.05,3.81c0.13,0.7,0.13,1.39,0.2,2.04
							c0.8-1.67,2.17-3.18,3.21-4.62c2.35-3.25,2.6-6.18,1.71-9.88C369.55,393.33,369.28,389.86,370.47,386.68z"/>
					</g>
					<g>
						<path class="st15" d="M365.93,401.18c0.58,3.17,0.28,6.27,0,8.97c-0.31,2.72-0.65,5.14-0.69,7.18
							c-0.17,4.09,0.7,6.53,0.49,6.59c-0.07,0.02-0.29-0.58-0.62-1.7c-0.2-0.55-0.31-1.26-0.41-2.09c-0.05-0.41-0.13-0.85-0.16-1.32
							c-0.01-0.47-0.02-0.97-0.03-1.49c-0.05-2.09,0.22-4.56,0.48-7.27c0.23-2.71,0.49-5.66-0.08-8.72c-0.51-3.04-1.08-6.2-0.23-9
							c0.24-0.67,0.53-1.32,0.82-1.92c0.33-0.56,0.64-1.1,0.95-1.63c0.61-1.04,1.16-2.01,1.58-2.94c0.87-1.83,1.22-3.43,1.33-4.56
							c0.05-1.13,0.04-1.77,0.13-1.78c0.06-0.01,0.21,0.62,0.28,1.8c0.02,1.18-0.24,2.91-1.06,4.84c-0.39,0.98-0.92,1.99-1.5,3.06
							c-0.29,0.53-0.59,1.08-0.9,1.65c-0.25,0.57-0.49,1.14-0.7,1.75C364.88,395.13,365.41,398.06,365.93,401.18z"/>
					</g>
					<path class="st25" d="M393.27,433.06h-55.34c1.85-3.2,3.89-6.13,7.31-7.88c2.19-1.12,4.44-1.46,6.7-2.06
						c2.5-0.65,4.16-2,6.44-2.99c5.46-2.35,9.67,1.74,14.88,2.06c2.37,0.14,4.54-1.33,7.01-1.12c2.68,0.23,5.18,1.89,7,3.81
						C390.04,427.77,391.14,430.59,393.27,433.06z"/>
				</g>
			</g>
		</g>
	</g>
</g>
</svg>
