<svg width="150" height="150" viewBox="0 0 150 150" fill="none" xmlns="http://www.w3.org/2000/svg">
<path d="M145.509 88.0239V61.0778H127.069C125.784 56.2455 123.844 51.6916 121.347 47.497L134.353 34.5718L115.365 15.458L102.233 28.4999C97.985 26.0029 93.3682 24.0628 88.473 22.8053V4.49097H61.5269V22.8053C56.6317 24.0628 52.0149 26.0029 47.7664 28.4999L34.6347 15.458L15.6467 34.5718L28.6526 47.497C26.1556 51.6916 24.2155 56.2544 22.9311 61.0778H4.49097V88.0239H22.6976C23.9281 92.964 25.8413 97.6347 28.3203 101.928L15.6377 114.53L34.6347 133.644L47.1916 121.168C51.5928 123.826 56.4161 125.874 61.5269 127.195V144.611H88.473V127.195C93.5838 125.883 98.3981 123.826 102.808 121.168L115.365 133.644L134.353 114.53L121.671 101.928C124.159 97.6257 126.072 92.964 127.293 88.0149H145.509V88.0239Z" stroke="#3E8C6B" stroke-width="4" stroke-miterlimit="10" stroke-linecap="round" stroke-linejoin="round"/>
<path d="M74.9999 112.724C95.8346 112.724 112.724 95.8346 112.724 74.9999C112.724 54.1652 95.8346 37.2754 74.9999 37.2754C54.1652 37.2754 37.2754 54.1652 37.2754 74.9999C37.2754 95.8346 54.1652 112.724 74.9999 112.724Z" stroke="#3E8C6B" stroke-width="4" stroke-miterlimit="10" stroke-linecap="round" stroke-linejoin="round"/>
<path d="M75 78.5929C76.9843 78.5929 78.5929 76.9843 78.5929 75C78.5929 73.0158 76.9843 71.4072 75 71.4072C73.0158 71.4072 71.4072 73.0158 71.4072 75C71.4072 76.9843 73.0158 78.5929 75 78.5929Z" stroke="#3E8C6B" stroke-width="4" stroke-miterlimit="10" stroke-linecap="round" stroke-linejoin="round"/>
<path d="M75 54.3413V71.6317" stroke="#3E8C6B" stroke-width="4" stroke-miterlimit="10" stroke-linecap="round" stroke-linejoin="round"/>
<path d="M57.9341 75H71.4071" stroke="#3E8C6B" stroke-width="4" stroke-miterlimit="10" stroke-linecap="round" stroke-linejoin="round"/>
</svg>
