<?xml version="1.0" encoding="utf-8"?>
<!-- Generator: Adobe Illustrator 24.1.2, SVG Export Plug-In . SVG Version: 6.00 Build 0)  -->
<svg version="1.1" id="Слой_1" xmlns="http://www.w3.org/2000/svg" xmlns:xlink="http://www.w3.org/1999/xlink" x="0px" y="0px"
	 viewBox="0 0 60 40" style="enable-background:new 0 0 60 40;" xml:space="preserve">
<style type="text/css">
	.st0{fill:#8EBB43;}
</style>
<g>
	<path class="st0" d="M29.6,40c-6.63,0-18.68-0.73-18.8-0.73c-4.41-0.17-7.93-3.65-8.19-8.1c0-0.01-0.55-5.52-0.6-10.57
		C1.98,15.54,2.64,8.88,2.64,8.82C2.88,4.4,6.41,0.9,10.85,0.73C10.95,0.72,23.1-0.04,30.04,0c6.93,0.03,19.04,0.72,19.17,0.73
		c4.43,0.17,7.96,3.66,8.19,8.13c0,0.02,0.66,6.42,0.62,11.73c-0.04,5.3-0.6,10.57-0.6,10.62c-0.25,4.4-3.77,7.88-8.19,8.05
		c-0.37,0.02-12.73,0.7-19.18,0.73C29.9,40,29.75,40,29.6,40z M29.57,1.9c-6.94,0-18.5,0.72-18.62,0.73
		C7.46,2.76,4.72,5.49,4.53,8.96c-0.01,0.11-0.66,6.66-0.62,11.62c0.04,4.96,0.58,10.38,0.59,10.44c0.2,3.51,2.94,6.22,6.39,6.35
		c0.15,0.01,12.69,0.77,19.14,0.73c6.47-0.03,18.97-0.72,19.09-0.73c0.01,0,0.01,0,0.02,0c3.45-0.13,6.19-2.84,6.39-6.31
		c0.01-0.1,0.55-5.28,0.59-10.48c0.04-5.2-0.61-11.51-0.61-11.57c-0.19-3.53-2.93-6.25-6.39-6.38C48.98,2.62,36.91,1.94,30.03,1.9
		C29.88,1.9,29.72,1.9,29.57,1.9z"/>
	<path class="st0" d="M23.01,29.1c-0.16,0-0.33-0.04-0.47-0.13c-0.29-0.17-0.47-0.48-0.47-0.82V11.85c0-0.34,0.18-0.65,0.47-0.82
		c0.29-0.17,0.66-0.17,0.95,0l14.02,8.15c0.29,0.17,0.47,0.48,0.47,0.82s-0.18,0.65-0.47,0.82l-14.02,8.14
		C23.34,29.05,23.17,29.1,23.01,29.1z M23.96,13.5V26.5L35.14,20L23.96,13.5z"/>
</g>
</svg>
