<svg width="150" height="150" viewBox="0 0 150 150" fill="none" xmlns="http://www.w3.org/2000/svg">
<path d="M54.1666 75.1794C54.1666 88.9871 42.9743 100.179 29.1666 100.179C15.3589 100.179 4.16663 88.9871 4.16663 75.1794H54.1666Z" stroke="#3E8C6B" stroke-width="4" stroke-miterlimit="10" stroke-linecap="round" stroke-linejoin="round"/>
<path d="M29.1667 35.1155L53.8462 75.5001H4.48718L29.1667 35.1155Z" stroke="#3E8C6B" stroke-width="4" stroke-miterlimit="10" stroke-linecap="round" stroke-linejoin="round"/>
<path d="M29.4872 35.1154L75 22.2949" stroke="#3E8C6B" stroke-width="4" stroke-miterlimit="10" stroke-linecap="round" stroke-linejoin="round"/>
<path d="M75 17.1667V121.974" stroke="#3E8C6B" stroke-width="4" stroke-miterlimit="10" stroke-linecap="round" stroke-linejoin="round"/>
<path d="M95.8333 75.1794C95.8333 88.9871 107.026 100.179 120.833 100.179C134.641 100.179 145.833 88.9871 145.833 75.1794H95.8333Z" stroke="#3E8C6B" stroke-width="4" stroke-miterlimit="10" stroke-linecap="round" stroke-linejoin="round"/>
<path d="M120.833 35.1155L96.1539 75.5001H145.513L120.833 35.1155Z" stroke="#3E8C6B" stroke-width="4" stroke-miterlimit="10" stroke-linecap="round" stroke-linejoin="round"/>
<path d="M120.513 35.1154L75 22.2949" stroke="#3E8C6B" stroke-width="4" stroke-miterlimit="10" stroke-linecap="round" stroke-linejoin="round"/>
<path d="M123.122 122.936H75H26.8782C23.5385 122.936 20.8334 125.641 20.8334 128.981V132.551H75H129.167V128.981C129.167 125.641 126.462 122.936 123.122 122.936Z" stroke="#3E8C6B" stroke-width="4" stroke-miterlimit="10" stroke-linecap="round" stroke-linejoin="round"/>
</svg>
